%FSTAX23Y23*%
%MOMM*%
%SFA1B1*%

%IPPOS*%
%ADD9500C,0.329999*%
%ADD9501C,1.299997*%
%ADD9502C,1.999996*%
%LNledpendantpcb-1*%
%LPD*%
G54D9500*
X-00762Y-25908D03*
X00762D03*
X01999Y-24899D03*
X02319Y-21559D03*
X0Y-2135D03*
Y-22199D03*
X06799Y-22599D03*
X07999Y-22519D03*
X06699Y-21399D03*
X-21259Y-02088D03*
X-22199Y-01899D03*
X-23399Y-01905D03*
X-24765D03*
X-21799Y00499D03*
X-21699Y01399D03*
X-21099Y01999D03*
X-22699Y01899D03*
X-21199Y06299D03*
X-19799Y06999D03*
X-17399Y05199D03*
X-15199Y04999D03*
X-14234Y05017D03*
X-13599Y04499D03*
X-15075Y02249D03*
X-14699Y00999D03*
X-15325Y00324D03*
X-17499Y00524D03*
X-18599D03*
Y01624D03*
X-17499D03*
X-16599Y-03099D03*
X-15999Y-03799D03*
X-15775Y-04624D03*
X-15499Y-05499D03*
X-17049Y-06959D03*
X-16769Y-07659D03*
X-16489Y-08349D03*
X-16209Y-09049D03*
X-15939Y-09749D03*
X-15659Y-10429D03*
X-14979Y-12099D03*
X-14899Y-13899D03*
X-15799Y-14699D03*
X-16999Y-15199D03*
X-18199Y-14099D03*
X-18899Y-14499D03*
X-19599Y-15099D03*
X-19499Y-16199D03*
X-17526Y-1905D03*
X-16002D03*
X-14999Y-17799D03*
X-09799Y-12499D03*
X-07999Y-09799D03*
X-05499Y-10399D03*
X-04699Y-11199D03*
X-03799Y-12199D03*
X-02299Y-11699D03*
X0Y-13299D03*
X-00762Y-16764D03*
X00762D03*
X01799Y-16799D03*
X00799Y-17799D03*
Y-18699D03*
X-00824Y-19425D03*
X-03009Y-19759D03*
X02799Y-19399D03*
Y-18099D03*
X02999Y-14586D03*
X05974Y-13474D03*
X09069Y-12879D03*
X10419Y-12029D03*
X11496Y-09902D03*
X127Y-10499D03*
X13699Y-11299D03*
X14499Y-11799D03*
X15699Y-12199D03*
X15799Y-11299D03*
X15699Y-10399D03*
X15956Y-09584D03*
X18699Y-09699D03*
Y-11299D03*
Y-13999D03*
X17449Y-13049D03*
X16999Y-14899D03*
X16199Y-15299D03*
X14199Y-15499D03*
X13325Y-15375D03*
X12899Y-16499D03*
X12199Y-15899D03*
X11199Y-15399D03*
X10999Y-16699D03*
Y-17699D03*
X09599Y-18699D03*
X16002Y-1905D03*
X17399Y-18799D03*
X18699Y-17499D03*
X14399Y-16699D03*
X13899Y-08699D03*
X149Y-06524D03*
X13901Y-03073D03*
X13175Y-03499D03*
X11599Y-03199D03*
X09999Y-03299D03*
X09199Y-03699D03*
X10199Y-02049D03*
X1355Y-01924D03*
X16024Y-01524D03*
Y-02524D03*
X12099Y00299D03*
X11799Y01199D03*
Y04899D03*
X11999Y05799D03*
X11599Y07399D03*
X10424Y06874D03*
X11099Y09299D03*
X12199Y09399D03*
X13499Y11399D03*
X13799Y14699D03*
X14699Y13799D03*
X16099Y14999D03*
X17329Y14829D03*
X16399Y18799D03*
X16999Y09499D03*
X14599Y06399D03*
X14199Y05199D03*
X14099Y04099D03*
X13875Y03224D03*
X09399Y04399D03*
X08584Y04199D03*
X08599Y-00099D03*
X07555D03*
X06599Y0D03*
X02524Y01524D03*
X01599Y02599D03*
X00799Y03399D03*
X00899Y04499D03*
X01099Y05399D03*
X0378Y04974D03*
X03899Y03999D03*
X0476Y0515D03*
X05599Y06199D03*
X06499Y07299D03*
X06024Y08524D03*
X04799Y08499D03*
X07199Y08399D03*
X08199Y09399D03*
X07499Y10799D03*
Y14699D03*
X05099Y13499D03*
X04449Y1405D03*
X01899Y12999D03*
X00799Y11599D03*
X-03549Y12049D03*
X-04799Y12099D03*
X-06799Y12199D03*
X-07499Y11699D03*
X-05499Y10399D03*
X-05999Y09099D03*
X-08699Y09499D03*
Y08674D03*
X-08749Y03849D03*
X-06699Y03599D03*
Y05199D03*
X-06799Y01199D03*
X-07799Y0D03*
X-09099Y-00199D03*
X-0627Y-0067D03*
X-06999Y-01399D03*
X-07099Y-02299D03*
X-07499Y-04199D03*
X-07799Y-05099D03*
X-07899Y-06499D03*
X-04945D03*
X-04299Y-04799D03*
X-03399Y-05599D03*
X-02799Y-07099D03*
X-03999Y-01899D03*
X-00762Y-01905D03*
X00762D03*
X01899Y-00899D03*
X-00899Y01999D03*
X-02599Y01199D03*
X-03799D03*
X-01499Y08099D03*
Y14599D03*
X-02399Y15399D03*
X-03299Y17499D03*
X-01799Y18399D03*
X-00799D03*
X-05999Y15999D03*
X-08599Y15374D03*
X-09699D03*
Y14274D03*
X-08599D03*
X-09899Y17699D03*
X-10899Y17599D03*
X-11899Y17399D03*
X-12899Y17099D03*
X-12299Y16399D03*
X-12899Y15699D03*
X-16383Y14859D03*
X-17907D03*
X-15599Y18799D03*
X-13699Y12099D03*
X-10799Y11599D03*
X-13099Y-01499D03*
X-14499Y-03199D03*
X-09519Y-08209D03*
X01699Y-10099D03*
X06499Y-07499D03*
X07299Y-04999D03*
X10299Y-06799D03*
Y-07799D03*
X10382Y-08782D03*
X10399Y13799D03*
X22399Y01999D03*
X23241Y-01905D03*
X24765D03*
X25699Y-01899D03*
X25199Y-03699D03*
X19599Y-05474D03*
X20999Y-12999D03*
X22299D03*
X01099Y19899D03*
X00499Y19299D03*
X-02299Y21199D03*
Y22025D03*
X-02094Y24765D03*
X-04499Y25525D03*
X-05831Y25638D03*
X-05624Y24675D03*
X-04299Y20199D03*
X02099Y22999D03*
Y23899D03*
X-13799Y21299D03*
X-14799Y20399D03*
X-13999Y19599D03*
G54D9501*
X-03199Y23799D03*
X02641Y25247D03*
X04433Y2421D03*
X14319Y20115D03*
G54D9502*
X-09853Y-21794D03*
X09853D03*
X-21794Y09853D03*
X21794D03*
M02*