%FSTAX23Y23*%
%MOMM*%
%SFA1B1*%

%IPPOS*%
%AMD85*
4,1,4,-0.480060,0.967740,-1.079500,-0.068580,0.480060,-0.967740,1.079500,0.068580,-0.480060,0.967740,0.0*
%
%AMD86*
4,1,4,0.713740,-0.881380,1.043940,-0.441960,-0.713740,0.881380,-1.043940,0.441960,0.713740,-0.881380,0.0*
%
%ADD72R,0.899998X0.599999*%
%ADD73R,0.899998X0.399999*%
%ADD74R,0.399999X1.099998*%
%ADD82C,2.102996*%
%ADD83C,2.560995*%
%ADD84C,0.888998*%
G04~CAMADD=85~9~0.0~0.0~473.6~709.8~0.0~0.0~0~0.0~0.0~0.0~0.0~0~0.0~0.0~0.0~0.0~0~0.0~0.0~0.0~60.0~850.0~761.0*
%ADD85D85*%
G04~CAMADD=86~9~0.0~0.0~217.7~867.3~0.0~0.0~0~0.0~0.0~0.0~0.0~0~0.0~0.0~0.0~0.0~0~0.0~0.0~0.0~233.0~822.0~693.0*
%ADD86D86*%
%ADD87R,0.812998X1.802996*%
%LNledpendantpcb-1*%
%LPD*%
G54D72*
X09499Y02899D03*
Y01099D03*
X07999Y02899D03*
Y01099D03*
X-00749Y-00899D03*
Y00899D03*
X00749Y-00899D03*
Y00899D03*
X-07999Y02899D03*
Y01099D03*
X-09499Y02899D03*
Y01099D03*
X-00749Y-15899D03*
Y-14099D03*
X00749Y-15899D03*
Y-14099D03*
Y-23099D03*
Y-24899D03*
X-00749Y-23099D03*
Y-24899D03*
X-17719Y-17869D03*
Y-16069D03*
X-16219Y-17869D03*
Y-16069D03*
X-23249Y00899D03*
Y-00899D03*
X-24749Y00899D03*
Y-00899D03*
X-17719Y16069D03*
Y17869D03*
X-16219Y16069D03*
Y17869D03*
X00749Y24899D03*
Y23099D03*
X-00749Y24899D03*
Y23099D03*
X16219Y16069D03*
Y17869D03*
X17719Y16069D03*
Y17869D03*
X24749Y00899D03*
Y-00899D03*
X23249Y00899D03*
Y-00899D03*
X16219Y-17869D03*
Y-16069D03*
X17719Y-17869D03*
Y-16069D03*
G54D73*
X09499Y01999D03*
X07999D03*
X-00749Y0D03*
X00749D03*
X-07999Y01999D03*
X-09499D03*
X-00749Y-14999D03*
X00749D03*
Y-23999D03*
X-00749D03*
X-17719Y-16969D03*
X-16219D03*
X-23249Y0D03*
X-24749D03*
X-17719Y16969D03*
X-16219D03*
X00749Y23999D03*
X-00749D03*
X16219Y16969D03*
X17719D03*
X24749Y0D03*
X23249D03*
X16219Y-16969D03*
X17719D03*
G54D74*
X08749Y02829D03*
Y01169D03*
X0Y-00829D03*
Y00829D03*
X-08749Y02829D03*
Y01169D03*
X0Y-15829D03*
Y-14169D03*
Y-23169D03*
Y-24829D03*
X-16969Y-17799D03*
Y-16139D03*
X-23999Y00829D03*
Y-00829D03*
X-16969Y16139D03*
Y17799D03*
X0Y24829D03*
Y23169D03*
X16969Y16139D03*
Y17799D03*
X23999Y00829D03*
Y-00829D03*
X16969Y-17799D03*
Y-16139D03*
G54D82*
X04433Y2421D03*
X14319Y20115D03*
X-03199Y23799D03*
X02641Y25247D03*
G54D83*
X09853Y-21794D03*
X-09853D03*
X21794Y09853D03*
X-21794D03*
G54D84*
X-17499Y00524D03*
X-18599D03*
X-17499Y01624D03*
X-18599D03*
G54D85*
X1211Y-08874D03*
X15438Y-07909D03*
X12938Y-12239D03*
X14188Y-10074D03*
X1086Y-11039D03*
X1336Y-06709D03*
G54D86*
X04156Y01156D03*
X04578Y01715D03*
X04999Y02274D03*
X0542Y02833D03*
X05842Y03392D03*
X06263Y03951D03*
X06684Y0451D03*
X07105Y05069D03*
X07527Y05628D03*
X07948Y06187D03*
X08369Y06746D03*
X0879Y07305D03*
X09212Y07864D03*
X09633Y08423D03*
G54D87*
X17699Y-04199D03*
X18969D03*
X17699Y01199D03*
X18969D03*
X16429Y-04199D03*
X20239D03*
X16429Y01199D03*
X20239D03*
M02*