%FSTAX23Y23*%
%MOMM*%
%SFA1B1*%

%IPPOS*%
%ADD54C,0.150000*%
%ADD57C,0.253999*%
%LNledpendantpcb-1*%
%LPD*%
G36*
X-11571Y-10463D02*
X-11562Y-10467D01*
X-11557Y-10473*
X-1155Y-10479*
X-11547Y-10483*
X-11546Y-10484*
Y-10485*
X-11479Y-10601*
X-11478Y-1061*
X-11479Y-10618*
Y-10625*
X-1148Y-10631*
X-11483Y-10642*
X-11486Y-10651*
X-1149Y-10656*
X-11493Y-1066*
X-11495Y-10662*
X-11496Y-10663*
X-11946Y-10923*
X-1197Y-10937*
X-11992Y-10954*
X-12011Y-10971*
X-1203Y-10989*
X-12046Y-11007*
X-1206Y-11025*
X-12074Y-11042*
X-12084Y-11059*
X-12094Y-11075*
X-12102Y-11091*
X-12109Y-11104*
X-12114Y-11116*
X-12118Y-11126*
X-12122Y-11133*
X-12123Y-11138*
Y-11139*
X-12131Y-11165*
X-12135Y-11191*
X-12137Y-11215*
X-12138Y-11239*
X-12137Y-11261*
X-12135Y-11282*
X-12131Y-11303*
X-12127Y-11322*
X-12122Y-11339*
X-12117Y-11355*
X-12112Y-11368*
X-12108Y-11379*
X-12103Y-11388*
X-121Y-11395*
X-12098Y-11399*
X-12097Y-11401*
X-12084Y-11423*
X-12068Y-11442*
X-12052Y-11459*
X-12035Y-11475*
X-12017Y-11489*
X-12Y-11501*
X-11982Y-11512*
X-11964Y-11522*
X-11949Y-1153*
X-11934Y-11536*
X-1192Y-11542*
X-11908Y-11546*
X-11899Y-11549*
X-11891Y-11551*
X-11886Y-11552*
X-11885*
X-11858Y-11557*
X-11832Y-11559*
X-11806*
X-11781Y-11558*
X-11757Y-11557*
X-11735Y-11551*
X-11713Y-11546*
X-11693Y-11541*
X-11675Y-11535*
X-11658Y-11528*
X-11644Y-11523*
X-11633Y-11518*
X-11622Y-11513*
X-11615Y-1151*
X-11611Y-11507*
X-11609Y-11506*
X-11159Y-11247*
X-11152Y-11243*
X-11145Y-1124*
X-11138*
X-11132*
X-11121Y-11242*
X-11112Y-11246*
X-11106Y-11252*
X-11101Y-11258*
X-11097Y-11262*
X-11096Y-11263*
Y-11264*
X-11029Y-1138*
X-11026Y-11387*
X-11023Y-11393*
X-11022Y-114*
Y-11406*
X-11025Y-11417*
X-11029Y-11426*
X-11035Y-11432*
X-1104Y-11438*
X-11045Y-11441*
X-11046Y-11442*
X-11496Y-11702*
X-11516Y-11712*
X-11536Y-11722*
X-11575Y-11739*
X-11614Y-11753*
X-11653Y-11763*
X-11691Y-1177*
X-11727Y-11775*
X-11762Y-11778*
X-11795Y-11779*
X-11825Y-11778*
X-11852Y-11777*
X-11876Y-11775*
X-11896Y-11773*
X-11913Y-1177*
X-1192Y-11769*
X-11926Y-11768*
X-1193Y-11766*
X-11933*
X-11935Y-11765*
X-11936*
X-11957Y-1176*
X-11978Y-11754*
X-11997Y-11746*
X-12017Y-11738*
X-12054Y-1172*
X-12087Y-11701*
X-12118Y-11681*
X-12147Y-11659*
X-12172Y-11637*
X-12195Y-11615*
X-12215Y-11594*
X-12233Y-11574*
X-12248Y-11557*
X-1226Y-1154*
X-12265Y-11533*
X-1227Y-11526*
X-12274Y-11521*
X-12277Y-11516*
X-12279Y-11512*
X-12281Y-1151*
X-12282Y-11508*
X-12292Y-11489*
X-12302Y-1147*
X-12319Y-11431*
X-1233Y-11393*
X-12339Y-11355*
X-12346Y-11318*
X-12349Y-11282*
X-12352Y-11249*
X-12351Y-11216*
X-1235Y-11187*
X-12348Y-1116*
X-12345Y-11136*
X-12342Y-11116*
X-12339Y-11099*
X-12336Y-11087*
X-12335Y-11083*
X-12334Y-11079*
X-12333Y-11077*
X-12326Y-11056*
X-12319Y-11035*
X-12303Y-10996*
X-12284Y-1096*
X-12263Y-10925*
X-12241Y-10894*
X-12218Y-10866*
X-12195Y-1084*
X-12172Y-10816*
X-1215Y-10796*
X-12128Y-10777*
X-1211Y-10762*
X-121Y-10756*
X-12093Y-1075*
X-12085Y-10745*
X-12079Y-1074*
X-12073Y-10737*
X-12069Y-10733*
X-12065Y-10731*
X-12061Y-10729*
X-1206Y-10728*
X-12059Y-10727*
X-11609Y-10468*
X-11601Y-10464*
X-11594Y-10461*
X-11588*
X-11582*
X-11571Y-10463*
G37*
G36*
X-10998Y-11938D02*
X-10971Y-1194D01*
X-10948Y-11942*
X-10928Y-11945*
X-10911Y-11948*
X-109Y-1195*
X-10895Y-11952*
X-10892*
X-1089*
X-10889*
X-10869Y-11959*
X-10848Y-11965*
X-1081Y-11981*
X-10774Y-11999*
X-1074Y-12018*
X-1071Y-1204*
X-10682Y-12061*
X-10657Y-12084*
X-10633Y-12106*
X-10613Y-12127*
X-10596Y-12147*
X-10581Y-12165*
X-10569Y-12182*
X-10564Y-12188*
X-10559Y-12195*
X-10556Y-12201*
X-10552Y-12205*
X-1055Y-12209*
X-10549Y-12212*
X-10548Y-12213*
X-10547Y-12214*
X-10297Y-12647*
X-10294Y-12655*
X-10291Y-12661*
Y-12668*
Y-12673*
X-10293Y-12684*
X-10297Y-12693*
X-10303Y-127*
X-10309Y-12705*
X-10313Y-12709*
X-10314*
X-10315Y-1271*
X-1121Y-13226*
X-11217Y-1323*
X-11223Y-13232*
X-1123Y-13233*
X-11236*
X-11247Y-13231*
X-11256Y-13226*
X-11262Y-1322*
X-11267Y-13216*
X-11271Y-13211*
X-11272Y-1321*
X-11522Y-12777*
X-11532Y-12757*
X-11542Y-12738*
X-11557Y-127*
X-11571Y-12662*
X-1158Y-12624*
X-11587Y-12588*
X-11591Y-12553*
X-11594Y-12519*
Y-12487*
X-11593Y-12458*
X-11591Y-12431*
X-11588Y-12408*
X-11586Y-12389*
X-11582Y-12372*
X-11581Y-1236*
X-11579Y-12356*
Y-12353*
X-11578Y-1235*
X-11572Y-12329*
X-11565Y-12309*
X-11549Y-1227*
X-11532Y-12235*
X-11512Y-12202*
X-11491Y-12172*
X-11469Y-12143*
X-11447Y-12118*
X-11425Y-12095*
X-11404Y-12075*
X-11384Y-12058*
X-11366Y-12043*
X-11349Y-12031*
X-11342Y-12026*
X-11336Y-12021*
X-1133Y-12018*
X-11326Y-12014*
X-11322Y-12012*
X-11319Y-12011*
X-11318Y-1201*
X-11317Y-12009*
X-11298Y-11999*
X-11279Y-1199*
X-1124Y-11973*
X-11203Y-1196*
X-11165Y-11951*
X-11128Y-11944*
X-11093Y-1194*
X-11059Y-11938*
X-11027*
X-10998Y-11938*
G37*
G36*
X-15675Y-06827D02*
X-15668Y-0683D01*
X-15664Y-06834*
X-1566Y-06838*
X-15657Y-06842*
X-15656Y-06843*
X-15462Y-07179*
X-15454Y-07193*
X-15447Y-07207*
X-15436Y-07236*
X-15426Y-07265*
X-15419Y-07293*
X-15413Y-0732*
X-15411Y-07347*
X-15409Y-07372*
X-15408Y-07396*
X-15409Y-07418*
X-15411Y-07437*
X-15413Y-07455*
X-15415Y-0747*
X-15417Y-07482*
X-15419Y-07491*
X-1542Y-07494*
Y-07497*
X-15421Y-07498*
Y-07499*
X-15425Y-07514*
X-1543Y-07529*
X-15442Y-07559*
X-15456Y-07585*
X-15471Y-0761*
X-15487Y-07633*
X-15503Y-07654*
X-1552Y-07673*
X-15537Y-07691*
X-15552Y-07705*
X-15568Y-07719*
X-15581Y-0773*
X-15587Y-07734*
X-15594Y-07739*
X-15599Y-07742*
X-15604Y-07747*
X-15608Y-07749*
X-15611Y-07751*
X-15614Y-07753*
X-15616Y-07754*
X-15617Y-07755*
X-15618*
X-15632Y-07763*
X-15646Y-0777*
X-15675Y-07782*
X-15703Y-07792*
X-15731Y-07798*
X-15759Y-07804*
X-15785Y-07807*
X-1581Y-07809*
X-15834*
X-15856Y-07808*
X-15876Y-07806*
X-15894Y-07805*
X-15908Y-07803*
X-15921Y-078*
X-1593Y-07799*
X-15933Y-07798*
X-15935Y-07797*
X-15937*
X-15953Y-07792*
X-15968Y-07787*
X-15997Y-07775*
X-16023Y-07762*
X-16048Y-07747*
X-16071Y-07732*
X-16092Y-07715*
X-16111Y-07699*
X-16129Y-07682*
X-16143Y-07666*
X-16157Y-07651*
X-16168Y-07638*
X-16176Y-07625*
X-1618Y-0762*
X-16184Y-07615*
X-16186Y-07611*
X-16189Y-07608*
X-16191Y-07605*
X-16192Y-07603*
X-16193Y-07602*
Y-07601*
X-16387Y-07265*
X-1639Y-07259*
X-16392Y-07254*
Y-07249*
Y-07245*
X-16391Y-07236*
X-16387Y-0723*
X-16383Y-07225*
X-16379Y-07221*
X-16376Y-07218*
X-16375*
X-16224Y-0713*
X-16218Y-07128*
X-16213Y-07126*
X-16204Y-07125*
X-16196Y-07128*
X-1619Y-07131*
X-16184Y-07135*
X-16181Y-07139*
X-16178Y-07143*
X-16177Y-07144*
X-16133Y-07221*
X-1613Y-07227*
X-16129Y-07232*
X-16127Y-07236*
Y-0724*
X-16129Y-07249*
X-16132Y-07255*
X-16137Y-0726*
X-1614Y-07264*
X-16143Y-07267*
X-16144*
X-16145*
X-16165Y-07279*
X-1617Y-07283*
X-16174Y-07286*
X-16177Y-07289*
X-16179Y-07293*
X-16182Y-07301*
Y-07308*
X-16181Y-07315*
X-1618Y-0732*
X-16178Y-07324*
Y-07325*
X-16062Y-07525*
X-16052Y-07542*
X-1604Y-07556*
X-16028Y-0757*
X-16015Y-07582*
X-16002Y-07593*
X-15989Y-07602*
X-15976Y-0761*
X-15963Y-07617*
X-15952Y-07624*
X-15941Y-07628*
X-1593Y-07633*
X-15922Y-07636*
X-15914Y-07638*
X-15909Y-0764*
X-15906Y-07641*
X-15905*
X-15885Y-07645*
X-15865Y-07647*
X-15846Y-07648*
X-15828Y-07647*
X-15811Y-07645*
X-15794Y-07642*
X-15778Y-07639*
X-15763Y-07635*
X-1575Y-0763*
X-15738Y-07626*
X-15727Y-07622*
X-15719Y-07618*
X-15712Y-07615*
X-15706Y-07612*
X-15703Y-0761*
X-15702*
X-15684Y-07599*
X-15669Y-07587*
X-15654Y-07574*
X-1564Y-07561*
X-15629Y-07548*
X-15618Y-07534*
X-15609Y-07521*
X-15601Y-07508*
X-15594Y-07496*
X-15588Y-07486*
X-15583Y-07476*
X-15579Y-07467*
X-15577Y-0746*
X-15574Y-07455*
X-15573Y-07451*
Y-0745*
X-15568Y-0743*
X-15565Y-07411*
X-15563Y-07393*
Y-07376*
X-15564Y-07359*
X-15566Y-07343*
X-15568Y-07328*
X-15572Y-07314*
X-15576Y-07301*
X-15579Y-07289*
X-15583Y-07279*
X-15587Y-07271*
X-1559Y-07265*
X-15592Y-0726*
X-15593Y-07257*
X-15594Y-07255*
X-1571Y-07055*
X-15713Y-0705*
X-15717Y-07046*
X-15724Y-0704*
X-15731Y-07038*
X-15739*
X-15746Y-07039*
X-1575Y-0704*
X-15754Y-07042*
X-15755*
Y-07043*
X-15775Y-07054*
X-15781Y-07057*
X-15786Y-07058*
X-15791Y-07059*
X-15795*
X-15803Y-07057*
X-1581Y-07054*
X-15815Y-0705*
X-15818Y-07046*
X-15821Y-07043*
Y-07042*
X-15822*
X-15866Y-06964*
X-15869Y-06958*
X-15871Y-06953*
Y-06949*
X-15872Y-06944*
X-1587Y-06936*
X-15867Y-06929*
X-15862Y-06924*
X-15859Y-06921*
X-15855Y-06918*
X-15854Y-06917*
X-15704Y-0683*
X-15698Y-06828*
X-15693Y-06825*
X-15688*
X-15683*
X-15675Y-06827*
G37*
G36*
X-13952Y-06614D02*
X-13937Y-06615D01*
X-13923Y-06617*
X-13911Y-06619*
X-13901Y-06621*
X-13894Y-06622*
X-13889Y-06623*
X-13888Y-06624*
X-13864Y-06631*
X-13841Y-06641*
X-1382Y-06652*
X-138Y-06664*
X-13781Y-06676*
X-13765Y-06689*
X-13749Y-06703*
X-13735Y-06716*
X-13723Y-06729*
X-13713Y-06742*
X-13704Y-06752*
X-13697Y-06762*
X-13691Y-06771*
X-13687Y-06776*
X-13684Y-0678*
X-13683Y-06782*
X-13309Y-0743*
X-13306Y-07438*
X-13304Y-07444*
X-13303Y-07451*
Y-07456*
X-13305Y-07467*
X-1331Y-07476*
X-13315Y-07482*
X-13321Y-07488*
X-13325Y-07491*
X-13326Y-07493*
X-13327*
X-14222Y-08009*
X-1423Y-08012*
X-14236Y-08015*
X-14243Y-08016*
X-14248*
X-14259Y-08013*
X-14268Y-08009*
X-14275Y-08003*
X-14279Y-07998*
X-14283Y-07994*
Y-07993*
X-14284Y-07992*
X-14351Y-07876*
X-14354Y-07869*
X-14357Y-07862*
X-14358Y-07856*
Y-07849*
X-14356Y-07839*
X-14351Y-0783*
X-14345Y-07823*
X-14341Y-07818*
X-14336Y-07815*
Y-07814*
X-14335*
X-14136Y-07699*
X-14129Y-07694*
X-14124Y-0769*
X-1412Y-07685*
X-14116Y-0768*
X-14113Y-07669*
X-14112Y-07659*
X-14113Y-07652*
X-14115Y-07644*
X-14117Y-0764*
X-14118Y-07638*
X-1438Y-07184*
X-14392Y-07161*
X-14401Y-07138*
X-14409Y-07115*
X-14416Y-07093*
X-1442Y-07071*
X-14422Y-0705*
X-14425Y-0703*
Y-07011*
X-14424Y-06993*
X-14423Y-06978*
X-14422Y-06963*
X-14421Y-06951*
X-14419Y-06942*
X-14417Y-06935*
Y-0693*
X-14416Y-06929*
X-14409Y-06904*
X-144Y-06882*
X-1439Y-0686*
X-14378Y-0684*
X-14366Y-06823*
X-14353Y-06806*
X-14339Y-0679*
X-14327Y-06777*
X-14314Y-06765*
X-14302Y-06755*
X-14292Y-06746*
X-14282Y-06739*
X-14274Y-06733*
X-14269Y-06729*
X-14265Y-06727*
X-14263Y-06726*
X-14141Y-06655*
X-14119Y-06644*
X-14097Y-06635*
X-14074Y-06627*
X-14051Y-06622*
X-14029Y-06618*
X-14009Y-06616*
X-13989Y-06614*
X-1397Y-06613*
X-13952Y-06614*
G37*
G36*
X-13087Y-07837D02*
X-13078Y-07841D01*
X-13072Y-07847*
X-13067Y-07851*
X-13063Y-07856*
Y-07857*
X-12988Y-07986*
X-12984Y-07996*
X-12982Y-08005*
Y-08014*
X-12984Y-08021*
X-12986Y-08028*
X-12988Y-08032*
X-12991Y-08036*
Y-08037*
X-13262Y-08391*
X-13266Y-08399*
X-13268Y-08406*
X-13269Y-08413*
X-13268Y-0842*
X-13267Y-08426*
X-13266Y-0843*
X-13264Y-08434*
X-13263*
X-13068Y-08773*
X-13063Y-08779*
X-13059Y-08784*
X-1305Y-08792*
X-13039Y-08794*
X-13029Y-08795*
X-13022Y-08794*
X-13014Y-08791*
X-1301Y-0879*
X-13008Y-08789*
X-12686Y-08603*
X-12678Y-08599*
X-12671Y-08597*
X-12665Y-08596*
X-12659*
X-12648Y-08598*
X-12639Y-08602*
X-12632Y-08608*
X-12627Y-08614*
X-12623Y-08618*
Y-08619*
X-12622Y-0862*
X-12555Y-08736*
X-12552Y-08743*
X-1255Y-0875*
X-12549Y-08757*
Y-08763*
X-12551Y-08773*
X-12556Y-08782*
X-12561Y-08788*
X-12567Y-08794*
X-12571Y-08797*
X-12573Y-08798*
X-12573*
X-13468Y-09315*
X-13476Y-09318*
X-13482Y-09321*
X-13489Y-09322*
X-13494*
X-13505Y-09319*
X-13514Y-09315*
X-13521Y-09309*
X-13525Y-09304*
X-13529Y-093*
Y-09299*
X-1353Y-09298*
X-13597Y-09182*
X-136Y-09175*
X-13603Y-09168*
X-13604Y-09162*
Y-09155*
X-13602Y-09144*
X-13597Y-09135*
X-13591Y-09129*
X-13587Y-09124*
X-13582Y-09121*
Y-0912*
X-13581*
X-13261Y-08935*
X-13254Y-0893*
X-13248Y-08925*
X-13244Y-08921*
X-13241Y-08916*
X-13237Y-08905*
X-13236Y-08895*
X-13238Y-08887*
X-1324Y-0888*
X-13241Y-08876*
X-13242Y-08874*
X-13453Y-08509*
X-13459Y-085*
X-13465Y-08495*
X-13471Y-08492*
X-13477Y-08489*
X-13482Y-08487*
X-13487*
X-1349*
X-13491*
X-13974Y-08484*
X-13984Y-08483*
X-13992Y-0848*
X-13998Y-08477*
X-14003Y-08473*
X-14008Y-08469*
X-14011Y-08466*
X-14013Y-08462*
X-141Y-08311*
X-14103Y-08303*
X-14106Y-08297*
X-14107Y-0829*
Y-08284*
X-14105Y-08273*
X-141Y-08264*
X-14094Y-08258*
X-1409Y-08253*
X-14085Y-08249*
X-14084Y-08248*
X-14078Y-08246*
X-14073Y-08244*
X-14063Y-08243*
X-14059Y-08244*
X-14055*
X-14054*
X-14053Y-08245*
X-13459Y-08255*
X-13451*
X-13444Y-08251*
X-13438Y-08249*
X-13434Y-08247*
X-1343Y-08244*
X-13427Y-08241*
X-13426Y-08239*
X-13425*
X-1314Y-07856*
X-13134Y-0785*
X-13129Y-07846*
X-13126Y-07843*
X-13125Y-07842*
X-13117Y-07839*
X-1311Y-07836*
X-13105Y-07835*
X-13098Y-07834*
X-13087Y-07837*
G37*
G36*
X-12313Y-09179D02*
X-12304Y-09183D01*
X-12297Y-09189*
X-12292Y-09194*
X-12288Y-09199*
X-12287Y-092*
X-12028Y-09649*
X-12018Y-09667*
X-12009Y-09686*
X-11993Y-09724*
X-1198Y-09762*
X-11971Y-098*
X-11964Y-09836*
X-1196Y-09872*
X-11958Y-09906*
X-11957Y-09937*
X-11958Y-09967*
X-1196Y-09992*
X-11962Y-10016*
X-11966Y-10036*
X-11968Y-10053*
X-11971Y-10065*
X-11973Y-10069*
Y-10072*
Y-10074*
Y-10075*
X-1198Y-10095*
X-11986Y-10115*
X-12002Y-10154*
X-1202Y-10189*
X-1204Y-10223*
X-12061Y-10254*
X-12083Y-10282*
X-12106Y-10307*
X-12128Y-10331*
X-12149Y-1035*
X-12169Y-10368*
X-12187Y-10383*
X-12196Y-10389*
X-12204Y-10395*
X-12211Y-104*
X-12218Y-10405*
X-12223Y-10408*
X-12227Y-10412*
X-12231Y-10414*
X-12234Y-10415*
X-12235Y-10416*
X-12236Y-10417*
X-12255Y-10426*
X-12274Y-10436*
X-12312Y-10452*
X-1235Y-10465*
X-12388Y-10474*
X-12424Y-10481*
X-12459Y-10485*
X-12493Y-10488*
X-12525*
X-12554Y-10487*
X-1258Y-10485*
X-12604Y-10483*
X-12623Y-1048*
X-1264Y-10477*
X-12652Y-10475*
X-12656Y-10473*
X-1266*
X-12661Y-10472*
X-12662*
X-12683Y-10466*
X-12703Y-10459*
X-12742Y-10444*
X-12777Y-10425*
X-1281Y-10406*
X-1284Y-10385*
X-12869Y-10363*
X-12894Y-10341*
X-12917Y-1032*
X-12937Y-10298*
X-12955Y-10278*
X-12969Y-1026*
X-12981Y-10243*
X-12986Y-10237*
X-12991Y-1023*
X-12994Y-10224*
X-12998Y-1022*
X-13Y-10216*
X-13001Y-10214*
X-13002Y-10212*
X-13003Y-10211*
X-13262Y-09763*
X-13265Y-09755*
X-13268Y-09748*
Y-09742*
X-13269Y-09736*
X-13267Y-09725*
X-13262Y-09716*
X-13256Y-09709*
X-13252Y-09705*
X-13247Y-09701*
X-13246*
Y-097*
X-13044Y-09584*
X-13037Y-09581*
X-1303Y-09578*
X-13018Y-09577*
X-13008Y-0958*
X-12999Y-09584*
X-12991Y-0959*
X-12987Y-09596*
X-12983Y-096*
Y-09601*
X-12982*
X-12923Y-09705*
X-12919Y-09712*
X-12917Y-09718*
X-12915Y-09725*
Y-0973*
X-12918Y-09741*
X-12922Y-0975*
X-12928Y-09757*
X-12933Y-09762*
X-12937Y-09765*
X-12938Y-09766*
X-12966Y-09782*
X-12972Y-09787*
X-12978Y-09791*
X-12982Y-09796*
X-12985Y-098*
X-12988Y-09811*
X-12989Y-09821*
X-12987Y-0983*
X-12986Y-09836*
X-12984Y-09841*
X-12983Y-09842*
Y-09843*
X-12828Y-1011*
X-12815Y-10132*
X-12799Y-10151*
X-12783Y-1017*
X-12766Y-10185*
X-12749Y-102*
X-12731Y-10212*
X-12714Y-10224*
X-12697Y-10233*
X-12681Y-10241*
X-12667Y-10248*
X-12653Y-10254*
X-12642Y-10258*
X-12632Y-10261*
X-12625Y-10263*
X-1262Y-10264*
X-12619Y-10265*
X-12592Y-1027*
X-12566Y-10272*
X-12541Y-10273*
X-12517Y-10272*
X-12493Y-10269*
X-12471Y-10266*
X-1245Y-10261*
X-1243Y-10256*
X-12412Y-1025*
X-12397Y-10244*
X-12382Y-10239*
X-12371Y-10234*
X-12361Y-10229*
X-12354Y-10226*
X-1235Y-10224*
X-12348Y-10223*
X-12325Y-10208*
X-12304Y-10192*
X-12284Y-10175*
X-12266Y-10157*
X-12251Y-1014*
X-12237Y-10122*
X-12224Y-10104*
X-12214Y-10088*
X-12205Y-10072*
X-12197Y-10058*
X-1219Y-10044*
X-12185Y-10033*
X-12182Y-10023*
X-12178Y-10016*
X-12177Y-10011*
Y-1001*
X-1217Y-09983*
X-12166Y-09958*
X-12164Y-09934*
X-12163Y-09911*
X-12164Y-09888*
X-12167Y-09867*
X-1217Y-09847*
X-12175Y-09828*
X-1218Y-09811*
X-12185Y-09795*
X-12189Y-09782*
X-12195Y-09771*
X-12198Y-09763*
X-12201Y-09756*
X-12204Y-09752*
X-12205Y-0975*
X-12359Y-09483*
X-12364Y-09477*
X-12368Y-09471*
X-12378Y-09464*
X-12388Y-09461*
X-12398Y-0946*
X-12407Y-09461*
X-12413Y-09464*
X-12418Y-09466*
X-12419*
X-1242Y-09467*
X-12446Y-09482*
X-12454Y-09485*
X-1246Y-09488*
X-12467*
X-12472*
X-12483Y-09486*
X-12492Y-09482*
X-12499Y-09476*
X-12503Y-09471*
X-12507Y-09467*
Y-09466*
X-12508Y-09465*
X-12568Y-09362*
X-12571Y-09354*
X-12574Y-09347*
Y-09341*
X-12575Y-09335*
X-12573Y-09324*
X-12568Y-09315*
X-12562Y-09309*
X-12557Y-09304*
X-12553Y-093*
X-12552*
X-12551Y-09299*
X-1235Y-09183*
X-12343Y-0918*
X-12336Y-09177*
X-1233*
X-12324Y-09176*
X-12313Y-09179*
G37*
G36*
X-13518Y-10562D02*
X-13512Y-10566D01*
X-13507Y-1057*
X-13503Y-10574*
X-135Y-10577*
Y-10578*
X-13499Y-10579*
X-13112Y-1125*
X-13109Y-11256*
X-13107Y-1126*
Y-11266*
Y-1127*
X-13108Y-11278*
X-13112Y-11285*
X-13116Y-11289*
X-1312Y-11293*
X-13124Y-11296*
X-13125Y-11297*
X-13312Y-11405*
X-13318Y-11407*
X-13322Y-11409*
X-13328Y-1141*
X-13332*
X-1334Y-11408*
X-13347Y-11405*
X-13351Y-11401*
X-13355Y-11397*
X-13358Y-11394*
Y-11393*
X-13403Y-11315*
X-13405Y-1131*
X-13408Y-11305*
Y-11295*
X-13406Y-11288*
X-13403Y-11281*
X-13399Y-11276*
X-13395Y-11273*
X-13392Y-1127*
X-13391*
X-1339Y-11269*
X-13335Y-11237*
X-1333Y-11233*
X-13325Y-1123*
X-1332Y-11222*
X-13318Y-11215*
X-13317Y-11207*
X-13318Y-112*
X-1332Y-11196*
X-13321Y-11192*
X-13322Y-11191*
X-13379Y-11093*
X-13382Y-11088*
X-13385Y-11084*
X-13393Y-11078*
X-134Y-11076*
X-13408*
X-13414Y-11077*
X-13419Y-11078*
X-13423Y-1108*
X-13424*
Y-11081*
X-13834Y-11317*
X-13839Y-11321*
X-13843Y-11324*
X-13846Y-11327*
X-13848Y-11331*
X-13851Y-11339*
Y-11346*
X-1385Y-11353*
X-13849Y-11358*
X-13847Y-11362*
X-13846Y-11363*
X-13795Y-11451*
X-13793Y-11456*
X-13791Y-11461*
X-1379Y-1147*
X-13792Y-11477*
X-13796Y-11484*
X-138Y-11489*
X-13804Y-11493*
X-13807Y-11495*
Y-11496*
X-13808*
X-13881Y-11538*
X-13886Y-1154*
X-13891Y-11542*
X-13896Y-11543*
X-139*
X-13908Y-11542*
X-13915Y-11538*
X-13919Y-11535*
X-13923Y-11531*
X-13926Y-11528*
Y-11527*
X-14146Y-11147*
X-14148Y-11141*
X-1415Y-11136*
X-14151Y-11127*
X-14149Y-11119*
X-14145Y-11113*
X-14141Y-11107*
X-14138Y-11104*
X-14134Y-11101*
X-14133*
X-1406Y-11059*
X-14055Y-11057*
X-1405Y-11054*
X-14041Y-11053*
X-14034Y-11055*
X-14027Y-11059*
X-14021Y-11063*
X-14018Y-11066*
X-14016Y-1107*
X-14015*
Y-11071*
X-13964Y-11159*
X-13961Y-11164*
X-13958Y-11168*
X-1395Y-11173*
X-13942Y-11176*
X-13935*
X-13928Y-11174*
X-13923Y-11173*
X-13919Y-11171*
X-13918Y-1117*
X-13509Y-10934*
X-13504Y-10931*
X-135Y-10927*
X-13494Y-1092*
X-13492Y-10913*
Y-10905*
Y-10899*
X-13494Y-10894*
X-13496Y-1089*
Y-10889*
X-13553Y-10791*
X-13556Y-10786*
X-1356Y-10782*
X-13567Y-10776*
X-13575Y-10774*
X-13582*
X-13589*
X-13593Y-10776*
X-13597Y-10778*
X-13598*
X-13599*
X-13655Y-10811*
X-13661Y-10814*
X-13665Y-10815*
X-13671Y-10816*
X-13675*
X-13683Y-10814*
X-13689Y-10811*
X-13694Y-10807*
X-13698Y-10803*
X-13701Y-108*
Y-10799*
X-13746Y-10721*
X-13749Y-10715*
X-13751Y-1071*
Y-10706*
Y-10701*
X-1375Y-10693*
X-13746Y-10686*
X-13742Y-10681*
X-13738Y-10678*
X-13735Y-10675*
Y-10674*
X-13734*
X-13547Y-10566*
X-13541Y-10563*
X-13536Y-10561*
X-13531*
X-13526*
X-13518Y-10562*
G37*
G36*
X-12764Y-11869D02*
X-12757Y-11872D01*
X-12752Y-11876*
X-12749Y-1188*
X-12746Y-11884*
X-12745Y-11885*
X-12695Y-11972*
X-12692Y-11978*
X-12691Y-11982*
X-12689Y-11987*
Y-11991*
X-12691Y-11999*
X-12694Y-12006*
X-127Y-12011*
X-12702Y-12015*
X-12706Y-12017*
Y-12018*
X-12707*
X-12952Y-1216*
X-12957Y-12163*
X-12961Y-12166*
X-12965Y-12174*
X-12967Y-12181*
Y-12188*
X-12966Y-12195*
X-12964Y-122*
X-12963Y-12204*
X-12962Y-12205*
X-12769Y-1254*
X-12761Y-1255*
X-12753Y-12559*
X-12744Y-12565*
X-12734Y-1257*
X-12727Y-12574*
X-1272Y-12576*
X-12716Y-12577*
X-12714Y-12578*
X-127Y-1258*
X-12687Y-12578*
X-12675Y-12576*
X-12664Y-12574*
X-12655Y-1257*
X-12648Y-12567*
X-12646Y-12566*
X-12644Y-12565*
X-12643*
X-12642Y-12564*
X-12454Y-12456*
X-12449Y-12454*
X-12444Y-12451*
X-12435Y-1245*
X-12427Y-12452*
X-1242Y-12456*
X-12415Y-1246*
X-12412Y-12463*
X-12409Y-12467*
Y-12468*
X-12358Y-12556*
X-12355Y-12561*
X-12354Y-12566*
X-12352Y-12575*
X-12354Y-12582*
X-12358Y-12589*
X-12362Y-12594*
X-12366Y-12598*
X-12369Y-126*
Y-12601*
X-1237*
X-1256Y-12711*
X-12576Y-12719*
X-12593Y-12726*
X-1261Y-12732*
X-12626Y-12735*
X-12643Y-12739*
X-12658Y-1274*
X-12674Y-12741*
X-12687*
X-127Y-1274*
X-12712*
X-12722Y-12739*
X-12731Y-12737*
X-12738Y-12736*
X-12744Y-12735*
X-12747Y-12734*
X-12748*
X-12766Y-12727*
X-12783Y-1272*
X-12799Y-12713*
X-12814Y-12703*
X-12827Y-12694*
X-1284Y-12684*
X-12851Y-12674*
X-12862Y-12664*
X-1287Y-12654*
X-12878Y-12645*
X-12885Y-12637*
X-1289Y-1263*
X-12894Y-12624*
X-12897Y-1262*
X-12899Y-12617*
X-129Y-12615*
X-13093Y-12281*
X-13096Y-12276*
X-131Y-12271*
X-13103Y-12269*
X-13107Y-12266*
X-13115Y-12263*
X-13121Y-12262*
X-13127Y-12263*
X-13132Y-12264*
X-13135Y-12265*
X-13136*
Y-12266*
X-13193Y-12299*
X-13205Y-12307*
X-13215Y-12315*
X-13223Y-12325*
X-13229Y-12333*
X-13234Y-12342*
X-13238Y-12348*
X-13239Y-12352*
X-1324Y-12354*
X-13243Y-12367*
X-13245Y-12379*
X-13244Y-1239*
X-13242Y-124*
X-13239Y-12409*
X-13237Y-12414*
X-13236Y-12417*
X-13235Y-12419*
Y-1242*
X-13234*
X-12965Y-12886*
X-12963Y-12891*
X-12961Y-12897*
X-1296Y-12905*
X-12962Y-12913*
X-12965Y-1292*
X-1297Y-12925*
X-12973Y-12928*
X-12976Y-12931*
X-12977*
Y-12932*
X-13053Y-12975*
X-13058Y-12977*
X-13062Y-12979*
X-13072Y-1298*
X-13079Y-12978*
X-13086Y-12975*
X-1309Y-1297*
X-13094Y-12966*
X-13097Y-12964*
Y-12963*
X-13366Y-12497*
X-13376Y-12479*
X-13382Y-12462*
X-13388Y-12446*
X-13393Y-12428*
X-13396Y-12412*
X-13398Y-12396*
X-13399Y-12381*
Y-12366*
Y-12354*
X-13398Y-12342*
X-13397Y-12331*
X-13396Y-12322*
X-13395Y-12315*
X-13394Y-1231*
X-13393Y-12306*
Y-12305*
X-13387Y-12287*
X-13381Y-12269*
X-13372Y-12253*
X-13364Y-12239*
X-13355Y-12225*
X-13345Y-12212*
X-13335Y-12201*
X-13326Y-1219*
X-13316Y-12182*
X-13307Y-12174*
X-133Y-12167*
X-13292Y-12162*
X-13286Y-12158*
X-13282Y-12155*
X-13279Y-12153*
X-13278Y-12152*
X-12791Y-11871*
X-12786Y-11869*
X-12781Y-11867*
X-12772*
X-12764Y-11869*
G37*
G36*
X-12426Y-13037D02*
X-12414Y-13039D01*
X-12403*
X-12394Y-13041*
X-12387Y-13042*
X-12381Y-13043*
X-12378Y-13044*
X-12377*
X-12358Y-1305*
X-12341Y-13057*
X-12325Y-13065*
X-1231Y-13074*
X-12296Y-13083*
X-12283Y-13093*
X-12272Y-13103*
X-12261Y-13112*
X-12252Y-13122*
X-12245Y-13132*
X-12238Y-1314*
X-12233Y-13147*
X-12229Y-13153*
X-12225Y-13157*
X-12223Y-1316*
Y-13161*
X-12027Y-13501*
X-12024Y-13504*
X-12021Y-13508*
X-12014Y-13512*
X-12007Y-13513*
X-11999*
X-11993Y-13511*
X-11988Y-13509*
X-11984Y-13508*
X-11983Y-13507*
X-11982*
X-11889Y-13453*
X-11884Y-13451*
X-11879Y-13449*
X-11869Y-13448*
X-11865*
X-11862*
X-1186*
X-11859Y-13449*
X-11853Y-1345*
X-11848Y-13452*
X-11843Y-13454*
X-1184Y-13456*
X-11838Y-13458*
X-11836Y-1346*
X-11835Y-13462*
Y-13462*
X-11786Y-13546*
X-11784Y-13551*
X-11783Y-13556*
Y-13565*
X-11784Y-13569*
X-11785Y-13572*
Y-13574*
Y-13575*
X-11788Y-1358*
X-11791Y-13585*
X-11794Y-13589*
X-11798Y-13593*
X-118Y-13595*
X-11802Y-13597*
X-11804Y-13598*
X-11805*
X-12282Y-13874*
X-12299Y-13883*
X-12316Y-1389*
X-12333Y-13895*
X-1235Y-13899*
X-12366Y-13902*
X-12382Y-13904*
X-12397Y-13906*
X-1241Y-13905*
X-12424*
X-12436*
X-12446Y-13904*
X-12455Y-13902*
X-12462Y-13901*
X-12467Y-139*
X-12471Y-13899*
X-12472*
X-1249Y-13893*
X-12508Y-13886*
X-12523Y-13878*
X-12538Y-13869*
X-12552Y-13859*
X-12565Y-13849*
X-12576Y-13839*
X-12586Y-1383*
X-12595Y-1382*
X-12603Y-13811*
X-1261Y-13803*
X-12615Y-13795*
X-12619Y-1379*
X-12622Y-13785*
X-12624Y-13782*
X-12625Y-13781*
X-12793Y-1349*
X-12802Y-13473*
X-12808Y-13456*
X-12814Y-13439*
X-12819Y-13422*
X-12822Y-13405*
X-12824Y-1339*
X-12825Y-13375*
Y-13361*
Y-13348*
X-12824Y-13336*
X-12823Y-13325*
X-12822Y-13317*
X-1282Y-13309*
X-12819Y-13304*
X-12818Y-133*
Y-13299*
X-12813Y-13281*
X-12806Y-13264*
X-12798Y-13247*
X-12789Y-13233*
X-12779Y-13219*
X-1277Y-13208*
X-1276Y-13195*
X-1275Y-13185*
X-1274Y-13176*
X-12732Y-13169*
X-12724Y-13162*
X-12716Y-13156*
X-1271Y-13152*
X-12706Y-13149*
X-12703Y-13147*
X-12702*
X-12568Y-13069*
X-12551Y-1306*
X-12533Y-13053*
X-12517Y-13048*
X-125Y-13043*
X-12484Y-13041*
X-12468Y-13038*
X-12453Y-13037*
X-12439*
X-12426*
G37*
G36*
X-15159Y-07733D02*
X-15151Y-07734D01*
X-15145Y-07737*
X-1514Y-07742*
X-15136Y-07747*
X-15133Y-07749*
Y-0775*
X-15132*
X-14745Y-08422*
X-14742Y-08427*
X-1474Y-08432*
Y-08437*
Y-08441*
X-14741Y-08449*
X-14745Y-08456*
X-14749Y-08461*
X-14753Y-08465*
X-14757Y-08468*
X-14758*
X-1483Y-0851*
X-14836Y-08513*
X-14841Y-08515*
X-14846*
X-1485*
X-14859Y-08514*
X-14865Y-0851*
X-1487Y-08506*
X-14873Y-08502*
X-14876Y-08499*
Y-08498*
X-14877*
X-15012Y-08264*
X-15015Y-0826*
X-15018Y-08255*
X-15026Y-0825*
X-15033Y-08248*
X-15041Y-08247*
X-15047Y-08248*
X-15052Y-0825*
X-15056Y-08251*
X-15057Y-08252*
X-15467Y-08489*
X-15472Y-08492*
X-15476Y-08495*
X-15479Y-08499*
X-15481Y-08502*
X-15484Y-0851*
Y-08518*
X-15483Y-08524*
X-15482Y-08529*
X-1548Y-08533*
Y-08534*
X-15479*
X-15345Y-08768*
X-15342Y-08774*
X-1534Y-08778*
X-15339Y-08783*
Y-08787*
X-15341Y-08795*
X-15344Y-08802*
X-15348Y-08807*
X-15352Y-08811*
X-15355Y-08813*
X-15356Y-08814*
X-15429Y-08856*
X-15435Y-08858*
X-15439Y-0886*
X-15445Y-08861*
X-15449*
X-15457Y-08859*
X-15464Y-08856*
X-15468Y-08852*
X-15472Y-08848*
X-15475Y-08845*
Y-08844*
X-15476*
X-15863Y-08172*
X-15866Y-08166*
X-15867Y-08162*
X-15868Y-08157*
Y-08153*
X-15866Y-08144*
X-15863Y-08138*
X-15859Y-08133*
X-15855Y-08129*
X-15852Y-08126*
X-15851*
X-15778Y-08084*
X-15773Y-08082*
X-15768Y-08079*
X-15758*
X-15751Y-0808*
X-15744Y-08084*
X-15739Y-08088*
X-15736Y-08092*
X-15733Y-08095*
Y-08096*
X-15732Y-08097*
X-15597Y-08331*
X-15594Y-08335*
X-15591Y-08339*
X-15583Y-08344*
X-15575Y-08346*
X-15568Y-08347*
X-15561Y-08345*
X-15556Y-08344*
X-15552Y-08343*
Y-08342*
X-15551*
X-15142Y-08106*
X-15137Y-08102*
X-15133Y-08099*
X-15127Y-08092*
X-15125Y-08084*
Y-08077*
Y-0807*
X-15127Y-08065*
X-15129Y-08062*
Y-08061*
X-15264Y-07826*
X-15267Y-07821*
X-15269Y-07816*
Y-07811*
Y-07807*
X-15268Y-07799*
X-15264Y-07792*
X-1526Y-07787*
X-15256Y-07783*
X-15253Y-07781*
Y-0778*
X-15252*
X-15179Y-07738*
X-15174Y-07736*
X-15168Y-07733*
X-15164*
X-15159*
G37*
G36*
X-14593Y-087D02*
X-14587Y-08704D01*
X-14582Y-08708*
X-14578Y-08711*
X-14575Y-08715*
Y-08716*
X-14524Y-08804*
X-14522Y-08809*
X-1452Y-08814*
X-14519Y-08823*
X-14521Y-08831*
X-14525Y-08837*
X-14529Y-08842*
X-14533Y-08846*
X-14536Y-08849*
X-14537*
X-14538Y-0885*
X-15011Y-09123*
X-14274Y-09263*
X-14268Y-09264*
X-14263Y-09267*
X-14259Y-09269*
X-14255Y-09272*
X-14253Y-09275*
X-14251Y-09277*
X-1425Y-09279*
X-14186Y-09388*
X-14184Y-09394*
X-14182Y-09398*
Y-09407*
X-14184Y-09415*
X-14187Y-09422*
X-14192Y-09427*
X-14196Y-09431*
X-14199Y-09433*
X-142Y-09434*
X-14872Y-09822*
X-14877Y-09824*
X-14882Y-09826*
X-14887Y-09827*
X-14891*
X-14899Y-09825*
X-14906Y-09822*
X-1491Y-09818*
X-14914Y-09814*
X-14917Y-09812*
Y-0981*
X-14968Y-09722*
X-1497Y-09717*
X-14973Y-09712*
Y-09703*
X-14971Y-09695*
X-14968Y-09688*
X-14964Y-09683*
X-1496Y-0968*
X-14957Y-09677*
X-14956*
X-14955Y-09676*
X-14473Y-09398*
X-15227Y-09253*
X-15232Y-09252*
X-15236Y-0925*
X-1524Y-09248*
X-15242Y-09245*
X-15245Y-09242*
X-15247Y-0924*
X-15248Y-09238*
Y-09237*
X-15306Y-09138*
X-15308Y-09133*
X-1531Y-09127*
X-15311Y-09118*
X-15308Y-09111*
X-15305Y-09104*
X-15301Y-09098*
X-15297Y-09095*
X-15294Y-09093*
X-15293Y-09092*
X-14621Y-08704*
X-14616Y-08702*
X-14611Y-087*
X-14606Y-08699*
X-14602*
X-14593Y-087*
G37*
G36*
X-14044Y-09665D02*
X-14036Y-09666D01*
X-14029Y-09669*
X-14024Y-09674*
X-1402Y-09678*
X-14018Y-09681*
X-14017*
Y-09682*
X-13629Y-10353*
X-13627Y-10359*
X-13625Y-10364*
X-13624Y-10369*
Y-10373*
X-13626Y-10381*
X-13629Y-10388*
X-13634Y-10393*
X-13638Y-10397*
X-13641Y-104*
X-13642*
X-13716Y-10442*
X-13721Y-10445*
X-13725Y-10447*
X-13731*
X-13735*
X-13743Y-10445*
X-13749Y-10442*
X-13754Y-10438*
X-13758Y-10434*
X-13761Y-10431*
Y-1043*
X-13896Y-10196*
X-139Y-10192*
X-13903Y-10187*
X-1391Y-10182*
X-13918Y-1018*
X-13925Y-10179*
X-13932Y-1018*
X-13937Y-10182*
X-13941Y-10183*
Y-10184*
X-13942*
X-14351Y-1042*
X-14356Y-10424*
X-1436Y-10427*
X-14364Y-10431*
X-14366Y-10434*
X-14368Y-10442*
X-14369Y-1045*
X-14367Y-10456*
X-14366Y-10461*
X-14365Y-10465*
X-14364Y-10466*
X-14229Y-107*
X-14227Y-10706*
X-14225Y-1071*
X-14224Y-10715*
Y-10719*
X-14225Y-10727*
X-14229Y-10734*
X-14233Y-10739*
X-14237Y-10743*
X-1424Y-10745*
Y-10746*
X-14241*
X-14314Y-10788*
X-14319Y-1079*
X-14324Y-10792*
X-14329Y-10793*
X-14333*
X-14341Y-10791*
X-14348Y-10788*
X-14353Y-10783*
X-14357Y-1078*
X-14359Y-10777*
X-1436Y-10776*
Y-10775*
X-14748Y-10104*
X-1475Y-10098*
X-14752Y-10094*
X-14753Y-10088*
Y-10084*
X-14751Y-10076*
X-14748Y-1007*
X-14743Y-10065*
X-1474Y-10061*
X-14737Y-10058*
X-14736*
X-14735*
X-14663Y-10016*
X-14658Y-10013*
X-14652Y-10011*
X-14643*
X-14636Y-10012*
X-14629Y-10016*
X-14624Y-1002*
X-1462Y-10024*
X-14618Y-10027*
X-14617Y-10028*
X-14482Y-10263*
X-14478Y-10267*
X-14475Y-10271*
X-14467Y-10276*
X-1446Y-10278*
X-14452Y-10279*
X-14446Y-10277*
X-14441Y-10276*
X-14437Y-10275*
Y-10274*
X-14436*
X-14026Y-10037*
X-14022Y-10034*
X-14017Y-10031*
X-14012Y-10024*
X-1401Y-10016*
X-14009Y-10008*
X-1401Y-10002*
X-14012Y-09997*
X-14013Y-09994*
X-14014Y-09993*
X-14149Y-09758*
X-14152Y-09753*
X-14153Y-09748*
X-14154Y-09743*
Y-09739*
X-14152Y-09731*
X-14149Y-09724*
X-14145Y-09719*
X-14141Y-09715*
X-14138Y-09713*
X-14137Y-09712*
X-14064Y-0967*
X-14058Y-09667*
X-14053Y-09665*
X-14049Y-09664*
X-14044Y-09665*
G37*
G36*
X-18053Y00459D02*
X-18036D01*
X-1802Y00457*
X-18006Y00455*
X-17995Y00454*
X-17985Y00452*
X-17978Y00451*
X-17973Y00449*
X-17971*
X-17947Y00442*
X-17924Y00432*
X-17903Y00421*
X-17883Y00409*
X-17865Y00396*
X-17849Y00383*
X-17834Y00369*
X-1782Y00357*
X-17808Y00344*
X-17798Y00331*
X-17789Y00321*
X-17782Y00311*
X-17776Y00303*
X-17772Y00297*
X-1777Y00293*
X-17769Y00292*
X-17543Y-00097*
X-17531Y-0012*
X-17521Y-00142*
X-17514Y-00166*
X-17508Y-00188*
X-17504Y-00209*
X-17501Y-00231*
X-175Y-00251*
X-17499Y-00269*
X-175Y-00287*
X-17501Y-00303*
X-17502Y-00317*
X-17504Y-00329*
X-17505Y-00338*
X-17507Y-00345*
X-17508Y-0035*
Y-00351*
X-17515Y-00376*
X-17526Y-00398*
X-17535Y-00419*
X-17547Y-00439*
X-17559Y-00458*
X-17572Y-00474*
X-17585Y-00489*
X-17597Y-00502*
X-1761Y-00514*
X-17622Y-00524*
X-17633Y-00533*
X-17642Y-0054*
X-1765Y-00546*
X-17655Y-0055*
X-17659Y-00552*
X-17661Y-00553*
X-18064Y-00785*
X-18086Y-00797*
X-18109Y-00806*
X-18131Y-00813*
X-18153Y-00819*
X-18175Y-00823*
X-18196Y-00825*
X-18215Y-00827*
X-18234*
X-18251Y-00826*
X-18267*
X-18281Y-00824*
X-18292Y-00822*
X-18302Y-0082*
X-18309Y-00819*
X-18314Y-00818*
X-18315Y-00817*
X-18339Y-0081*
X-18362Y-00799*
X-18383Y-00789*
X-18403Y-00777*
X-18421Y-00764*
X-18438Y-00751*
X-18452Y-00737*
X-18466Y-00725*
X-18478Y-00712*
X-18488Y-00699*
X-18497Y-00689*
X-18504Y-00679*
X-1851Y-00671*
X-18514Y-00665*
X-18516Y-00661*
X-18517Y-0066*
X-18743Y-00269*
X-18755Y-00246*
X-18764Y-00223*
X-18772Y-002*
X-18778Y-00178*
X-18783Y-00156*
X-18785Y-00135*
X-18787Y-00116*
Y-00097*
X-18786Y-00079*
Y-00063*
X-18784Y-00049*
X-18783Y-00038*
X-18781Y-00029*
X-18779Y-00021*
Y-00016*
Y-00015*
X-18771Y00007*
X-18762Y0003*
X-18752Y00052*
X-1874Y00071*
X-18728Y00089*
X-18715Y00106*
X-18702Y00121*
X-18689Y00135*
X-18677Y00146*
X-18664Y00157*
X-18654Y00166*
X-18645Y00172*
X-18636Y00178*
X-18631Y00182*
X-18627Y00185*
X-18625Y00186*
X-18223Y00418*
X-18201Y0043*
X-18178Y00439*
X-18156Y00446*
X-18134Y00451*
X-18112Y00455*
X-18092Y00457*
X-18072Y00459*
X-18053*
G37*
G36*
X-17238Y-00923D02*
X-17222Y-00924D01*
X-17209Y-00926*
X-17197Y-00928*
X-17187Y-00929*
X-1718Y-00931*
X-17175Y-00932*
X-17174*
X-17149Y-0094*
X-17126Y-0095*
X-17106Y-0096*
X-17086Y-00972*
X-17067Y-00985*
X-17051Y-00998*
X-17035Y-01011*
X-17021Y-01025*
X-17009Y-01038*
X-16999Y-0105*
X-1699Y-01061*
X-16983Y-01071*
X-16977Y-01079*
X-16973Y-01085*
X-1697Y-01089*
X-16969Y-01091*
X-16643Y-01656*
X-1664Y-01664*
X-16637Y-0167*
X-16637Y-01677*
Y-01682*
X-16639Y-01693*
X-16643Y-01702*
X-16649Y-01709*
X-16654Y-01714*
X-16659Y-01717*
X-1666Y-01718*
X-16757Y-01774*
X-16764Y-01778*
X-1677Y-0178*
X-16783*
X-16793Y-01778*
X-16802Y-01773*
X-16808Y-01767*
X-16813Y-01763*
X-16817Y-01758*
Y-01757*
X-17145Y-01191*
X-17154Y-01177*
X-17166Y-01166*
X-17178Y-01157*
X-1719Y-0115*
X-17201Y-01146*
X-1721Y-01143*
X-17216Y-01141*
X-17218*
X-17237Y-01138*
X-17254Y-01139*
X-17272Y-01143*
X-17285Y-01145*
X-17297Y-0115*
X-17306Y-01154*
X-1731Y-01155*
X-17312Y-01157*
X-17314*
X-17315Y-01158*
X-17331Y-01169*
X-17344Y-01181*
X-17355Y-01193*
X-17363Y-01205*
X-1737Y-01216*
X-17375Y-01224*
X-17377Y-0123*
Y-01233*
X-17382Y-0125*
X-17383Y-01267*
X-17382Y-01281*
X-1738Y-01295*
X-17377Y-01306*
X-17373Y-01313*
X-17372Y-01317*
X-17371Y-0132*
X-1737Y-01321*
X-17154Y-01696*
X-17142Y-01719*
X-17132Y-01742*
X-17124Y-01765*
X-17118Y-01787*
X-17114Y-01809*
X-17111Y-0183*
X-1711Y-01851*
X-17109Y-0187*
X-1711Y-01887*
X-17111Y-01903*
X-17112Y-01917*
X-17114Y-01929*
X-17115Y-01938*
X-17116Y-01945*
X-17118Y-0195*
Y-01952*
X-17125Y-01976*
X-17135Y-01999*
X-17145Y-0202*
X-17157Y-02039*
X-17169Y-02058*
X-17182Y-02074*
X-17195Y-02089*
X-17208Y-02103*
X-17221Y-02114*
X-17233Y-02125*
X-17243Y-02134*
X-17253Y-0214*
X-17261Y-02146*
X-17266Y-0215*
X-1727Y-02153*
X-17272Y-02154*
X-1752Y-02297*
X-17528Y-023*
X-17534Y-02303*
X-17541Y-02304*
X-17546Y-02303*
X-17557Y-02301*
X-17566Y-02297*
X-17572Y-02291*
X-17577Y-02286*
X-17581Y-02282*
Y-02281*
X-17582Y-0228*
X-18075Y-01427*
X-18078Y-01419*
X-18081Y-01412*
Y-01406*
X-18082Y-014*
X-18079Y-01389*
X-18075Y-0138*
X-18069Y-01373*
X-18064Y-01369*
X-1806Y-01365*
X-18059*
X-18058Y-01364*
X-17962Y-01308*
X-17954Y-01305*
X-17947Y-01302*
X-17941*
X-17935Y-01301*
X-17924Y-01303*
X-17915Y-01308*
X-17908Y-01314*
X-17903Y-01319*
X-17899Y-01323*
Y-01324*
X-17898Y-01325*
X-17517Y-01985*
X-17513Y-01991*
X-17509Y-01996*
X-17499Y-02003*
X-17489Y-02006*
X-17479Y-02007*
X-17472Y-02005*
X-17464Y-02003*
X-1746Y-02002*
X-17458Y-02001*
X-17384Y-01958*
X-17368Y-01948*
X-17356Y-01936*
X-17345Y-01924*
X-17336Y-01912*
X-17329Y-01902*
X-17325Y-01893*
X-17323Y-01887*
X-17322Y-01886*
X-17317Y-01868*
X-17315Y-01852*
X-17316Y-01836*
X-17318Y-01823*
X-17322Y-01812*
X-17325Y-01804*
X-17326Y-01801*
X-17327Y-01798*
X-17328Y-01797*
X-17544Y-01423*
X-17556Y-014*
X-17566Y-01376*
X-17574Y-01353*
X-1758Y-01331*
X-17584Y-01309*
X-17587Y-01288*
X-17589Y-01268*
Y-01249*
X-17588Y-01231*
Y-01216*
X-17586Y-01202*
X-17585Y-0119*
X-17584Y-01181*
X-17582Y-01173*
X-17581Y-01168*
Y-01167*
X-17573Y-01143*
X-17564Y-0112*
X-17554Y-01099*
X-17542Y-01079*
X-1753Y-01061*
X-17516Y-01044*
X-17504Y-01029*
X-17491Y-01016*
X-17478Y-01003*
X-17466Y-00993*
X-17456Y-00984*
X-17446Y-00977*
X-17437Y-00971*
X-17432Y-00967*
X-17428Y-00965*
X-17427Y-00964*
X-17405Y-00952*
X-17382Y-00944*
X-1736Y-00936*
X-17337Y-00931*
X-17315Y-00926*
X-17295Y-00924*
X-17275Y-00922*
X-17256*
X-17238Y-00923*
G37*
G36*
X-19604Y03171D02*
X-19588Y0317D01*
X-19575Y03168*
X-19563Y03166*
X-19553Y03164*
X-19546Y03163*
X-19541Y03162*
X-1954Y03161*
X-19515Y03154*
X-19492Y03144*
X-19471Y03134*
X-19452Y03122*
X-19433Y03109*
X-19417Y03096*
X-19402Y03082*
X-19388Y03069*
X-19376Y03055*
X-19366Y03043*
X-19356Y03032*
X-1935Y03023*
X-19344Y03014*
X-19339Y03008*
X-19337Y03004*
X-19336Y03003*
X-19134Y02654*
X-19122Y02631*
X-19112Y02608*
X-19105Y02584*
X-19099Y02562*
X-19094Y0254*
X-19092Y02519*
X-19091Y02498*
X-1909Y0248*
Y02462*
X-19092Y02447*
X-19093Y02432*
X-19095Y0242*
X-19096Y02411*
X-19097Y02404*
X-19098Y02399*
X-19099Y02398*
X-19106Y02373*
X-19115Y02351*
X-19126Y0233*
X-19138Y0231*
X-19149Y02291*
X-19163Y02275*
X-19175Y0226*
X-19189Y02246*
X-19201Y02235*
X-19213Y02225*
X-19223Y02216*
X-19233Y02209*
X-19242Y02203*
X-19247Y02199*
X-19251Y02197*
X-19252Y02196*
X-19271Y02186*
X-19289Y02178*
X-19308Y02171*
X-19327Y02166*
X-19344Y02161*
X-19362Y02159*
X-19379Y02156*
X-19394Y02155*
X-19408Y02154*
X-19422Y02152*
X-19434Y02153*
X-19443*
X-19451Y02154*
X-19458*
X-19461*
X-19462Y02155*
X-19468Y02126*
X-19475Y02098*
X-19485Y02073*
X-19497Y02049*
X-19509Y02028*
X-19522Y02008*
X-19536Y0199*
X-1955Y01974*
X-19565Y0196*
X-19577Y01947*
X-1959Y01937*
X-19601Y01928*
X-1961Y01922*
X-19617Y01917*
X-19621Y01914*
X-19622*
X-19623Y01913*
X-19645Y01902*
X-19668Y01893*
X-1969Y01885*
X-19713Y0188*
X-19734Y01876*
X-19755Y01874*
X-19775Y01873*
X-19794*
X-19812*
X-19827Y01874*
X-1984Y01876*
X-19852Y01877*
X-19862Y01879*
X-19869Y0188*
X-19874Y01882*
X-19875*
X-19899Y01891*
X-19922Y019*
X-19943Y01911*
X-19962Y01922*
X-19981Y01935*
X-19998Y01949*
X-20012Y01962*
X-20026Y01975*
X-20038Y01989*
X-20048Y02001*
X-20058Y02012*
X-20064Y02022*
X-2007Y02029*
X-20074Y02035*
X-20077Y02039*
X-20078Y02041*
X-20339Y02493*
X-20351Y02516*
X-2036Y0254*
X-20368Y02562*
X-20374Y02584*
X-20378Y02606*
X-20381Y02627*
X-20383Y02647*
Y02667*
Y02683*
X-20382Y02699*
X-20381Y02713*
X-20379Y02725*
X-20378Y02734*
X-20376Y02742*
X-20375Y02746*
Y02748*
X-20368Y02772*
X-20359Y02795*
X-20348Y02816*
X-20336Y02836*
X-20324Y02855*
X-20312Y02872*
X-20298Y02887*
X-20286Y029*
X-20273Y02912*
X-20261Y02922*
X-2025Y02932*
X-20241Y02938*
X-20233Y02944*
X-20228Y02948*
X-20224Y0295*
X-20222Y02951*
X-20196Y02964*
X-2017Y02975*
X-20143Y02983*
X-20118Y02988*
X-20093Y02992*
X-20069Y02993*
X-20046Y02992*
X-20025Y0299*
X-20005Y02988*
X-19987Y02984*
X-19972Y02981*
X-19958Y02978*
X-19947Y02974*
X-19939Y02971*
X-19934Y0297*
X-19932Y02969*
X-19924Y02988*
X-19914Y03006*
X-19904Y03023*
X-19892Y03038*
X-19881Y03053*
X-19869Y03066*
X-19858Y03078*
X-19846Y03089*
X-19835Y03099*
X-19825Y03107*
X-19816Y03114*
X-19808Y0312*
X-19801Y03125*
X-19796Y03128*
X-19793Y0313*
X-19792*
X-1977Y03142*
X-19747Y03151*
X-19725Y03158*
X-19702Y03164*
X-19681Y03168*
X-1966Y0317*
X-19641Y03172*
X-19622*
X-19604Y03171*
G37*
G36*
X-18503Y01542D02*
X-18495Y01538D01*
X-18488Y01532*
X-18483Y01527*
X-1848Y01524*
X-18479Y01522*
Y01521*
X-18294Y01202*
X-18291Y01195*
X-18289Y01189*
X-18288Y01177*
X-18291Y01167*
X-18295Y01158*
X-18301Y01151*
X-18307Y01146*
X-18311Y01143*
X-18312*
Y01141*
X-18409Y01085*
X-18417Y01082*
X-18423Y0108*
X-1843Y01078*
X-18435*
X-18446Y0108*
X-18455Y01085*
X-18461Y0109*
X-18466Y01095*
X-18469Y01099*
X-1847Y011*
X-18542Y01224*
X-18547Y01231*
X-18551Y01237*
X-18556Y01241*
X-18561Y01244*
X-18572Y01248*
X-18582Y01249*
X-1859Y01247*
X-18597Y01245*
X-18602Y01243*
X-18603*
X-18604Y01242*
X-1915Y00927*
X-19156Y00922*
X-19162Y00918*
X-19166Y00912*
X-19168Y00908*
X-19172Y00897*
Y00887*
X-19171Y00878*
X-19169Y00871*
X-19167Y00866*
X-19166Y00865*
Y00864*
X-18986Y00553*
X-18983Y00546*
X-18981Y0054*
X-18979Y00528*
X-18982Y00518*
X-18986Y00509*
X-18992Y00502*
X-18997Y00498*
X-19001Y00494*
X-19002Y00493*
X-19003*
X-191Y00437*
X-19107Y00434*
X-19113Y00431*
X-1912Y0043*
X-19125*
X-19136Y00432*
X-19145Y00436*
X-19151Y00441*
X-19156Y00447*
X-1916Y0045*
Y00452*
X-19678Y01349*
X-19681Y01356*
X-19685Y01363*
Y01374*
X-19682Y01385*
X-19677Y01393*
X-19672Y01401*
X-19667Y01405*
X-19662Y01408*
Y01409*
X-19661*
X-19564Y01465*
X-19558Y01469*
X-1955Y01471*
X-19538Y01472*
X-19528Y0147*
X-1952Y01466*
X-19512Y01461*
X-19508Y01455*
X-19505Y01451*
X-19504Y0145*
X-19323Y01137*
X-19318Y01131*
X-19314Y01125*
X-19309Y01121*
X-19304Y01119*
X-19293Y01115*
X-19283Y01114*
X-19275Y01116*
X-19268Y01118*
X-19263Y0112*
X-19262*
X-19261Y01121*
X-18542Y01537*
X-18533Y0154*
X-18526Y01543*
X-18521Y01544*
X-18514Y01545*
X-18503Y01542*
G37*
G36*
X-16303Y-0275D02*
X-16276Y-02752D01*
X-16252Y-02754*
X-16233Y-02757*
X-16216Y-0276*
X-16204Y-02762*
X-162Y-02764*
X-16197*
X-16195*
X-16194Y-02765*
X-16173Y-02771*
X-16153Y-02777*
X-16114Y-02794*
X-16079Y-02811*
X-16045Y-0283*
X-16014Y-02852*
X-15987Y-02873*
X-15961Y-02896*
X-15938Y-02918*
X-15918Y-02939*
X-159Y-02959*
X-15886Y-02977*
X-15875Y-02994*
X-15869Y-03001*
X-15864Y-03007*
X-15861Y-03013*
X-15857Y-03017*
X-15855Y-03021*
X-15853Y-03024*
X-15852Y-03025*
Y-03026*
X-15602Y-03459*
X-15599Y-03467*
X-15596Y-03473*
X-15595Y-0348*
Y-03485*
X-15598Y-03496*
X-15602Y-03505*
X-15608Y-03512*
X-15613Y-03517*
X-15618Y-03521*
X-15619Y-03522*
X-16514Y-04038*
X-16522Y-04042*
X-16528Y-04044*
X-16535Y-04045*
X-16541*
X-16551Y-04043*
X-1656Y-04038*
X-16567Y-04032*
X-16572Y-04028*
X-16575Y-04023*
X-16576*
Y-04022*
X-16826Y-03589*
X-16837Y-03569*
X-16847Y-0355*
X-16862Y-03512*
X-16876Y-03474*
X-16884Y-03436*
X-16892Y-034*
X-16896Y-03365*
X-16898Y-03331*
Y-03299*
X-16897Y-0327*
X-16896Y-03243*
X-16893Y-0322*
X-16891Y-03201*
X-16887Y-03184*
X-16885Y-03172*
X-16884Y-03168*
X-16883Y-03165*
Y-03162*
X-16876Y-03141*
X-1687Y-03122*
X-16854Y-03082*
X-16836Y-03048*
X-16817Y-03014*
X-16796Y-02984*
X-16774Y-02955*
X-16752Y-02931*
X-1673Y-02907*
X-16708Y-02887*
X-16689Y-0287*
X-1667Y-02855*
X-16654Y-02843*
X-16647Y-02838*
X-1664Y-02833*
X-16635Y-0283*
X-1663Y-02826*
X-16626Y-02824*
X-16624Y-02823*
X-16622Y-02822*
X-16621Y-02821*
X-16603Y-02811*
X-16584Y-02802*
X-16545Y-02786*
X-16508Y-02773*
X-16469Y-02763*
X-16433Y-02756*
X-16398Y-02752*
X-16364Y-02749*
X-16332*
X-16303Y-0275*
G37*
G36*
X-15355Y-03908D02*
X-15346Y-03913D01*
X-1534Y-03919*
X-15335Y-03923*
X-15331Y-03928*
Y-03929*
X-15263Y-04047*
X-1526Y-04054*
X-15257Y-0406*
X-15256Y-04072*
X-15259Y-04082*
X-15264Y-04091*
X-15269Y-04098*
X-15275Y-04103*
X-15279Y-04107*
X-1528*
X-15281Y-04108*
X-15912Y-04472*
X-1493Y-04659*
X-14922Y-04661*
X-14915Y-04664*
X-1491Y-04667*
X-14905Y-04671*
X-14901Y-04674*
X-14899Y-04677*
X-14897Y-04679*
Y-0468*
X-14813Y-04826*
X-1481Y-04833*
X-14807Y-04839*
Y-04851*
X-14809Y-04861*
X-14814Y-0487*
X-1482Y-04877*
X-14825Y-04882*
X-14829Y-04886*
X-1483*
X-14831Y-04887*
X-15726Y-05404*
X-15734Y-05407*
X-1574Y-05409*
X-15748Y-05411*
X-15752*
X-15763Y-05409*
X-15772Y-05404*
X-15778Y-05399*
X-15783Y-05394*
X-15786Y-0539*
X-15787Y-05389*
X-15855Y-05271*
X-15858Y-05264*
X-15861Y-05257*
X-15862Y-05245*
X-15859Y-05235*
X-15855Y-05226*
X-15849Y-05218*
X-15844Y-05214*
X-1584Y-05211*
X-15839Y-0521*
X-15838*
X-15195Y-04839*
X-162Y-04646*
X-16206Y-04644*
X-16212Y-04641*
X-16216Y-04638*
X-16221Y-04634*
X-16224Y-04631*
X-16226Y-04628*
X-16228Y-04626*
Y-04625*
X-16305Y-04492*
X-16308Y-04485*
X-16311Y-04478*
Y-04466*
X-16309Y-04456*
X-16304Y-04447*
X-16299Y-04439*
X-16294Y-04435*
X-1629Y-04432*
X-16289Y-04431*
X-16288*
X-15393Y-03914*
X-15385Y-03911*
X-15378Y-03908*
X-15372Y-03906*
X-15367*
X-15355Y-03908*
G37*
G36*
X-14741Y-05394D02*
X-14712Y-05396D01*
X-14686Y-05398*
X-14665Y-054*
X-14655Y-05402*
X-14647Y-05404*
X-1464Y-05405*
X-14634Y-05406*
X-14629*
X-14625Y-05408*
X-14624*
X-14623*
X-146Y-05414*
X-14578Y-05421*
X-14557Y-05429*
X-14537Y-05437*
X-14517Y-05446*
X-14498Y-05456*
X-14462Y-05476*
X-14429Y-05498*
X-14399Y-05521*
X-14372Y-05544*
X-14347Y-05567*
X-14325Y-0559*
X-14306Y-05611*
X-14291Y-0563*
X-14284Y-05638*
X-14278Y-05647*
X-14273Y-05654*
X-14268Y-05661*
X-14264Y-05667*
X-1426Y-05672*
X-14258Y-05676*
X-14256Y-05679*
X-14255Y-05681*
X-14244Y-05702*
X-14234Y-05722*
X-14225Y-05742*
X-14216Y-05763*
X-14204Y-05803*
X-14195Y-05843*
X-14188Y-05882*
X-14183Y-0592*
X-14182Y-05956*
Y-05989*
X-14183Y-06021*
X-14186Y-0605*
X-14189Y-06075*
X-14193Y-06096*
X-14196Y-06114*
X-14197Y-06121*
X-142Y-06127*
Y-06131*
X-14201Y-06135*
Y-06136*
X-14202Y-06138*
X-14209Y-0616*
X-14217Y-06182*
X-14225Y-06202*
X-14235Y-06223*
X-14254Y-06261*
X-14277Y-06297*
X-14301Y-0633*
X-14325Y-0636*
X-14351Y-06388*
X-14374Y-06412*
X-14398Y-06434*
X-1442Y-06454*
X-1444Y-0647*
X-14449Y-06477*
X-14458Y-06483*
X-14466Y-06489*
X-14472Y-06494*
X-14479Y-06497*
X-14484Y-06501*
X-14488Y-06504*
X-14491Y-06505*
X-14493Y-06506*
X-14494Y-06507*
X-14515Y-06518*
X-14535Y-06529*
X-14577Y-06546*
X-14618Y-06561*
X-14659Y-06571*
X-147Y-06579*
X-14738Y-06584*
X-14775Y-06588*
X-14808*
X-14841*
X-14869Y-06586*
X-14895Y-06585*
X-14917Y-06582*
X-14926Y-0658*
X-14935Y-06579*
X-14942Y-06578*
X-14948Y-06577*
X-14952Y-06576*
X-14956Y-06575*
X-14957*
X-14958Y-06574*
X-14981Y-06568*
X-15002Y-06561*
X-15024Y-06554*
X-15045Y-06545*
X-15064Y-06536*
X-15083Y-06527*
X-15119Y-06506*
X-15151Y-06484*
X-15182Y-06461*
X-15209Y-06438*
X-15234Y-06414*
X-15256Y-06393*
X-15274Y-06371*
X-1529Y-06352*
X-15297Y-06343*
X-15303Y-06335*
X-15308Y-06327*
X-15313Y-0632*
X-15317Y-06314*
X-15321Y-0631*
X-15323Y-06306*
X-15325Y-06302*
X-15326Y-06301*
Y-063*
X-15337Y-06279*
X-15347Y-0626*
X-15356Y-06239*
X-15364Y-06219*
X-15377Y-06179*
X-15386Y-06138*
X-15394Y-061*
X-15397Y-06062*
X-15399Y-06026*
Y-05992*
X-15398Y-05961*
X-15395Y-05933*
X-15392Y-05907*
X-15389Y-05887*
X-15385Y-05869*
X-15384Y-05861*
X-15382Y-05856*
X-15381Y-05851*
X-1538Y-05848*
Y-05846*
Y-05845*
X-15372Y-05823*
X-15364Y-05801*
X-15356Y-0578*
X-15347Y-0576*
X-15327Y-05721*
X-15305Y-05686*
X-15282Y-05652*
X-15257Y-05621*
X-15233Y-05595*
X-15208Y-0557*
X-15185Y-05548*
X-15163Y-05529*
X-15142Y-05513*
X-15134Y-05506*
X-15124Y-05499*
X-15117Y-05494*
X-1511Y-05489*
X-15104Y-05485*
X-15099Y-05481*
X-15095Y-05479*
X-15091Y-05477*
X-1509Y-05476*
X-15089*
X-15068Y-05464*
X-15047Y-05454*
X-15005Y-05436*
X-14963Y-05421*
X-14923Y-0541*
X-14883Y-05404*
X-14844Y-05398*
X-14808Y-05395*
X-14773Y-05394*
X-14741*
G37*
%LNledpendantpcb-2*%
%LPC*%
G36*
X-11012Y-12153D02*
X-11036Y-12154D01*
X-11059Y-12156*
X-11082Y-12159*
X-11103Y-12165*
X-11123Y-12169*
X-11141Y-12175*
X-11157Y-12181*
X-11171Y-12186*
X-11182Y-12192*
X-11192Y-12196*
X-11199Y-122*
X-11203Y-12202*
X-11205Y-12203*
X-11228Y-12218*
X-11249Y-12234*
X-11269Y-12251*
X-11286Y-12268*
X-11303Y-12286*
X-11316Y-12303*
X-11329Y-12321*
X-11339Y-12338*
X-11348Y-12354*
X-11356Y-12369*
X-11363Y-12383*
X-11368Y-12394*
X-11371Y-12403*
X-11374Y-12411*
X-11376Y-12416*
Y-12417*
X-11383Y-12442*
X-11386Y-12468*
X-11388Y-12492*
X-11389Y-12515*
X-11387Y-12538*
X-11384Y-1256*
X-11382Y-12579*
X-11377Y-12598*
X-11372Y-12616*
X-11367Y-12631*
X-11362Y-12644*
X-11357Y-12655*
X-11353Y-12663*
X-1135Y-1267*
X-11348Y-12674*
X-11347Y-12676*
X-11209Y-12915*
X-11204Y-12921*
X-112Y-12926*
X-1119Y-12933*
X-1118Y-12936*
X-1117*
X-11161Y-12935*
X-11155Y-12933*
X-1115Y-12931*
X-11149*
X-11148Y-1293*
X-10602Y-12615*
X-10596Y-1261*
X-1059Y-12606*
X-10583Y-12596*
X-1058Y-12586*
X-10579Y-12576*
X-1058Y-12568*
X-10583Y-12561*
X-10584Y-12557*
X-10585Y-12555*
X-10723Y-12316*
X-10737Y-12294*
X-10752Y-12275*
X-10768Y-12256*
X-10786Y-12241*
X-10803Y-12226*
X-10821Y-12214*
X-10838Y-12202*
X-10855Y-12193*
X-10871Y-12185*
X-10886Y-12179*
X-109Y-12173*
X-10911Y-12169*
X-1092Y-12166*
X-10928Y-12164*
X-10933Y-12162*
X-10934*
X-1096Y-12157*
X-10987Y-12154*
X-11012Y-12153*
G37*
G36*
X-13951Y-0683D02*
X-13968D01*
X-13985Y-06833*
X-13999Y-06836*
X-14011Y-06841*
X-14021Y-06845*
X-14024Y-06846*
X-14027Y-06848*
X-14028Y-06849*
X-14029*
X-14147Y-06917*
X-14163Y-06929*
X-14175Y-0694*
X-14186Y-06952*
X-14194Y-06964*
X-14201Y-06975*
X-14206Y-06983*
X-14208Y-06989*
X-14209Y-06991*
X-14213Y-07009*
X-14214Y-07026*
X-14213Y-0704*
X-14211Y-07054*
X-14208Y-07065*
X-14204Y-07072*
X-14203Y-07076*
X-14202Y-07078*
Y-07079*
X-14201Y-0708*
X-13939Y-07535*
X-13934Y-07541*
X-1393Y-07546*
X-1392Y-07553*
X-1391Y-07555*
X-139Y-07556*
X-13891Y-07554*
X-13884Y-07553*
X-13879Y-07551*
X-13878Y-0755*
X-13614Y-07398*
X-13608Y-07393*
X-13602Y-07389*
X-13595Y-07379*
X-13592Y-07369*
Y-07359*
Y-07351*
X-13595Y-07344*
X-13597Y-07339*
Y-07338*
X-1386Y-06883*
X-1387Y-0687*
X-13881Y-06858*
X-13894Y-06849*
X-13905Y-06842*
X-13916Y-06837*
X-13925Y-06834*
X-13931Y-06833*
X-13933Y-06832*
X-13951Y-0683*
G37*
G36*
X-12423Y-13199D02*
X-12436D01*
X-12449Y-13201*
X-12459Y-13204*
X-12469Y-13208*
X-12475Y-1321*
X-12478Y-13211*
X-12479Y-13212*
X-12481Y-13213*
X-12618Y-13292*
X-1263Y-133*
X-1264Y-13309*
X-12649Y-13319*
X-12655Y-13328*
X-1266Y-13336*
X-12664Y-13342*
X-12665Y-13346*
X-12666Y-13348*
X-12669Y-13361*
X-1267Y-13374*
X-12669Y-13385*
X-12668Y-13394*
X-12666Y-13403*
X-12663Y-13409*
X-12661Y-13413*
Y-13414*
X-12493Y-13705*
X-12485Y-13716*
X-12477Y-13723*
X-12468Y-1373*
X-12459Y-13735*
X-12451Y-13738*
X-12444Y-13741*
X-1244Y-13742*
X-12438*
X-12425Y-13744*
X-12412Y-13743*
X-12399Y-1374*
X-12389Y-13738*
X-12379Y-13735*
X-12372Y-13731*
X-1237*
X-12368Y-1373*
X-12367Y-13729*
X-12366*
X-12169Y-13614*
X-12161Y-13608*
X-12156Y-13603*
X-12154Y-13596*
Y-1359*
Y-13585*
X-12156Y-1358*
X-12157Y-13577*
X-12158Y-13576*
X-12354Y-13237*
X-12357Y-13232*
X-12361Y-13227*
X-1237Y-13218*
X-12379Y-13212*
X-12388Y-13208*
X-12396Y-13204*
X-12403Y-13201*
X-12407*
X-12409Y-132*
X-12423Y-13199*
G37*
G36*
X-18036Y00242D02*
X-18053D01*
X-18069Y00239*
X-18083Y00236*
X-18095Y00231*
X-18105Y00227*
X-18108Y00226*
X-18111Y00224*
X-18112Y00223*
X-18113*
X-18514Y-00006*
X-18529Y-00018*
X-18542Y-00029*
X-18553Y-00041*
X-18561Y-00053*
X-18568Y-00064*
X-18573Y-00072*
X-18575Y-00078*
Y-0008*
X-1858Y-00098*
X-18581Y-00115*
X-1858Y-00129*
X-18578Y-00142*
X-18575Y-00153*
X-18571Y-00161*
X-18569Y-00167*
X-18568Y-00168*
X-18343Y-00559*
X-18333Y-00572*
X-18322Y-00583*
X-1831Y-00592*
X-18297Y-00599*
X-18288Y-00604*
X-18278Y-00607*
X-18273Y-00608*
X-1827Y-00609*
X-18252Y-00611*
X-18235Y-0061*
X-18219Y-00607*
X-18205Y-00604*
X-18193Y-00599*
X-18184Y-00595*
X-1818Y-00594*
X-18177Y-00592*
X-18176*
X-17775Y-0036*
X-17759Y-00349*
X-17746Y-00337*
X-17735Y-00325*
X-17726Y-00313*
X-1772Y-00303*
X-17716Y-00294*
X-17713Y-00288*
X-17712Y-00287*
X-17707Y-00269*
X-17706Y-00252*
X-17707Y-00238*
X-1771Y-00224*
X-17712Y-00214*
X-17716Y-00206*
X-17718Y-002*
X-17719*
Y-00199*
X-17945Y0019*
X-17955Y00203*
X-17966Y00215*
X-17978Y00223*
X-17989Y0023*
X-18Y00235*
X-1801Y00238*
X-18015Y00239*
X-18017Y0024*
X-18036Y00242*
G37*
G36*
X-20031Y02775D02*
X-20049D01*
X-20066Y02772*
X-20079Y02769*
X-20092Y02764*
X-20101Y0276*
X-20105Y02759*
X-20107Y02757*
X-20109Y02756*
X-20125Y02744*
X-20138Y02733*
X-20149Y02721*
X-20157Y02709*
X-20163Y02698*
X-20168Y0269*
X-20171Y02684*
Y02682*
X-20176Y02664*
X-20177Y02647*
X-20176Y02633*
X-20174Y0262*
X-20171Y02609*
X-20167Y02601*
X-20165Y02595*
X-20164Y02594*
X-19903Y02141*
X-19893Y02128*
X-19883Y02117*
X-1987Y02108*
X-19858Y02101*
X-19847Y02097*
X-19838Y02094*
X-19833Y02092*
X-1983Y02091*
X-19812Y02089*
X-19795Y02091*
X-19779Y02093*
X-19765Y02096*
X-19753Y02101*
X-19744Y02105*
X-1974Y02106*
X-19737Y02108*
X-19736Y02109*
X-1972Y0212*
X-19706Y02133*
X-19694Y02144*
X-19687Y02156*
X-1968Y02167*
X-19675Y02176*
X-19673Y02181*
X-19672Y02183*
X-19667Y02201*
X-19666Y02217*
Y02232*
X-19669Y02246*
X-19671Y02256*
X-19675Y02264*
X-19677Y0227*
X-19678Y02271*
X-19939Y02724*
X-19949Y02737*
X-19961Y02748*
X-19972Y02757*
X-19985Y02764*
X-19996Y02768*
X-20004Y02772*
X-2001*
X-20013Y02773*
X-20031Y02775*
G37*
G36*
X-19602Y02956D02*
X-1962Y02955D01*
X-19636Y02952*
X-19651Y02949*
X-19662Y02945*
X-19671Y0294*
X-19675Y02939*
X-19677Y02938*
X-19679Y02937*
X-1968Y02936*
X-19696Y02925*
X-19709Y02913*
X-19721Y02901*
X-19729Y02889*
X-19736Y02878*
X-1974Y02869*
X-19743Y02864*
Y02861*
X-19747Y02844*
X-19748Y02828*
X-19747Y02812*
X-19745Y028*
X-19741Y02788*
X-19738Y0278*
X-19737Y02776*
X-19736Y02774*
X-19735Y02773*
Y02772*
X-19533Y02423*
X-19523Y02409*
X-19512Y02397*
X-19499Y02388*
X-19488Y02382*
X-19477Y02377*
X-19468Y02373*
X-19463Y02372*
X-1946Y02371*
X-19442Y02369*
X-19425Y02371*
X-19408Y02374*
X-19394Y02377*
X-19382Y02381*
X-19373Y02386*
X-19369Y02387*
X-19367Y02388*
X-19365Y02389*
X-19364Y0239*
X-19348Y02401*
X-19335Y02413*
X-19324Y02425*
X-19316Y02437*
X-19309Y02447*
X-19304Y02456*
X-19302Y02462*
X-19301Y02463*
X-19296Y02481*
X-19295Y02498*
X-19297Y02513*
X-19299Y02526*
X-19302Y02537*
X-19306Y02545*
X-19307Y02549*
X-19308Y02551*
Y02552*
X-19309Y02553*
X-1951Y02902*
X-19521Y02916*
X-19532Y02928*
X-19544Y02937*
X-19556Y02944*
X-19567Y02948*
X-19576Y02951*
X-19581Y02953*
X-19584*
X-19602Y02956*
G37*
G36*
X-16316Y-02965D02*
X-1634Y-02966D01*
X-16364Y-02968*
X-16386Y-02972*
X-16408Y-02977*
X-16428Y-02981*
X-16445Y-02988*
X-16461Y-02993*
X-16475Y-02998*
X-16487Y-03004*
X-16496Y-03008*
X-16504Y-03012*
X-16508Y-03014*
X-1651Y-03015*
X-16533Y-0303*
X-16554Y-03046*
X-16574Y-03063*
X-16591Y-0308*
X-16607Y-03098*
X-1662Y-03115*
X-16633Y-03133*
X-16644Y-0315*
X-16653Y-03166*
X-1666Y-03181*
X-16667Y-03195*
X-16672Y-03206*
X-16676Y-03216*
X-16679Y-03223*
X-1668Y-03228*
X-16681Y-03229*
X-16687Y-03254*
X-16691Y-0328*
X-16693Y-03304*
Y-03327*
X-16692Y-0335*
X-16689Y-03372*
X-16686Y-03391*
X-16682Y-0341*
X-16677Y-03429*
X-16672Y-03443*
X-16667Y-03456*
X-16662Y-03467*
X-16658Y-03475*
X-16655Y-03482*
X-16653Y-03486*
X-16652Y-03488*
X-16514Y-03727*
X-1651Y-03733*
X-16505Y-03738*
X-16495Y-03745*
X-16485Y-03748*
X-16475Y-03749*
X-16466Y-03747*
X-1646Y-03745*
X-16454Y-03743*
X-16453*
Y-03742*
X-15907Y-03427*
X-15901Y-03422*
X-15895Y-03418*
X-15887Y-03408*
X-15885Y-03398*
X-15884Y-03388*
X-15885Y-0338*
X-15887Y-03373*
X-15889Y-03369*
X-1589Y-03367*
X-16028Y-03128*
X-16042Y-03106*
X-16057Y-03087*
X-16073Y-03068*
X-16091Y-03053*
X-16108Y-03038*
X-16125Y-03026*
X-16143Y-03015*
X-1616Y-03005*
X-16176Y-02997*
X-1619Y-02991*
X-16204Y-02985*
X-16215Y-02981*
X-16225Y-02978*
X-16232Y-02976*
X-16237Y-02974*
X-16239*
X-16265Y-02969*
X-16291Y-02966*
X-16316Y-02965*
G37*
G36*
X-14761Y-05612D02*
X-14789Y-05614D01*
X-14815Y-05616*
X-1484Y-05621*
X-14863Y-05626*
X-14885Y-05632*
X-14905Y-05638*
X-14923Y-05645*
X-14938Y-05651*
X-14952Y-05657*
X-14963Y-05662*
X-14971Y-05666*
X-14976Y-05668*
Y-05669*
X-14977*
X-15003Y-05685*
X-15027Y-05703*
X-15048Y-05722*
X-15068Y-05741*
X-15086Y-05761*
X-15102Y-05781*
X-15115Y-058*
X-15128Y-05819*
X-15138Y-05837*
X-15147Y-05854*
X-15154Y-05869*
X-1516Y-05882*
X-15165Y-05892*
X-15167Y-059*
X-15169Y-05905*
X-1517Y-05907*
X-15177Y-05934*
X-15182Y-05963*
X-15185Y-0599*
X-15186Y-06016*
X-15184Y-06041*
X-15182Y-06064*
X-15178Y-06086*
X-15174Y-06107*
X-15168Y-06126*
X-15163Y-06143*
X-15157Y-06158*
X-15153Y-0617*
X-15148Y-0618*
X-15144Y-06188*
X-15142Y-06192*
X-15141Y-06193*
X-15126Y-06218*
X-15109Y-06238*
X-1509Y-06259*
X-15072Y-06276*
X-15052Y-06292*
X-15033Y-06306*
X-15014Y-06318*
X-14995Y-06328*
X-14977Y-06337*
X-1496Y-06344*
X-14946Y-0635*
X-14933Y-06355*
X-14922Y-06358*
X-14913Y-06361*
X-14908Y-06362*
X-14907*
X-14877Y-06367*
X-14849Y-0637*
X-14821*
X-14793Y-06369*
X-14767Y-06366*
X-14743Y-06361*
X-14719Y-06356*
X-14697Y-0635*
X-14677Y-06344*
X-14659Y-06338*
X-14644Y-06331*
X-1463Y-06325*
X-1462Y-0632*
X-14612Y-06317*
X-14607Y-06314*
X-14605Y-06313*
X-14579Y-06297*
X-14556Y-06279*
X-14534Y-0626*
X-14514Y-06241*
X-14497Y-06223*
X-14481Y-06202*
X-14468Y-06182*
X-14455Y-06163*
X-14444Y-06146*
X-14435Y-06129*
X-14428Y-06114*
X-14422Y-06102*
X-14417Y-06091*
X-14415Y-06083*
X-14412Y-06078*
Y-06077*
X-14404Y-06047*
X-14399Y-0602*
X-14396Y-05993*
Y-05967*
Y-05941*
X-14399Y-05918*
X-14403Y-05895*
X-14407Y-05875*
X-14413Y-05856*
X-14418Y-05839*
X-14423Y-05825*
X-14428Y-05812*
X-14433Y-05801*
X-14437Y-05794*
X-14439Y-0579*
X-1444Y-05788*
X-14455Y-05764*
X-14472Y-05743*
X-1449Y-05723*
X-14509Y-05705*
X-14529Y-0569*
X-14548Y-05677*
X-14568Y-05665*
X-14587Y-05654*
X-14605Y-05646*
X-14621Y-05639*
X-14636Y-05633*
X-14649Y-05628*
X-1466Y-05625*
X-14668Y-05622*
X-14674Y-05621*
X-14675*
X-14705Y-05616*
X-14733Y-05613*
X-14761Y-05612*
G37*
%LNledpendantpcb-3*%
%LPD*%
G54D54*
X10249Y00499D02*
Y02999D01*
X07249Y00499D02*
X10249D01*
X07249D02*
Y03499D01*
X09749*
X10249Y02999*
X00999Y01499D02*
X01499Y00999D01*
X-01499Y01499D02*
X00999D01*
X-01499Y-01499D02*
Y01499D01*
Y-01499D02*
X01499D01*
Y00999*
X-07249Y00499D02*
Y02999D01*
X-10249Y00499D02*
X-07249D01*
X-10249D02*
Y03499D01*
X-07749*
X-07249Y02999*
X00999Y-13499D02*
X01499Y-13999D01*
X-01499Y-13499D02*
X00999D01*
X-01499Y-16499D02*
Y-13499D01*
Y-16499D02*
X01499D01*
Y-13999*
Y-25499D02*
Y-22999D01*
X-01499Y-25499D02*
X01499D01*
X-01499D02*
Y-22499D01*
X00999*
X01499Y-22999*
X-15969Y-15469D02*
X-15469Y-15969D01*
X-18469Y-15469D02*
X-15969D01*
X-18469Y-18469D02*
Y-15469D01*
Y-18469D02*
X-15469D01*
Y-15969*
X-22499Y-01499D02*
Y00999D01*
X-25499Y-01499D02*
X-22499D01*
X-25499D02*
Y01499D01*
X-22999*
X-22499Y00999*
X-15969Y18469D02*
X-15469Y17969D01*
X-18469Y18469D02*
X-15969D01*
X-18469Y15469D02*
Y18469D01*
Y15469D02*
X-15469D01*
Y17969*
X01499Y22499D02*
Y24999D01*
X-01499Y22499D02*
X01499D01*
X-01499D02*
Y25499D01*
X00999*
X01499Y24999*
X17969Y18469D02*
X18469Y17969D01*
X15469Y18469D02*
X17969D01*
X15469Y15469D02*
Y18469D01*
Y15469D02*
X18469D01*
Y17969*
X25499Y-01499D02*
Y00999D01*
X22499Y-01499D02*
X25499D01*
X22499D02*
Y01499D01*
X24999*
X25499Y00999*
X17969Y-15469D02*
X18469Y-15969D01*
X15469Y-15469D02*
X17969D01*
X15469Y-18469D02*
Y-15469D01*
Y-18469D02*
X18469D01*
Y-15969*
G54D57*
X12827Y-1486D02*
X17653Y-06501D01*
X13472Y-04088D02*
X17653Y-06501D01*
X08646Y-12447D02*
X13472Y-04088D01*
X08646Y-12447D02*
X12827Y-1486D01*
X21334Y-05799D02*
Y-04799D01*
X20334Y-05799D02*
X21334D01*
X15734Y-05399D02*
Y-04799D01*
Y-05399D02*
X16434D01*
X20934D02*
Y-04799D01*
X20334Y-05399D02*
X20934D01*
X15734Y01699D02*
Y02399D01*
X16434*
X20234D02*
X20684D01*
X20934*
X20234D02*
X20684D01*
X20934Y01699D02*
Y02399D01*
M02*