%FSTAX23Y23*%
%MOMM*%
%SFA1B1*%

%IPPOS*%
%ADD56C,0.100000*%
%ADD88C,0.050000*%
%LNledpendantpcb-1*%
%LPD*%
G54D56*
X-22216Y07314D02*
X-21266D01*
X-21741Y06839D02*
Y07789D01*
X-00049Y16074D02*
Y17074D01*
X-00549Y16574D02*
X00449D01*
X-12291Y-05149D02*
Y-04199D01*
X-12766Y-04674D02*
X-11816D01*
X-12266Y-09699D02*
Y-08749D01*
X-12741Y-09224D02*
X-11791D01*
X04049Y-14024D02*
Y-13074D01*
X03574Y-13549D02*
X04524D01*
X07299Y12749D02*
Y13699D01*
X06824Y13224D02*
X07774D01*
X05299Y14649D02*
Y15599D01*
X04824Y15124D02*
X05774D01*
X04699Y-21099D02*
Y-20149D01*
X04224Y-20624D02*
X05174D01*
X07549Y-19674D02*
Y-18724D01*
X07074Y-19199D02*
X08024D01*
X04649Y-17949D02*
Y-16999D01*
X04174Y-17474D02*
X05124D01*
X04699Y-19624D02*
Y-18674D01*
X04224Y-19149D02*
X05174D01*
X-10149Y08174D02*
Y09124D01*
X-10624Y08649D02*
X-09674D01*
X-10199Y10024D02*
Y10974D01*
X-10674Y10499D02*
X-09724D01*
X-12524Y17924D02*
Y18874D01*
X-12999Y18399D02*
X-12049D01*
X-07099Y07274D02*
Y08224D01*
X-07574Y07749D02*
X-06624D01*
X-07399Y10024D02*
Y10974D01*
X-07874Y10499D02*
X-06924D01*
X-04724Y21274D02*
Y22225D01*
X-05199Y21749D02*
X-04249D01*
X-13799Y14049D02*
Y14999D01*
X-14274Y14524D02*
X-13324D01*
X-00874Y06374D02*
Y07324D01*
X-01349Y06849D02*
X-00399D01*
X12674Y12899D02*
Y13899D01*
X12174Y13399D02*
X13174D01*
X09924Y10799D02*
Y11799D01*
X09424Y11299D02*
X10424D01*
X06124Y-12049D02*
X07074D01*
X06599Y-12524D02*
Y-11574D01*
X03474Y-06249D02*
X04424D01*
X03949Y-06724D02*
Y-05774D01*
X03549Y-12049D02*
X04499D01*
X04024Y-12524D02*
Y-11574D01*
X11174Y-1905D02*
X12124D01*
X11649Y-19524D02*
Y-18574D01*
X04149Y-15674D02*
X05099D01*
X04624Y-16149D02*
Y-15199D01*
X11224Y-01999D02*
X12174D01*
X11699Y-02474D02*
Y-01524D01*
X04899Y11374D02*
X05849D01*
X05374Y10899D02*
Y11849D01*
X-07674Y18799D02*
X-06724D01*
X-07199Y18324D02*
Y19274D01*
X-04799Y09074D02*
X-03849D01*
X-04324Y08599D02*
Y09549D01*
X04924Y09849D02*
X05874D01*
X05399Y09374D02*
Y10324D01*
X-04624Y13174D02*
X-03674D01*
X-04149Y127D02*
Y13649D01*
X-12766Y-03049D02*
X-11816D01*
X-12291Y-03524D02*
Y-02574D01*
X-11541Y-06224D02*
X-10591D01*
X-11066Y-06699D02*
Y-05749D01*
X-13991Y-06224D02*
X-13041D01*
X-13516Y-06699D02*
Y-05749D01*
X-12741Y-07724D02*
X-11791D01*
X-12266Y-08199D02*
Y-07249D01*
X-13891Y-10749D02*
X-12941D01*
X-13416Y-11224D02*
Y-10274D01*
X-22199Y03324D02*
X-21249D01*
X-21724Y02849D02*
Y03799D01*
X-14199Y-00174D02*
X-13249D01*
X-13724Y-00649D02*
Y00299D01*
X-19674Y05199D02*
X-18724D01*
X-19199Y04724D02*
Y05674D01*
X09374Y08249D02*
X10324D01*
X09849Y07774D02*
Y08724D01*
X07874Y06874D02*
X08824D01*
X08349Y06399D02*
Y07349D01*
X02549Y08474D02*
X03499D01*
X03024Y07999D02*
Y08949D01*
X02574Y06999D02*
X03524D01*
X03049Y06524D02*
Y07474D01*
X-01324Y05399D02*
X-00374D01*
X-00849Y04924D02*
Y05874D01*
X-01349Y03949D02*
X-00399D01*
X-00874Y03474D02*
Y04424D01*
X-22225Y05199D02*
X-21274D01*
X-21749Y04724D02*
Y05674D01*
X-04124Y18299D02*
Y19299D01*
X-04624Y18799D02*
X-03624D01*
X-01049Y11099D02*
Y12049D01*
X-01524Y11574D02*
X-00574D01*
X-01074Y12724D02*
Y13674D01*
X-01549Y13199D02*
X-00599D01*
G54D88*
X-22841Y06714D02*
Y07914D01*
X-20641Y06714D02*
Y07914D01*
X-22841D02*
X-20641D01*
X-22841Y06714D02*
X-20641D01*
X-01749Y15624D02*
X01649D01*
X-01749Y17524D02*
X01649D01*
Y15624D02*
Y17524D01*
X-01749Y15624D02*
Y17524D01*
X-13391Y-05274D02*
X-11191D01*
X-13391Y-04074D02*
X-11191D01*
Y-05274D02*
Y-04074D01*
X-13391Y-05274D02*
Y-04074D01*
X-13366Y-08624D02*
X-11166D01*
X-13366Y-09824D02*
X-11166D01*
X-13366D02*
Y-08624D01*
X-11166Y-09824D02*
Y-08624D01*
X02949Y-14149D02*
X05149D01*
X02949Y-12949D02*
X05149D01*
Y-14149D02*
Y-12949D01*
X02949Y-14149D02*
Y-12949D01*
X06199Y12624D02*
X08399D01*
X06199Y13824D02*
X08399D01*
Y12624D02*
Y13824D01*
X06199Y12624D02*
Y13824D01*
X04199Y14524D02*
X06399D01*
X04199Y15724D02*
X06399D01*
Y14524D02*
Y15724D01*
X04199Y14524D02*
Y15724D01*
X03599Y-21224D02*
X05799D01*
X03599Y-20024D02*
X05799D01*
Y-21224D02*
Y-20024D01*
X03599Y-21224D02*
Y-20024D01*
X06449Y-18599D02*
X08649D01*
X06449Y-19799D02*
X08649D01*
X06449D02*
Y-18599D01*
X08649Y-19799D02*
Y-18599D01*
X03549Y-18074D02*
X05749D01*
X03549Y-16874D02*
X05749D01*
Y-18074D02*
Y-16874D01*
X03549Y-18074D02*
Y-16874D01*
X03599Y-19749D02*
X05799D01*
X03599Y-18549D02*
X05799D01*
Y-19749D02*
Y-18549D01*
X03599Y-19749D02*
Y-18549D01*
X-11249Y09249D02*
X-09049D01*
X-11249Y08049D02*
X-09049D01*
X-11249D02*
Y09249D01*
X-09049Y08049D02*
Y09249D01*
X-11299Y09899D02*
X-09099D01*
X-11299Y11099D02*
X-09099D01*
Y09899D02*
Y11099D01*
X-11299Y09899D02*
Y11099D01*
X-13624Y17799D02*
X-11424D01*
X-13624Y18999D02*
X-11424D01*
Y17799D02*
Y18999D01*
X-13624Y17799D02*
Y18999D01*
X-08199Y08349D02*
X-05999D01*
X-08199Y07149D02*
X-05999D01*
X-08199D02*
Y08349D01*
X-05999Y07149D02*
Y08349D01*
X-08499Y11099D02*
X-06299D01*
X-08499Y09899D02*
X-06299D01*
X-08499D02*
Y11099D01*
X-06299Y09899D02*
Y11099D01*
X-05824Y22349D02*
X-03624D01*
X-05824Y21149D02*
X-03624D01*
X-05824D02*
Y22349D01*
X-03624Y21149D02*
Y22349D01*
X-14899Y13924D02*
X-127D01*
X-14899Y15124D02*
X-127D01*
Y13924D02*
Y15124D01*
X-14899Y13924D02*
Y15124D01*
X-01974Y07449D02*
X00224D01*
X-01974Y06249D02*
X00224D01*
X-01974D02*
Y07449D01*
X00224Y06249D02*
Y07449D01*
X-15824Y13999D02*
X-13077D01*
X10974Y12449D02*
X14374D01*
X10974Y14349D02*
X14374D01*
Y12449D02*
Y14349D01*
X10974Y12449D02*
Y14349D01*
X08224Y12249D02*
X11624D01*
X08224Y10349D02*
X11624D01*
X08224D02*
Y12249D01*
X11624Y10349D02*
Y12249D01*
X05499Y-12649D02*
Y-11449D01*
X07699Y-12649D02*
Y-11449D01*
X05499D02*
X07699D01*
X05499Y-12649D02*
X07699D01*
X05049Y-06849D02*
Y-05649D01*
X02849Y-06849D02*
Y-05649D01*
Y-06849D02*
X05049D01*
X02849Y-05649D02*
X05049D01*
X02924Y-12649D02*
Y-11449D01*
X05124Y-12649D02*
Y-11449D01*
X02924D02*
X05124D01*
X02924Y-12649D02*
X05124D01*
X10549Y-19649D02*
Y-18449D01*
X12749Y-19649D02*
Y-18449D01*
X10549D02*
X12749D01*
X10549Y-19649D02*
X12749D01*
X03524Y-16274D02*
Y-15074D01*
X05724Y-16274D02*
Y-15074D01*
X03524D02*
X05724D01*
X03524Y-16274D02*
X05724D01*
X10599Y-02599D02*
Y-01399D01*
X12799Y-02599D02*
Y-01399D01*
X10599D02*
X12799D01*
X10599Y-02599D02*
X12799D01*
X04274Y10774D02*
Y11974D01*
X06474Y10774D02*
Y11974D01*
X04274D02*
X06474D01*
X04274Y10774D02*
X06474D01*
X-08299Y18199D02*
Y19399D01*
X-06099Y18199D02*
Y19399D01*
X-08299D02*
X-06099D01*
X-08299Y18199D02*
X-06099D01*
X-05424Y08474D02*
Y09674D01*
X-03224Y08474D02*
Y09674D01*
X-05424D02*
X-03224D01*
X-05424Y08474D02*
X-03224D01*
X04299Y09249D02*
Y10449D01*
X06499Y09249D02*
Y10449D01*
X04299D02*
X06499D01*
X04299Y09249D02*
X06499D01*
X-03049Y12574D02*
Y13774D01*
X-05249Y12574D02*
Y13774D01*
Y12574D02*
X-03049D01*
X-05249Y13774D02*
X-03049D01*
X-11191Y-03649D02*
Y-02449D01*
X-13391Y-03649D02*
Y-02449D01*
Y-03649D02*
X-11191D01*
X-13391Y-02449D02*
X-11191D01*
X-09966Y-06824D02*
Y-05624D01*
X-12166Y-06824D02*
Y-05624D01*
Y-06824D02*
X-09966D01*
X-12166Y-05624D02*
X-09966D01*
X-14616Y-06824D02*
Y-05624D01*
X-12416Y-06824D02*
Y-05624D01*
X-14616D02*
X-12416D01*
X-14616Y-06824D02*
X-12416D01*
X-13366Y-08324D02*
Y-07124D01*
X-11166Y-08324D02*
Y-07124D01*
X-13366D02*
X-11166D01*
X-13366Y-08324D02*
X-11166D01*
X-14516Y-11349D02*
Y-10149D01*
X-12316Y-11349D02*
Y-10149D01*
X-14516D02*
X-12316D01*
X-14516Y-11349D02*
X-12316D01*
X-22824Y02724D02*
Y03924D01*
X-20624Y02724D02*
Y03924D01*
X-22824D02*
X-20624D01*
X-22824Y02724D02*
X-20624D01*
X-14824Y-00774D02*
Y00424D01*
X-12624Y-00774D02*
Y00424D01*
X-14824D02*
X-12624D01*
X-14824Y-00774D02*
X-12624D01*
X-18099Y04599D02*
Y05799D01*
X-20299Y04599D02*
Y05799D01*
Y04599D02*
X-18099D01*
X-20299Y05799D02*
X-18099D01*
X10949Y07649D02*
Y08849D01*
X08749Y07649D02*
Y08849D01*
Y07649D02*
X10949D01*
X08749Y08849D02*
X10949D01*
X09449Y06274D02*
Y07474D01*
X07249Y06274D02*
Y07474D01*
Y06274D02*
X09449D01*
X07249Y07474D02*
X09449D01*
X01924Y07874D02*
Y09074D01*
X04124Y07874D02*
Y09074D01*
X01924D02*
X04124D01*
X01924Y07874D02*
X04124D01*
X01949Y06399D02*
Y07599D01*
X04149Y06399D02*
Y07599D01*
X01949D02*
X04149D01*
X01949Y06399D02*
X04149D01*
X00249Y04799D02*
Y05999D01*
X-01949Y04799D02*
Y05999D01*
Y04799D02*
X00249D01*
X-01949Y05999D02*
X00249D01*
X00224Y03349D02*
Y04549D01*
X-01974Y03349D02*
Y04549D01*
Y03349D02*
X00224D01*
X-01974Y04549D02*
X00224D01*
X-22849Y04599D02*
Y05799D01*
X-20649Y04599D02*
Y05799D01*
X-22849D02*
X-20649D01*
X-22849Y04599D02*
X-20649D01*
X-05824Y17849D02*
X-02424D01*
X-05824Y19749D02*
X-02424D01*
Y17849D02*
Y19749D01*
X-05824Y17849D02*
Y19749D01*
X-02149Y12174D02*
X00049D01*
X-02149Y10974D02*
X00049D01*
X-02149D02*
Y12174D01*
X00049Y10974D02*
Y12174D01*
X-02174Y12599D02*
X00024D01*
X-02174Y13799D02*
X00024D01*
Y12599D02*
Y13799D01*
X-02174Y12599D02*
Y13799D01*
M02*