%FSTAX23Y23*%
%MOMM*%
%SFA1B1*%

%IPPOS*%
%ADD57C,0.253999*%
%LNledpendantpcb-1*%
%LPD*%
G54D57*
X02269Y26914D02*
X03775Y26744D01*
X05269Y26491*
X06746Y26153*
X0685Y26124*
X04537Y20541D02*
X0685Y26124D01*
X04513Y20482D02*
X04537Y20541D01*
X04488Y20356D02*
X04513Y20482D01*
X04488Y20228D02*
Y20356D01*
Y20228D02*
X04513Y20103D01*
X04562Y19984*
X04633Y19878*
X04723Y19787*
X0483Y19716*
X04889Y19692*
X04948Y19667*
X05074Y19642*
X05202*
X05327Y19667*
X05446Y19716*
X05552Y19787*
X05643Y19878*
X05715Y19984*
X05738Y20044*
X1045Y18092*
D01*
X10426Y18034D02*
X1045Y18092D01*
X10401Y17907D02*
X10426Y18034D01*
X10401Y1778D02*
Y17907D01*
Y1778D02*
X10426Y17653D01*
X10475Y17535*
X10546Y17429*
X10636Y17338*
X10743Y17267*
X10802Y17243*
X10861Y17218*
X10987Y17193*
X11115*
X1124Y17218*
X11359Y17267*
X11465Y17338*
X11557Y17429*
X11627Y17535*
X11651Y17594*
X13942Y23125*
X15005Y22458*
X16241Y21581*
X17426Y20636*
X18555Y19627*
X19627Y18555*
X20636Y17426*
X21581Y16241*
X22458Y15005*
X23264Y13722*
X23996Y12396*
X24654Y11031*
X25234Y09632*
X25734Y08202*
X26153Y06746*
X26491Y05269*
X26744Y03775*
X26914Y02269*
X26999Y00757*
Y0D02*
Y00757D01*
Y-00757D02*
Y0D01*
X26914Y-02269D02*
X26999Y-00757D01*
X26744Y-03775D02*
X26914Y-02269D01*
X26491Y-05269D02*
X26744Y-03775D01*
X26162Y-06713D02*
X26491Y-05269D01*
X23188Y-05631D02*
X26162Y-06713D01*
X23188Y-05631D02*
D01*
X23042Y-05578D02*
X23188Y-05631D01*
X22736Y-05531D02*
X23042Y-05578D01*
X22426Y-05544D02*
X22736Y-05531D01*
X22124Y-05618D02*
X22426Y-05544D01*
X21844Y-05749D02*
X22124Y-05618D01*
X21593Y-05933D02*
X21844Y-05749D01*
X21384Y-06161D02*
X21593Y-05933D01*
X21223Y-06427D02*
X21384Y-06161D01*
X21169Y-06572D02*
X21223Y-06427D01*
X20502Y-08405D02*
X21169Y-06572D01*
X20449Y-08551D02*
X20502Y-08405D01*
X20402Y-08858D02*
X20449Y-08551D01*
X20402Y-08858D02*
X20416Y-09167D01*
X2049Y-09469*
X20621Y-0975*
X20804Y-1*
X21033Y-1021*
X21298Y-10371*
X21444Y-10424*
X24424Y-11508*
X23996Y-12396D02*
X24424Y-11508D01*
X23264Y-13722D02*
X23996Y-12396D01*
X22458Y-15005D02*
X23264Y-13722D01*
X21581Y-16241D02*
X22458Y-15005D01*
X20636Y-17426D02*
X21581Y-16241D01*
X19627Y-18555D02*
X20636Y-17426D01*
X18555Y-19627D02*
X19627Y-18555D01*
X17426Y-20636D02*
X18555Y-19627D01*
X16241Y-21581D02*
X17426Y-20636D01*
X15005Y-22458D02*
X16241Y-21581D01*
X13722Y-23264D02*
X15005Y-22458D01*
X12396Y-23996D02*
X13722Y-23264D01*
X11031Y-24654D02*
X12396Y-23996D01*
X09632Y-25234D02*
X11031Y-24654D01*
X08202Y-25734D02*
X09632Y-25234D01*
X06746Y-26153D02*
X08202Y-25734D01*
X05269Y-26491D02*
X06746Y-26153D01*
X03775Y-26744D02*
X05269Y-26491D01*
X02269Y-26914D02*
X03775Y-26744D01*
X00757Y-26999D02*
X02269Y-26914D01*
X-00757Y-26999D02*
X00757D01*
X-02269Y-26914D02*
X-00757Y-26999D01*
X-03775Y-26744D02*
X-02269Y-26914D01*
X-05269Y-26491D02*
X-03775Y-26744D01*
X-06746Y-26153D02*
X-05269Y-26491D01*
X-08202Y-25734D02*
X-06746Y-26153D01*
X-09632Y-25234D02*
X-08202Y-25734D01*
X-11031Y-24654D02*
X-09632Y-25234D01*
X-12396Y-23996D02*
X-11031Y-24654D01*
X-13722Y-23264D02*
X-12396Y-23996D01*
X-15005Y-22458D02*
X-13722Y-23264D01*
X-16241Y-21581D02*
X-15005Y-22458D01*
X-17426Y-20636D02*
X-16241Y-21581D01*
X-18555Y-19627D02*
X-17426Y-20636D01*
X-19627Y-18555D02*
X-18555Y-19627D01*
X-20636Y-17426D02*
X-19627Y-18555D01*
X-21581Y-16241D02*
X-20636Y-17426D01*
X-22458Y-15005D02*
X-21581Y-16241D01*
X-23264Y-13722D02*
X-22458Y-15005D01*
X-23996Y-12396D02*
X-23264Y-13722D01*
X-24654Y-11031D02*
X-23996Y-12396D01*
X-25234Y-09632D02*
X-24654Y-11031D01*
X-25734Y-08202D02*
X-25234Y-09632D01*
X-26153Y-06746D02*
X-25734Y-08202D01*
X-26491Y-05269D02*
X-26153Y-06746D01*
X-26744Y-03775D02*
X-26491Y-05269D01*
X-26914Y-02269D02*
X-26744Y-03775D01*
X-26999Y-00757D02*
X-26914Y-02269D01*
X-26999Y-00757D02*
Y0D01*
Y00757*
X-26914Y02269*
X-26744Y03775*
X-26491Y05269*
X-26153Y06746*
X-25734Y08202*
X-25234Y09632*
X-24654Y11031*
X-23996Y12396*
X-23264Y13722*
X-22458Y15005*
X-21581Y16241*
X-20636Y17426*
X-19627Y18555*
X-18555Y19627*
X-17426Y20636*
X-16241Y21581*
X-15005Y22458*
X-13722Y23264*
X-12744Y23804*
X-115Y20874*
D01*
X-1144Y20731D01*
X-11265Y20475*
X-11044Y20257*
X-10785Y20087*
X-10497Y19971*
X-10192Y19913*
X-09882Y19916*
X-09578Y19979*
X-09435Y20039*
X-0764Y20801*
D01*
X-07497Y20862D01*
X-07241Y21037*
X-07023Y21258*
X-06853Y21517*
X-06737Y21805*
X-06679Y2211*
X-06682Y2242D02*
X-06679Y2211D01*
X-06745Y22724D02*
X-06682Y2242D01*
X-06806Y22867D02*
X-06745Y22724D01*
X-08042Y25781D02*
X-06806Y22867D01*
X-08042Y25781D02*
X-06746Y26153D01*
X-05269Y26491*
X-03775Y26744*
X-02269Y26914*
X-00757Y26999*
X00757*
X02269Y26914*
M02*