%FSTAX23Y23*%
%MOMM*%
%SFA1B1*%

%IPPOS*%
%AMD14*
4,1,4,-0.055880,-0.652780,0.421640,0.500380,0.055880,0.652780,-0.421640,-0.500380,-0.055880,-0.652780,0.0*
%
%AMD15*
4,1,4,0.314960,-1.320800,1.158240,0.711200,-0.314960,1.320800,-1.158240,-0.711200,0.314960,-1.320800,0.0*
%
%AMD16*
4,1,4,0.977900,0.406400,-0.406400,0.977900,-0.977900,-0.406400,0.406400,-0.977900,0.977900,0.406400,0.0*
%
%AMD24*
4,1,4,0.297180,-0.637540,0.637540,0.297180,-0.297180,0.637540,-0.637540,-0.297180,0.297180,-0.637540,0.0*
%
%AMD25*
4,1,4,0.264160,0.652780,-0.652780,0.264160,-0.264160,-0.652780,0.652780,-0.264160,0.264160,0.652780,0.0*
%
%AMD33*
4,1,4,-0.228600,-0.487680,0.487680,-0.228600,0.228600,0.487680,-0.487680,0.228600,-0.228600,-0.487680,0.0*
%
%ADD10R,0.799998X0.899998*%
%ADD11R,1.299997X1.399997*%
%ADD12R,1.699997X0.699999*%
%ADD13R,1.199998X1.399997*%
G04~CAMADD=14~9~0.0~0.0~492.1~157.5~0.0~0.0~0~0.0~0.0~0.0~0.0~0~0.0~0.0~0.0~0.0~0~0.0~0.0~0.0~247.5~332.0~513.0*
%ADD14D14*%
G04~CAMADD=15~9~0.0~0.0~866.1~629.9~0.0~0.0~0~0.0~0.0~0.0~0.0~0~0.0~0.0~0.0~0.0~0~0.0~0.0~0.0~247.5~912.0~1039.0*
%ADD15D15*%
G04~CAMADD=16~10~0.0~590.5~0.0~0.0~0.0~0.0~0~0.0~0.0~0.0~0.0~0~0.0~0.0~0.0~0.0~0~0.0~0.0~0.0~337.5~590.5~0.0*
%ADD16D16*%
%ADD17R,0.749999X0.849998*%
%ADD18R,1.777996X0.278999*%
%ADD19R,0.278999X1.777996*%
%ADD20R,0.599999X0.749999*%
%ADD21R,0.799998X0.799998*%
%ADD22R,1.549997X0.599999*%
%ADD23R,1.799996X1.199998*%
G04~CAMADD=24~10~0.0~393.6~0.0~0.0~0.0~0.0~0~0.0~0.0~0.0~0.0~0~0.0~0.0~0.0~0.0~0~0.0~0.0~0.0~250.0~393.6~0.0*
%ADD24D24*%
G04~CAMADD=25~10~0.0~393.6~0.0~0.0~0.0~0.0~0~0.0~0.0~0.0~0.0~0~0.0~0.0~0.0~0.0~0~0.0~0.0~0.0~383.0~393.6~0.0*
%ADD25D25*%
%ADD26R,0.799998X0.499999*%
%ADD27R,0.799998X0.299999*%
%ADD28R,0.299999X0.999998*%
%ADD29R,1.099998X0.599999*%
%ADD30R,0.849998X0.250000*%
%ADD31R,0.250000X0.849998*%
%ADD32R,2.599995X2.599995*%
G04~CAMADD=33~10~0.0~300.1~0.0~0.0~0.0~0.0~0~0.0~0.0~0.0~0.0~0~0.0~0.0~0.0~0.0~0~0.0~0.0~0.0~200.0~300.1~0.0*
%ADD33D33*%
%ADD34R,0.899998X0.250000*%
%ADD35R,0.250000X0.899998*%
%LNledpendantpcb-1*%
%LPD*%
G54D10*
X-22366Y07314D03*
X-21116D03*
X05974Y-12049D03*
X07224D03*
X04574Y-06249D03*
X03324D03*
X03399Y-12049D03*
X04649D03*
X11024Y-1905D03*
X12274D03*
X03999Y-15674D03*
X05249D03*
X11074Y-01999D03*
X12324D03*
X04749Y11374D03*
X05999D03*
X-07824Y18799D03*
X-06574D03*
X-04949Y09074D03*
X-03699D03*
X04774Y09849D03*
X06024D03*
X-03524Y13174D03*
X-04774D03*
X-11666Y-03049D03*
X-12916D03*
X-10441Y-06224D03*
X-11691D03*
X-14141D03*
X-12891D03*
Y-07724D03*
X-11641D03*
X-14041Y-10749D03*
X-12791D03*
X-22349Y03324D03*
X-21099D03*
X-14349Y-00174D03*
X-13099D03*
X-18574Y05199D03*
X-19824D03*
X10474Y08249D03*
X09224D03*
X08974Y06874D03*
X07724D03*
X02399Y08474D03*
X03649D03*
X02424Y06999D03*
X03674D03*
X-00224Y05399D03*
X-01474D03*
X-00249Y03949D03*
X-01499D03*
X-22374Y05199D03*
X-21124D03*
G54D11*
X00749Y16574D03*
X-00849D03*
X13474Y13399D03*
X11874D03*
X09124Y11299D03*
X10724D03*
X-03324Y18799D03*
X-04924D03*
G54D12*
X-04399Y14999D03*
Y16599D03*
G54D13*
X03274Y-10249D03*
Y-08049D03*
X04974Y-10249D03*
Y-08049D03*
G54D14*
X0652Y18664D03*
X07121Y18416D03*
X07721Y18167D03*
X08322Y17918D03*
X08922Y17669D03*
G54D15*
X12631Y16431D03*
X03022Y20411D03*
G54D16*
X08944Y15631D03*
X05063Y17238D03*
G54D17*
X-11691Y-04674D03*
X-12891D03*
X-12866Y-09224D03*
X-11666D03*
X04649Y-13549D03*
X03449D03*
X07899Y13224D03*
X06699D03*
X05899Y15124D03*
X04699D03*
X05299Y-20624D03*
X04099D03*
X06949Y-19199D03*
X08149D03*
X05249Y-17474D03*
X04049D03*
X05299Y-19149D03*
X04099D03*
X-10749Y08649D03*
X-09549D03*
X-09599Y10499D03*
X-10799D03*
X-11924Y18399D03*
X-13124D03*
X-07699Y07749D03*
X-06499D03*
X-07999Y10499D03*
X-06799D03*
X-05324Y21749D03*
X-04124D03*
X-13199Y14524D03*
X-14399D03*
X-01474Y06849D03*
X-00274D03*
X-01649Y11574D03*
X-00449D03*
X-00474Y13199D03*
X-01674D03*
G54D18*
X08832Y-06649D03*
Y-07149D03*
Y-07649D03*
Y-08149D03*
Y-08649D03*
Y-09149D03*
Y-09649D03*
Y-10149D03*
Y-10649D03*
Y-11149D03*
Y-11649D03*
Y-12149D03*
X17316D03*
Y-11649D03*
Y-11149D03*
Y-10649D03*
Y-10149D03*
Y-09649D03*
Y-09149D03*
Y-08649D03*
Y-08149D03*
Y-07649D03*
Y-07149D03*
Y-06649D03*
G54D19*
X10324Y-13641D03*
X10824D03*
X11324D03*
X11824D03*
X12324D03*
X12824D03*
X13324D03*
X13824D03*
X14324D03*
X14824D03*
X15324D03*
X15824D03*
Y-05157D03*
X15324D03*
X14824D03*
X14324D03*
X13824D03*
X13324D03*
X12824D03*
X12324D03*
X11824D03*
X11324D03*
X10824D03*
X10324D03*
G54D20*
X-14224Y02224D03*
Y03274D03*
X-13424Y02224D03*
Y03274D03*
G54D21*
X-13724Y13249D03*
X-15224D03*
G54D22*
X17324Y02474D03*
Y01474D03*
Y00474D03*
Y-00524D03*
Y-01524D03*
Y-02524D03*
G54D23*
X19849Y03774D03*
Y-03824D03*
G54D24*
X21775Y-11342D03*
X23466Y-11958D03*
X24032Y-0514D03*
X25723Y-05756D03*
G54D25*
X-0636Y23735D03*
X-07063Y25392D03*
X-12435Y21156D03*
X-13138Y22813D03*
G54D26*
X-09499Y02899D03*
Y01099D03*
X-07999Y02899D03*
Y01099D03*
X00749Y-00899D03*
Y00899D03*
X-00749Y-00899D03*
Y00899D03*
X07999Y02899D03*
Y01099D03*
X09499Y02899D03*
Y01099D03*
X00749Y-15899D03*
Y-14099D03*
X-00749Y-15899D03*
Y-14099D03*
Y-23099D03*
Y-24899D03*
X00749Y-23099D03*
Y-24899D03*
X17719Y-17869D03*
Y-16069D03*
X16219Y-17869D03*
Y-16069D03*
X23249Y00899D03*
Y-00899D03*
X24749Y00899D03*
Y-00899D03*
X17719Y16069D03*
Y17869D03*
X16219Y16069D03*
Y17869D03*
X-00749Y24899D03*
Y23099D03*
X00749Y24899D03*
Y23099D03*
X-16219Y16069D03*
Y17869D03*
X-17719Y16069D03*
Y17869D03*
X-24749Y00899D03*
Y-00899D03*
X-23249Y00899D03*
Y-00899D03*
X-16219Y-17869D03*
Y-16069D03*
X-17719Y-17869D03*
Y-16069D03*
G54D27*
X-09499Y01999D03*
X-07999D03*
X00749Y0D03*
X-00749D03*
X07999Y01999D03*
X09499D03*
X00749Y-14999D03*
X-00749D03*
Y-23999D03*
X00749D03*
X17719Y-16969D03*
X16219D03*
X23249Y0D03*
X24749D03*
X17719Y16969D03*
X16219D03*
X-00749Y23999D03*
X00749D03*
X-16219Y16969D03*
X-17719D03*
X-24749Y0D03*
X-23249D03*
X-16219Y-16969D03*
X-17719D03*
G54D28*
X-08749Y02829D03*
Y01169D03*
X0Y-00829D03*
Y00829D03*
X08749Y02829D03*
Y01169D03*
X0Y-15829D03*
Y-14169D03*
Y-23169D03*
Y-24829D03*
X16969Y-17799D03*
Y-16139D03*
X23999Y00829D03*
Y-00829D03*
X16969Y16139D03*
Y17799D03*
X0Y24829D03*
Y23169D03*
X-16969Y16139D03*
Y17799D03*
X-23999Y00829D03*
Y-00829D03*
X-16969Y-17799D03*
Y-16139D03*
G54D29*
X06774Y-17599D03*
Y-15699D03*
X09574D03*
Y-16649D03*
Y-17599D03*
G54D30*
X-11074Y16074D03*
Y15574D03*
Y15074D03*
Y14574D03*
Y14074D03*
Y13574D03*
X-07224D03*
Y14074D03*
Y14574D03*
Y15074D03*
Y15574D03*
Y16074D03*
G54D31*
X-10399Y12899D03*
X-09899D03*
X-09399D03*
X-08899D03*
X-08399D03*
X-07899D03*
Y16749D03*
X-08399D03*
X-08899D03*
X-09399D03*
X-09899D03*
X-10399D03*
G54D32*
X-09149Y14824D03*
X-18049Y01074D03*
G54D33*
X-14299Y-10874D03*
G54D34*
X-16124Y-00174D03*
Y00324D03*
Y00824D03*
Y01324D03*
Y01824D03*
Y02324D03*
X-19974D03*
Y01824D03*
Y01324D03*
Y00824D03*
Y00324D03*
Y-00174D03*
G54D35*
X-16799Y02999D03*
X-17299D03*
X-17799D03*
X-18299D03*
X-18799D03*
X-19299D03*
Y-00849D03*
X-18799D03*
X-18299D03*
X-17799D03*
X-17299D03*
X-16799D03*
M02*