%FSTAX23Y23*%
%MOMM*%
%SFA1B1*%

%IPPOS*%
%ADD44C,1.899996*%
%ADD46C,0.687999*%
%ADD47C,0.685999*%
%ADD48C,0.685999*%
%LNledpendantpcb-1*%
%LPD*%
G36*
X02247Y26656D02*
X03739Y26488D01*
X05218Y26237*
X06399Y25967*
X06458Y25854*
X04274Y20581*
X04269Y20556*
X04259Y20532*
X04234Y20407*
Y20381*
X04229Y20356*
Y20228*
X04234Y20203*
Y20178*
X04259Y20052*
X04269Y20029*
X04274Y20004*
X04323Y19885*
X04337Y19864*
X04346Y1984*
X04418Y19734*
X04436Y19716*
X0445Y19695*
X0454Y19604*
X04562Y1959*
X0458Y19572*
X04686Y19501*
X0471Y19491*
X04731Y19477*
X04849Y19428*
X04874Y19423*
X04898Y19413*
X05023Y19388*
X05049*
X05074Y19383*
X05202*
X05227Y19388*
X05252*
X05378Y19413*
X05402Y19423*
X05427Y19428*
X05545Y19477*
X05566Y19491*
X0559Y19501*
X05696Y19572*
X05715Y1959*
X05735Y19604*
X05826Y19695*
X0584Y19716*
X05844Y1972*
X10147Y17937*
Y17932*
X10142Y17907*
Y1778*
X10147Y17754*
Y17729*
X10172Y17603*
X10181Y17579*
X10186Y17554*
X10235Y17436*
X1025Y17415*
X10259Y17391*
X1033Y17285*
X10348Y17267*
X10363Y17246*
X10453Y17155*
X10474Y17141*
X10492Y17123*
X10599Y17052*
X10622Y17042*
X10644Y17028*
X10703Y17003*
X10762Y16979*
X10787Y16974*
X10811Y16964*
X10936Y16939*
X10962*
X10987Y16934*
X11115*
X1114Y16939*
X11165*
X11291Y16964*
X11314Y16974*
X11339Y16979*
X11458Y17028*
X11479Y17042*
X11502Y17052*
X11609Y17123*
X11627Y17141*
X11648Y17155*
X11739Y17246*
X11753Y17267*
X11771Y17285*
X11842Y17391*
X11852Y17415*
X11866Y17436*
X1189Y17495*
X14026Y22652*
X14147Y22691*
X14861Y22242*
X16085Y21374*
X17258Y20438*
X18377Y19438*
X19438Y18377*
X20438Y17258*
X21374Y16085*
X22242Y14861*
X2304Y13591*
X23766Y12277*
X24417Y10926*
X24992Y09539*
X25487Y08123*
X25903Y06681*
X26237Y05218*
X26488Y03739*
X26656Y02247*
X2674Y00749*
Y0*
Y-00749*
X26656Y-02248*
X26488Y-03739*
X26237Y-05218*
X25995Y-06276*
X25884Y-06337*
X23277Y-05388*
X23131Y-05335*
X23106Y-05331*
X23082Y-05322*
X22775Y-05275*
X2275Y-05276*
X22724Y-05272*
X22415Y-05286*
X2239Y-05292*
X22364Y-05293*
X22063Y-05367*
X2204Y-05377*
X22015Y-05383*
X21734Y-05515*
X21713Y-0553*
X2169Y-0554*
X2144Y-05724*
X21423Y-05743*
X21402Y-05758*
X21193Y-05986*
X21179Y-06008*
X21162Y-06027*
X21001Y-06292*
X20992Y-06316*
X20979Y-06338*
X20926Y-06484*
X20259Y-08317*
X20206Y-08462*
X20202Y-08488*
X20193Y-08512*
X20146Y-08818*
X20147Y-08844*
X20143Y-08869*
X20157Y-09179*
X20163Y-09204*
X20164Y-09229*
X20238Y-0953*
X20249Y-09553*
X20255Y-09578*
X20386Y-09859*
X20401Y-0988*
X20412Y-09903*
X20595Y-10153*
X20614Y-1017*
X20629Y-10191*
X20858Y-10401*
X2088Y-10414*
X20898Y-10431*
X21164Y-10592*
X21188Y-10601*
X21209Y-10614*
X21355Y-10668*
X23978Y-11621*
X24026Y-11739*
X23766Y-12277*
X2304Y-13591*
X22242Y-14861*
X21374Y-16085*
X20438Y-17258*
X19438Y-18377*
X18377Y-19438*
X17258Y-20438*
X16085Y-21374*
X14861Y-22242*
X13591Y-2304*
X12277Y-23766*
X10926Y-24417*
X09539Y-24992*
X08123Y-25487*
X06681Y-25903*
X05218Y-26237*
X03739Y-26488*
X02247Y-26656*
X00749Y-2674*
X-00749*
X-02248Y-26656*
X-03739Y-26488*
X-05218Y-26237*
X-06681Y-25903*
X-08123Y-25487*
X-09539Y-24992*
X-10926Y-24417*
X-12277Y-23766*
X-13591Y-2304*
X-14861Y-22242*
X-16085Y-21374*
X-17258Y-20438*
X-18377Y-19438*
X-19438Y-18377*
X-20438Y-17258*
X-21374Y-16085*
X-21983Y-15227*
X-21947Y-15105*
X-1537Y-12499*
X-16199Y-10399*
X-17514Y-10887*
X-17629Y-10833*
X-20749Y-02049*
X-22901Y-02213*
X-22966Y-02103*
X-22955Y-02088*
X-22919Y-01905*
X-22955Y-0172*
X-23059Y-01564*
X-23215Y-0146*
X-23399Y-01424*
X-23583Y-0146*
X-23739Y-01564*
X-23843Y-0172*
X-23879Y-01905*
X-23843Y-02088*
X-23799Y-02154*
X-23863Y-02286*
X-26628Y-02496*
X-26656Y-02248*
X-2674Y-00749*
Y0*
Y00749*
X-26656Y02247*
X-26488Y03739*
X-26237Y05218*
X-25903Y06681*
X-25487Y08123*
X-24992Y09539*
X-24417Y10926*
X-23766Y12277*
X-2304Y13591*
X-22242Y14861*
X-21374Y16085*
X-20438Y17258*
X-19438Y18377*
X-18377Y19438*
X-17258Y20438*
X-16085Y21374*
X-14861Y22242*
X-13591Y2304*
X-12954Y23393*
X-12833Y23351*
X-11739Y20773*
X-11678Y2063*
X-11664Y20609*
X-11654Y20585*
X-11479Y20329*
X-11461Y20311*
X-11447Y2029*
X-11226Y20072*
X-11204Y20058*
X-11186Y20041*
X-10927Y19871*
X-10903Y19861*
X-10882Y19847*
X-10594Y19731*
X-10569Y19726*
X-10545Y19716*
X-1024Y19659*
X-10215*
X-1019Y19654*
X-0988Y19657*
X-09855Y19662*
X-09829*
X-09525Y19725*
X-09502Y19735*
X-09477Y1974*
X-09334Y19801*
X-07539Y20563*
X-07396Y20624*
X-07375Y20638*
X-07352Y20648*
X-07095Y20823*
X-07077Y20841*
X-07056Y20855*
X-06839Y21076*
X-06825Y21098*
X-06807Y21116*
X-06637Y21375*
X-06627Y21399*
X-06613Y2142*
X-06497Y21708*
X-06492Y21733*
X-06483Y21757*
X-06425Y22062*
Y22087*
X-0642Y22112*
X-06423Y22422*
X-06428Y22447*
Y22473*
X-06492Y22777*
X-06502Y228*
X-06507Y22825*
X-06567Y22968*
X-07652Y25524*
X-07598Y25638*
X-06681Y25903*
X-05218Y26237*
X-03739Y26488*
X-02248Y26656*
X-00749Y2674*
X00749*
X02247Y26656*
G37*
%LNledpendantpcb-2*%
%LPC*%
G36*
X149Y-06044D02*
X14716Y-06081D01*
X1456Y-06185*
X14456Y-06341*
X14419Y-06524*
X14456Y-06708*
X1456Y-06864*
X14716Y-06968*
X149Y-07005*
X15084Y-06968*
X1524Y-06864*
X15343Y-06708*
X1538Y-06524*
X15343Y-06341*
X1524Y-06185*
X15084Y-06081*
X149Y-06044*
G37*
G36*
X-02799Y-06619D02*
X-02983Y-06655D01*
X-03139Y-06759*
X-03243Y-06915*
X-03279Y-07099*
X-03243Y-07283*
X-03139Y-07439*
X-02983Y-07543*
X-02799Y-07579*
X-02615Y-07543*
X-02459Y-07439*
X-02355Y-07283*
X-02319Y-07099*
X-02355Y-06915*
X-02459Y-06759*
X-02615Y-06655*
X-02799Y-06619*
G37*
G36*
X06499Y-07019D02*
X06315Y-07055D01*
X06159Y-07159*
X06055Y-07315*
X06019Y-07499*
X06055Y-07683*
X06159Y-07839*
X06315Y-07943*
X06499Y-07979*
X06683Y-07943*
X06839Y-07839*
X06943Y-07683*
X06979Y-07499*
X06943Y-07315*
X06839Y-07159*
X06683Y-07055*
X06499Y-07019*
G37*
G36*
X-03399Y-05119D02*
X-03583Y-05155D01*
X-03739Y-05259*
X-03843Y-05415*
X-03879Y-05599*
X-03843Y-05783*
X-03739Y-05939*
X-03583Y-06043*
X-03399Y-06079*
X-03215Y-06043*
X-03059Y-05939*
X-02955Y-05783*
X-02919Y-05599*
X-02955Y-05415*
X-03059Y-05259*
X-03215Y-05155*
X-03399Y-05119*
G37*
G36*
X-16599Y-02619D02*
X-16783Y-02655D01*
X-16939Y-02759*
X-17043Y-02915*
X-17079Y-03099*
X-17043Y-03283*
X-16939Y-03439*
X-16783Y-03543*
X-16599Y-03579*
X-16554Y-0357*
X-16456Y-0368*
X-16479Y-03799*
X-16443Y-03983*
X-16339Y-04139*
X-16183Y-04243*
X-16174Y-04374*
X-16218Y-0444*
X-16256Y-04624*
X-16218Y-04808*
X-16114Y-04964*
X-15959Y-05068*
X-15923Y-05075*
X-15875Y-05214*
X-15943Y-05315*
X-15979Y-05499*
X-15943Y-05683*
X-15839Y-05839*
X-15683Y-05943*
X-15499Y-05979*
X-15315Y-05943*
X-15159Y-05839*
X-15055Y-05683*
X-15019Y-05499*
X-15055Y-05315*
X-15159Y-05159*
X-15315Y-05055*
X-1535Y-05048*
X-15399Y-04909*
X-15331Y-04808*
X-15295Y-04624*
X-15331Y-0444*
X-15435Y-04285*
X-15591Y-04181*
X-156Y-04049*
X-15555Y-03983*
X-15519Y-03799*
X-15555Y-03615*
X-15659Y-03459*
X-15815Y-03355*
X-15999Y-03319*
X-16044Y-03328*
X-16142Y-03218*
X-16119Y-03099*
X-16155Y-02915*
X-16259Y-02759*
X-16415Y-02655*
X-16599Y-02619*
G37*
G36*
X-07899Y-06019D02*
X-08083Y-06055D01*
X-08239Y-06159*
X-08343Y-06315*
X-08379Y-06499*
X-08343Y-06683*
X-08239Y-06839*
X-08083Y-06943*
X-07899Y-06979*
X-07715Y-06943*
X-07559Y-06839*
X-07455Y-06683*
X-07419Y-06499*
X-07455Y-06315*
X-07559Y-06159*
X-07715Y-06055*
X-07899Y-06019*
G37*
G36*
X-04945D02*
X-05129Y-06055D01*
X-05285Y-06159*
X-05389Y-06315*
X-05425Y-06499*
X-05389Y-06683*
X-05285Y-06839*
X-05129Y-06943*
X-04945Y-06979*
X-04761Y-06943*
X-04605Y-06839*
X-04501Y-06683*
X-04465Y-06499*
X-04501Y-06315*
X-04605Y-06159*
X-04761Y-06055*
X-04945Y-06019*
G37*
G36*
X-05499Y-09919D02*
X-05683Y-09955D01*
X-05839Y-10059*
X-05943Y-10215*
X-05979Y-10399*
X-05943Y-10583*
X-05839Y-10739*
X-05683Y-10843*
X-05499Y-10879*
X-05315Y-10843*
X-05159Y-10739*
X-05055Y-10583*
X-05019Y-10399*
X-05055Y-10215*
X-05159Y-10059*
X-05315Y-09955*
X-05499Y-09919*
G37*
G36*
X11496Y-09422D02*
X11312Y-09458D01*
X11156Y-09563*
X11052Y-09718*
X11016Y-09902*
X11052Y-10086*
X11156Y-10242*
X11312Y-10346*
X11496Y-10382*
X1168Y-10346*
X11836Y-10242*
X1194Y-10086*
X11976Y-09902*
X1194Y-09718*
X11836Y-09563*
X1168Y-09458*
X11496Y-09422*
G37*
G36*
X-04699Y-10719D02*
X-04883Y-10755D01*
X-05039Y-10859*
X-05143Y-11015*
X-05179Y-11199*
X-05143Y-11383*
X-05039Y-11539*
X-04883Y-11643*
X-04699Y-11679*
X-04515Y-11643*
X-04359Y-11539*
X-04255Y-11383*
X-04219Y-11199*
X-04255Y-11015*
X-04359Y-10859*
X-04515Y-10755*
X-04699Y-10719*
G37*
G36*
X127Y-10019D02*
X12515Y-10055D01*
X12359Y-1016*
X12255Y-10315*
X12219Y-10499*
X12255Y-10683*
X12359Y-10839*
X12515Y-10943*
X127Y-10979*
X12883Y-10943*
X13039Y-10839*
X13143Y-10683*
X13179Y-10499*
X13143Y-10315*
X13039Y-1016*
X12883Y-10055*
X127Y-10019*
G37*
G36*
X13899Y-08219D02*
X13716Y-08255D01*
X13559Y-08359*
X13455Y-08515*
X13419Y-08699*
X13455Y-08883*
X13559Y-09039*
X13716Y-09144*
X13899Y-09179*
X14083Y-09144*
X14239Y-09039*
X14343Y-08883*
X14379Y-08699*
X14343Y-08515*
X14239Y-08359*
X14083Y-08255*
X13899Y-08219*
G37*
G36*
X10299Y-06319D02*
X10115Y-06355D01*
X09959Y-06459*
X09855Y-06615*
X09819Y-06799*
X09855Y-06983*
X09959Y-07139*
X10096Y-0723*
X10107Y-07299*
X10096Y-07368*
X09959Y-07459*
X09855Y-07615*
X09819Y-07799*
X09855Y-07983*
X09959Y-08139*
X10115Y-08243*
X10299Y-08279*
X10483Y-08243*
X10639Y-08139*
X10743Y-07983*
X10779Y-07799*
X10743Y-07615*
X10639Y-07459*
X10502Y-07368*
X10491Y-07299*
X10502Y-0723*
X10639Y-07139*
X10743Y-06983*
X10779Y-06799*
X10743Y-06615*
X10639Y-06459*
X10483Y-06355*
X10299Y-06319*
G37*
G36*
X-07999Y-09319D02*
X-08183Y-09355D01*
X-08339Y-09459*
X-08443Y-09615*
X-08479Y-09799*
X-08443Y-09983*
X-08339Y-10139*
X-08183Y-10243*
X-07999Y-10279*
X-07815Y-10243*
X-07659Y-10139*
X-07555Y-09983*
X-07519Y-09799*
X-07555Y-09615*
X-07659Y-09459*
X-07815Y-09355*
X-07999Y-09319*
G37*
G36*
X18699Y-09219D02*
X18515Y-09255D01*
X18359Y-09359*
X18255Y-09515*
X18219Y-09699*
X18255Y-09883*
X18359Y-10039*
X18515Y-10143*
X18699Y-10179*
X18883Y-10143*
X19039Y-10039*
X19143Y-09883*
X19179Y-09699*
X19143Y-09515*
X19039Y-09359*
X18883Y-09255*
X18699Y-09219*
G37*
G36*
X-03999Y-01419D02*
X-04183Y-01455D01*
X-04339Y-01559*
X-04443Y-01715*
X-04479Y-01899*
X-04443Y-02083*
X-04339Y-02239*
X-04183Y-02343*
X-03999Y-02379*
X-03815Y-02343*
X-03659Y-02239*
X-03556Y-02083*
X-03519Y-01899*
X-03556Y-01715*
X-03659Y-01559*
X-03815Y-01455*
X-03999Y-01419*
G37*
G36*
X24765Y-01424D02*
X2458Y-0146D01*
X24424Y-01564*
X2432Y-0172*
X24284Y-01905*
X2432Y-02088*
X24424Y-02244*
X2458Y-02348*
X24765Y-02384*
X24948Y-02348*
X25104Y-02244*
X25208Y-02088*
X25244Y-01905*
X25208Y-0172*
X25104Y-01564*
X24948Y-0146*
X24765Y-01424*
G37*
G36*
X00762D02*
X00577Y-0146D01*
X00421Y-01564*
X00317Y-0172*
X00281Y-01905*
X00317Y-02088*
X00421Y-02244*
X00577Y-02348*
X00762Y-02384*
X00945Y-02348*
X01101Y-02244*
X01205Y-02088*
X01241Y-01905*
X01205Y-0172*
X01101Y-01564*
X00945Y-0146*
X00762Y-01424*
G37*
G36*
X16024Y-01044D02*
X1584Y-0108D01*
X15684Y-01184*
X1558Y-0134*
X15544Y-01524*
X1558Y-01708*
X15684Y-01864*
X1584Y-01968*
X16024Y-02004*
X16208Y-01968*
X16364Y-01864*
X16468Y-01708*
X16504Y-01524*
X16468Y-0134*
X16364Y-01184*
X16208Y-0108*
X16024Y-01044*
G37*
G36*
X07555Y00379D02*
X07371Y00343D01*
X07215Y00239*
X07112Y00083*
X07075Y-00099*
X07112Y-00283*
X07215Y-00439*
X07371Y-00543*
X07555Y-00579*
X07739Y-00543*
X07895Y-00439*
X07999Y-00283*
X08035Y-00099*
X07999Y00083*
X07895Y00239*
X07739Y00343*
X07555Y00379*
G37*
G36*
X-09099Y00279D02*
X-09283Y00243D01*
X-09439Y00139*
X-09543Y-00015*
X-09579Y-00199*
X-09543Y-00383*
X-09439Y-00539*
X-09283Y-00643*
X-09099Y-00679*
X-08915Y-00643*
X-08759Y-00539*
X-08655Y-00383*
X-08619Y-00199*
X-08655Y-00015*
X-08759Y00139*
X-08915Y00243*
X-09099Y00279*
G37*
G36*
X-0627Y-0019D02*
X-06454Y-00226D01*
X-0661Y-0033*
X-06714Y-00486*
X-0675Y-0067*
X-06714Y-00854*
X-06694Y-00884*
X-06785Y-00975*
X-06815Y-00955*
X-06999Y-00919*
X-07183Y-00955*
X-07339Y-01059*
X-07443Y-01215*
X-07479Y-01399*
X-07443Y-01583*
X-07339Y-01739*
X-07329Y-01745*
X-07338Y-01892*
X-07439Y-01959*
X-07543Y-02115*
X-07579Y-02299*
X-07543Y-02483*
X-07439Y-02639*
X-07283Y-02743*
X-07099Y-02779*
X-06915Y-02743*
X-06759Y-02639*
X-06655Y-02483*
X-06619Y-02299*
X-06655Y-02115*
X-06759Y-01959*
X-06769Y-01953*
X-0676Y-01806*
X-06659Y-01739*
X-06555Y-01583*
X-06519Y-01399*
X-06555Y-01215*
X-06575Y-01185*
X-06484Y-01094*
X-06454Y-01114*
X-0627Y-0115*
X-06086Y-01114*
X-0593Y-0101*
X-05826Y-00854*
X-0579Y-0067*
X-05826Y-00486*
X-0593Y-0033*
X-06086Y-00226*
X-0627Y-0019*
G37*
G36*
X1355Y-01444D02*
X13366Y-0148D01*
X1321Y-01585*
X13106Y-0174*
X13069Y-01924*
X13106Y-02108*
X1321Y-02264*
X13366Y-02368*
X1355Y-02404*
X13733Y-02368*
X13889Y-02264*
X13993Y-02108*
X1403Y-01924*
X13993Y-0174*
X13889Y-01585*
X13733Y-0148*
X1355Y-01444*
G37*
G36*
X07299Y-04519D02*
X07115Y-04555D01*
X06959Y-04659*
X06855Y-04815*
X06819Y-04999*
X06855Y-05183*
X06959Y-05339*
X07115Y-05443*
X07299Y-05479*
X07483Y-05443*
X07639Y-05339*
X07743Y-05183*
X07779Y-04999*
X07743Y-04815*
X07639Y-04659*
X07483Y-04555*
X07299Y-04519*
G37*
G36*
X-07499Y-03719D02*
X-07683Y-03755D01*
X-07839Y-03859*
X-07943Y-04015*
X-07979Y-04199*
X-07943Y-04383*
X-07863Y-04502*
X-07894Y-04616*
X-07911Y-04641*
X-07983Y-04655*
X-08139Y-04759*
X-08243Y-04915*
X-08279Y-05099*
X-08243Y-05283*
X-08139Y-05439*
X-07983Y-05543*
X-07799Y-05579*
X-07615Y-05543*
X-07459Y-05439*
X-07355Y-05283*
X-07319Y-05099*
X-07355Y-04915*
X-07435Y-04796*
X-07404Y-04682*
X-07387Y-04657*
X-07315Y-04643*
X-07159Y-04539*
X-07055Y-04383*
X-07019Y-04199*
X-07055Y-04015*
X-07159Y-03859*
X-07315Y-03755*
X-07499Y-03719*
G37*
G36*
X19599Y-04994D02*
X19415Y-05031D01*
X19259Y-05135*
X19155Y-0529*
X19119Y-05474*
X19155Y-05658*
X19259Y-05814*
X19415Y-05918*
X19599Y-05954*
X19783Y-05918*
X19939Y-05814*
X20043Y-05658*
X20079Y-05474*
X20043Y-0529*
X19939Y-05135*
X19783Y-05031*
X19599Y-04994*
G37*
G36*
X-04299Y-04319D02*
X-04483Y-04355D01*
X-04639Y-04459*
X-04743Y-04615*
X-04779Y-04799*
X-04743Y-04983*
X-04639Y-05139*
X-04483Y-05243*
X-04299Y-05279*
X-04115Y-05243*
X-03959Y-05139*
X-03855Y-04983*
X-03819Y-04799*
X-03855Y-04615*
X-03959Y-04459*
X-04115Y-04355*
X-04299Y-04319*
G37*
G36*
X09999Y-02819D02*
X09815Y-02855D01*
X09659Y-02959*
X09555Y-03115*
X09537Y-03206*
X09396Y-03264*
X09383Y-03255*
X09199Y-03219*
X09015Y-03255*
X08859Y-03359*
X08755Y-03515*
X08719Y-03699*
X08755Y-03883*
X08859Y-04039*
X09015Y-04143*
X09199Y-04179*
X09383Y-04143*
X09539Y-04039*
X09643Y-03883*
X09661Y-03792*
X09802Y-03734*
X09815Y-03743*
X09999Y-03779*
X10183Y-03743*
X10339Y-03639*
X10443Y-03483*
X10479Y-03299*
X10443Y-03115*
X10339Y-02959*
X10183Y-02855*
X09999Y-02819*
G37*
G36*
X13901Y-02593D02*
X13717Y-02629D01*
X13561Y-02733*
X13457Y-02889*
X13421Y-03073*
X13457Y-03257*
X13561Y-03413*
X13717Y-03517*
X13901Y-03553*
X14085Y-03517*
X14241Y-03413*
X14345Y-03257*
X14381Y-03073*
X14345Y-02889*
X14241Y-02733*
X14085Y-02629*
X13901Y-02593*
G37*
G36*
X11599Y-02719D02*
X11415Y-02755D01*
X11259Y-02859*
X11155Y-03015*
X11119Y-03199*
X11155Y-03383*
X11259Y-03539*
X11415Y-03643*
X11599Y-03679*
X11783Y-03643*
X11939Y-03539*
X12043Y-03383*
X12079Y-03199*
X12043Y-03015*
X11939Y-02859*
X11783Y-02755*
X11599Y-02719*
G37*
G36*
X18699Y-10819D02*
X18515Y-10855D01*
X18359Y-10959*
X18255Y-11115*
X18219Y-11299*
X18255Y-11483*
X18359Y-11639*
X18515Y-11743*
X18699Y-11779*
X18883Y-11743*
X19039Y-11639*
X19143Y-11483*
X19179Y-11299*
X19143Y-11115*
X19039Y-10959*
X18883Y-10855*
X18699Y-10819*
G37*
G36*
X00762Y-16283D02*
X00577Y-16319D01*
X00421Y-16423*
X00317Y-16579*
X00281Y-16764*
X00317Y-16947*
X00421Y-17103*
X00577Y-17207*
X00644Y-1722*
Y-1735*
X00615Y-17355*
X00459Y-17459*
X00355Y-17615*
X00319Y-17799*
X00355Y-17983*
X00459Y-18139*
X0051Y-18173*
Y-18325*
X00459Y-18359*
X00355Y-18515*
X00319Y-18699*
X00355Y-18883*
X00459Y-19039*
X00615Y-19143*
X00799Y-19179*
X00983Y-19143*
X01139Y-19039*
X01243Y-18883*
X01279Y-18699*
X01243Y-18515*
X01139Y-18359*
X01088Y-18325*
Y-18173*
X01139Y-18139*
X01243Y-17983*
X01279Y-17799*
X01243Y-17615*
X01139Y-17459*
X00983Y-17355*
X00916Y-17342*
Y-17212*
X00945Y-17207*
X01101Y-17103*
X01205Y-16947*
X01241Y-16764*
X01205Y-16579*
X01101Y-16423*
X00945Y-16319*
X00762Y-16283*
G37*
G36*
X17399Y-18319D02*
X17215Y-18355D01*
X17059Y-18459*
X16955Y-18615*
X16919Y-18799*
X16955Y-18983*
X17059Y-19139*
X17215Y-19243*
X17399Y-19279*
X17583Y-19243*
X17739Y-19139*
X17843Y-18983*
X17879Y-18799*
X17843Y-18615*
X17739Y-18459*
X17583Y-18355*
X17399Y-18319*
G37*
G36*
X-16002Y-18569D02*
X-16185Y-18605D01*
X-16341Y-18709*
X-16445Y-18865*
X-16481Y-1905*
X-16445Y-19233*
X-16341Y-19389*
X-16185Y-19493*
X-16002Y-19529*
X-15817Y-19493*
X-15661Y-19389*
X-15557Y-19233*
X-15521Y-1905*
X-15557Y-18865*
X-15661Y-18709*
X-15817Y-18605*
X-16002Y-18569*
G37*
G36*
X09599Y-18219D02*
X09415Y-18255D01*
X09259Y-18359*
X09155Y-18515*
X09119Y-18699*
X09155Y-18883*
X09259Y-19039*
X09415Y-19143*
X09599Y-19179*
X09783Y-19143*
X09939Y-19039*
X10043Y-18883*
X10079Y-18699*
X10043Y-18515*
X09939Y-18359*
X09783Y-18255*
X09599Y-18219*
G37*
G36*
X14399Y-16219D02*
X14215Y-16256D01*
X14059Y-16359*
X13955Y-16515*
X13919Y-16699*
X13955Y-16883*
X14059Y-17039*
X14215Y-17143*
X14399Y-17179*
X14583Y-17143*
X14739Y-17039*
X14843Y-16883*
X14879Y-16699*
X14843Y-16515*
X14739Y-16359*
X14583Y-16256*
X14399Y-16219*
G37*
G36*
X10999D02*
X10815Y-16256D01*
X10659Y-16359*
X10555Y-16515*
X10519Y-16699*
X10555Y-16883*
X10659Y-17039*
X10815Y-17143*
X10999Y-17179*
X11183Y-17143*
X11339Y-17039*
X11443Y-16883*
X11479Y-16699*
X11443Y-16515*
X11339Y-16359*
X11183Y-16256*
X10999Y-16219*
G37*
G36*
X02799Y-1762D02*
X02616Y-17656D01*
X0246Y-1776*
X02356Y-17916*
X0232Y-18099*
X02356Y-18282*
X0246Y-18438*
X02616Y-18542*
X02799Y-18578*
X02982Y-18542*
X03138Y-18438*
X03242Y-18282*
X03278Y-18099*
X03242Y-17916*
X03138Y-1776*
X02982Y-17656*
X02799Y-1762*
G37*
G36*
Y-1892D02*
X02616Y-18956D01*
X0246Y-1906*
X02356Y-19216*
X0232Y-19399*
X02356Y-19582*
X0246Y-19738*
X02616Y-19842*
X02799Y-19878*
X02982Y-19842*
X03138Y-19738*
X03242Y-19582*
X03278Y-19399*
X03242Y-19216*
X03138Y-1906*
X02982Y-18956*
X02799Y-1892*
G37*
G36*
X09853Y-20477D02*
X09512Y-20522D01*
X09194Y-20653*
X08922Y-20863*
X08712Y-21135*
X08581Y-21453*
X08536Y-21794*
X08581Y-22135*
X08712Y-22453*
X08922Y-22725*
X09194Y-22935*
X09512Y-23066*
X09853Y-23111*
X10194Y-23066*
X10512Y-22935*
X10784Y-22725*
X10994Y-22453*
X11125Y-22135*
X1117Y-21794*
X11125Y-21453*
X10994Y-21135*
X10784Y-20863*
X10512Y-20653*
X10194Y-20522*
X09853Y-20477*
G37*
G36*
X-09853D02*
X-10194Y-20522D01*
X-10512Y-20653*
X-10784Y-20863*
X-10994Y-21135*
X-11125Y-21453*
X-1117Y-21794*
X-11125Y-22135*
X-10994Y-22453*
X-10784Y-22725*
X-10512Y-22935*
X-10194Y-23066*
X-09853Y-23111*
X-09512Y-23066*
X-09194Y-22935*
X-08922Y-22725*
X-08712Y-22453*
X-08581Y-22135*
X-08536Y-21794*
X-08581Y-21453*
X-08712Y-21135*
X-08922Y-20863*
X-09194Y-20653*
X-09512Y-20522*
X-09853Y-20477*
G37*
G36*
X00762Y-25427D02*
X00577Y-25463D01*
X00421Y-25567*
X00317Y-25723*
X00281Y-25908*
X00317Y-26091*
X00421Y-26247*
X00577Y-26351*
X00762Y-26387*
X00945Y-26351*
X01101Y-26247*
X01205Y-26091*
X01241Y-25908*
X01205Y-25723*
X01101Y-25567*
X00945Y-25463*
X00762Y-25427*
G37*
G36*
X06799Y-22119D02*
X06615Y-22155D01*
X06459Y-22259*
X06355Y-22415*
X06319Y-22599*
X06355Y-22783*
X06459Y-22939*
X06615Y-23043*
X06799Y-23079*
X06983Y-23043*
X07139Y-22939*
X07243Y-22783*
X07279Y-22599*
X07243Y-22415*
X07139Y-22259*
X06983Y-22155*
X06799Y-22119*
G37*
G36*
X-00824Y-18945D02*
X-01008Y-18981D01*
X-01164Y-19085*
X-01268Y-19241*
X-01304Y-19425*
X-01268Y-19609*
X-01164Y-19765*
X-01008Y-19869*
X-00824Y-19905*
X-0064Y-19869*
X-00484Y-19765*
X-00381Y-19609*
X-00344Y-19425*
X-00381Y-19241*
X-00484Y-19085*
X-0064Y-18981*
X-00824Y-18945*
G37*
G36*
X0Y-2087D02*
X-00183Y-20906D01*
X-00339Y-2101*
X-00443Y-21166*
X-00479Y-2135*
X-00443Y-21534*
X-00339Y-2169*
X-00183Y-21794*
X0Y-2183*
X00183Y-21794*
X00339Y-2169*
X00443Y-21534*
X00479Y-2135*
X00443Y-21166*
X00339Y-2101*
X00183Y-20906*
X0Y-2087*
G37*
G36*
X06699Y-20919D02*
X06515Y-20955D01*
X06359Y-21059*
X06255Y-21215*
X06219Y-21399*
X06255Y-21583*
X06359Y-21739*
X06515Y-21844*
X06699Y-21879*
X06883Y-21844*
X07039Y-21739*
X07143Y-21583*
X07179Y-21399*
X07143Y-21215*
X07039Y-21059*
X06883Y-20955*
X06699Y-20919*
G37*
G36*
X-03799Y-11719D02*
X-03983Y-11755D01*
X-04139Y-11859*
X-04243Y-12015*
X-04279Y-12199*
X-04243Y-12383*
X-04139Y-12539*
X-03983Y-12643*
X-03799Y-12679*
X-03615Y-12643*
X-03459Y-12539*
X-03355Y-12383*
X-03319Y-12199*
X-03355Y-12015*
X-03459Y-11859*
X-03615Y-11755*
X-03799Y-11719*
G37*
G36*
X-09799Y-12019D02*
X-09983Y-12055D01*
X-10139Y-12159*
X-10243Y-12315*
X-10279Y-12499*
X-10243Y-12683*
X-10139Y-12839*
X-09983Y-12943*
X-09799Y-12979*
X-09615Y-12943*
X-09459Y-12839*
X-09355Y-12683*
X-09319Y-12499*
X-09355Y-12315*
X-09459Y-12159*
X-09615Y-12055*
X-09799Y-12019*
G37*
G36*
X20999Y-12519D02*
X20815Y-12555D01*
X20659Y-12659*
X20555Y-12815*
X20519Y-12999*
X20555Y-13183*
X20659Y-13339*
X20815Y-13443*
X20999Y-13479*
X21183Y-13443*
X21339Y-13339*
X21443Y-13183*
X21479Y-12999*
X21443Y-12815*
X21339Y-12659*
X21183Y-12555*
X20999Y-12519*
G37*
G36*
X15956Y-09104D02*
X15772Y-0914D01*
X15616Y-09244*
X15512Y-094*
X15476Y-09584*
X15512Y-09768*
X15547Y-0982*
X15515Y-09955*
X15359Y-10059*
X15255Y-10215*
X15219Y-10399*
X15255Y-10583*
X15359Y-10739*
X1546Y-10806*
X15469Y-10953*
X15459Y-10959*
X15355Y-11115*
X15319Y-11299*
X15355Y-11483*
X15459Y-11639*
X15469Y-11645*
X1546Y-11792*
X15359Y-11859*
X15255Y-12015*
X15219Y-12199*
X15255Y-12383*
X15359Y-12539*
X15515Y-12643*
X15699Y-12679*
X15883Y-12643*
X16039Y-12539*
X16143Y-12383*
X16179Y-12199*
X16143Y-12015*
X16039Y-11859*
X16029Y-11853*
X16038Y-11706*
X16139Y-11639*
X16243Y-11483*
X16279Y-11299*
X16243Y-11115*
X16139Y-10959*
X16038Y-10892*
X16029Y-10745*
X16039Y-10739*
X16143Y-10583*
X16179Y-10399*
X16143Y-10215*
X16108Y-10163*
X1614Y-10028*
X16295Y-09924*
X16399Y-09768*
X16436Y-09584*
X16399Y-094*
X16295Y-09244*
X1614Y-0914*
X15956Y-09104*
G37*
G36*
X-02299Y-11219D02*
X-02483Y-11255D01*
X-02639Y-11359*
X-02743Y-11515*
X-02779Y-11699*
X-02743Y-11883*
X-02639Y-12039*
X-02483Y-12143*
X-02299Y-12179*
X-02115Y-12143*
X-01959Y-12039*
X-01855Y-11883*
X-01819Y-11699*
X-01855Y-11515*
X-01959Y-11359*
X-02115Y-11255*
X-02299Y-11219*
G37*
G36*
X14499Y-11319D02*
X14315Y-11355D01*
X14159Y-11459*
X14055Y-11615*
X14019Y-11799*
X14055Y-11983*
X14159Y-12139*
X14315Y-12243*
X14499Y-12279*
X14683Y-12243*
X14839Y-12139*
X14943Y-11983*
X14979Y-11799*
X14943Y-11615*
X14839Y-11459*
X14683Y-11355*
X14499Y-11319*
G37*
G36*
X10419Y-11549D02*
X10235Y-11585D01*
X10079Y-11689*
X09975Y-11845*
X09939Y-12029*
X09975Y-12213*
X10079Y-12369*
X10235Y-12473*
X10419Y-12509*
X10603Y-12473*
X10759Y-12369*
X10863Y-12213*
X10899Y-12029*
X10863Y-11845*
X10759Y-11689*
X10603Y-11585*
X10419Y-11549*
G37*
G36*
X17449Y-12569D02*
X17265Y-12605D01*
X17109Y-12709*
X17005Y-12865*
X16969Y-13049*
X17005Y-13233*
X17109Y-13389*
X17265Y-13493*
X17449Y-13529*
X17633Y-13493*
X17789Y-13389*
X17893Y-13233*
X17929Y-13049*
X17893Y-12865*
X17789Y-12709*
X17633Y-12605*
X17449Y-12569*
G37*
G36*
X11199Y-14919D02*
X11015Y-14955D01*
X10859Y-15059*
X10755Y-15215*
X10719Y-15399*
X10755Y-15583*
X10859Y-15739*
X11015Y-15843*
X11199Y-15879*
X11383Y-15843*
X11539Y-15739*
X11643Y-15583*
X11679Y-15399*
X11643Y-15215*
X11539Y-15059*
X11383Y-14955*
X11199Y-14919*
G37*
G36*
X13325Y-14895D02*
X13141Y-14931D01*
X12985Y-15035*
X12881Y-15191*
X12844Y-15375*
X12881Y-15559*
X12985Y-15714*
X13141Y-15818*
X13325Y-15855*
X13508Y-15818*
X13644Y-15728*
X13673Y-15716*
X13797Y-15745*
X13859Y-15839*
X14015Y-15943*
X14199Y-15979*
X14383Y-15943*
X14539Y-15839*
X14643Y-15683*
X14679Y-15499*
X14643Y-15315*
X14539Y-15159*
X14383Y-15055*
X14199Y-15019*
X14015Y-15055*
X13879Y-15146*
X13851Y-15158*
X13727Y-15129*
X13664Y-15035*
X13508Y-14931*
X13325Y-14895*
G37*
G36*
X12199Y-15419D02*
X12015Y-15455D01*
X11859Y-15559*
X11755Y-15715*
X11719Y-15899*
X11755Y-16083*
X11859Y-16239*
X12015Y-16343*
X12199Y-16379*
X12319Y-16356*
X12428Y-16454*
X12419Y-16499*
X12455Y-16683*
X12559Y-16839*
X12715Y-16943*
X12899Y-16979*
X13083Y-16943*
X13239Y-16839*
X13343Y-16683*
X13379Y-16499*
X13343Y-16315*
X13239Y-16159*
X13083Y-16055*
X12899Y-16019*
X1278Y-16042*
X1267Y-15944*
X12679Y-15899*
X12643Y-15715*
X12539Y-15559*
X12383Y-15455*
X12199Y-15419*
G37*
G36*
X16199Y-14819D02*
X16015Y-14855D01*
X15859Y-14959*
X15755Y-15115*
X15719Y-15299*
X15755Y-15483*
X15859Y-15639*
X16015Y-15743*
X16199Y-15779*
X16383Y-15743*
X16539Y-15639*
X16643Y-15483*
X16679Y-15299*
X16643Y-15115*
X16539Y-14959*
X16383Y-14855*
X16199Y-14819*
G37*
G36*
X-14899Y-13419D02*
X-15083Y-13455D01*
X-1524Y-13559*
X-15343Y-13716*
X-15379Y-13899*
X-15343Y-14083*
X-1524Y-14239*
X-15083Y-14343*
X-14899Y-14379*
X-14715Y-14343*
X-14559Y-14239*
X-14455Y-14083*
X-14419Y-13899*
X-14455Y-13716*
X-14559Y-13559*
X-14715Y-13455*
X-14899Y-13419*
G37*
G36*
X18699Y-13519D02*
X18515Y-13555D01*
X18359Y-13659*
X18255Y-13815*
X18219Y-13999*
X18255Y-14183*
X18359Y-14339*
X18515Y-14443*
X18699Y-14479*
X18883Y-14443*
X19039Y-14339*
X19143Y-14183*
X19179Y-13999*
X19143Y-13815*
X19039Y-13659*
X18883Y-13555*
X18699Y-13519*
G37*
G36*
X-15799Y-14219D02*
X-15983Y-14255D01*
X-16139Y-14359*
X-16243Y-14515*
X-16279Y-14699*
X-16243Y-14883*
X-16139Y-15039*
X-15983Y-15143*
X-15799Y-15179*
X-15615Y-15143*
X-15459Y-15039*
X-15355Y-14883*
X-15319Y-14699*
X-15355Y-14515*
X-15459Y-14359*
X-15615Y-14255*
X-15799Y-14219*
G37*
G36*
X11799Y01679D02*
X11615Y01643D01*
X11459Y01539*
X11355Y01383*
X11319Y01199*
X11355Y01016*
X11459Y00859*
X11615Y00755*
X11687Y00741*
X11704Y00716*
X11735Y00602*
X11655Y00483*
X11619Y00299*
X11655Y00115*
X11759Y-00039*
X11915Y-00143*
X12099Y-00179*
X12283Y-00143*
X12439Y-00039*
X12543Y00115*
X12579Y00299*
X12543Y00483*
X12439Y00639*
X12283Y00743*
X12211Y00757*
X12194Y00782*
X12163Y00896*
X12243Y01016*
X12279Y01199*
X12243Y01383*
X12139Y01539*
X11983Y01643*
X11799Y01679*
G37*
G36*
X14699Y14279D02*
X14515Y14243D01*
X14359Y14139*
X14255Y13983*
X14219Y13799*
X14255Y13615*
X14359Y13459*
X14515Y13355*
X14699Y13319*
X14883Y13355*
X15039Y13459*
X15143Y13615*
X15179Y13799*
X15143Y13983*
X15039Y14139*
X14883Y14243*
X14699Y14279*
G37*
G36*
X04449Y1453D02*
X04265Y14493D01*
X0411Y14389*
X04006Y14233*
X03969Y1405*
X04006Y13866*
X0411Y1371*
X04265Y13606*
X04449Y13569*
X04506Y13581*
X04619Y13499*
X04655Y13315*
X04759Y13159*
X04915Y13055*
X05099Y13019*
X05283Y13055*
X05439Y13159*
X05543Y13315*
X05579Y13499*
X05543Y13683*
X05439Y13839*
X05283Y13943*
X05099Y13979*
X05043Y13968*
X04929Y1405*
X04893Y14233*
X04789Y14389*
X04633Y14493*
X04449Y1453*
G37*
G36*
X01899Y13479D02*
X01715Y13443D01*
X01559Y13339*
X01455Y13183*
X01419Y12999*
X01455Y12815*
X01559Y12659*
X01715Y12555*
X01899Y12519*
X02083Y12555*
X02239Y12659*
X02343Y12815*
X02379Y12999*
X02343Y13183*
X02239Y13339*
X02083Y13443*
X01899Y13479*
G37*
G36*
X-01499Y15079D02*
X-01683Y15043D01*
X-01839Y14939*
X-01943Y14783*
X-01979Y14599*
X-01943Y14415*
X-01839Y14259*
X-01683Y14155*
X-01499Y14119*
X-01315Y14155*
X-01159Y14259*
X-01055Y14415*
X-01019Y14599*
X-01055Y14783*
X-01159Y14939*
X-01315Y15043*
X-01499Y15079*
G37*
G36*
X17329Y15309D02*
X17145Y15273D01*
X16989Y15169*
X16885Y15013*
X16849Y14829*
X16885Y14645*
X16989Y14489*
X17145Y14385*
X17329Y14349*
X17513Y14385*
X17669Y14489*
X17773Y14645*
X17809Y14829*
X17773Y15013*
X17669Y15169*
X17513Y15273*
X17329Y15309*
G37*
G36*
X13799Y15179D02*
X13615Y15143D01*
X13459Y15039*
X13355Y14883*
X13319Y14699*
X13355Y14515*
X13459Y14359*
X13615Y14255*
X13799Y14219*
X13983Y14255*
X14139Y14359*
X14243Y14515*
X14279Y14699*
X14243Y14883*
X14139Y15039*
X13983Y15143*
X13799Y15179*
G37*
G36*
X07499D02*
X07315Y15143D01*
X07159Y15039*
X07055Y14883*
X07019Y14699*
X07055Y14515*
X07159Y14359*
X07315Y14255*
X07499Y14219*
X07683Y14255*
X07839Y14359*
X07943Y14515*
X07979Y14699*
X07943Y14883*
X07839Y15039*
X07683Y15143*
X07499Y15179*
G37*
G36*
X-06799Y12679D02*
X-06983Y12643D01*
X-07139Y12539*
X-07243Y12383*
X-07268Y12253*
X-07293Y12194*
X-07401Y1216*
X-07499Y12179*
X-07683Y12143*
X-07839Y12039*
X-07943Y11883*
X-07979Y11699*
X-07943Y11515*
X-07839Y11359*
X-07683Y11255*
X-07499Y11219*
X-07315Y11255*
X-07159Y11359*
X-07055Y11515*
X-07029Y11645*
X-07005Y11704*
X-06897Y11738*
X-06799Y11719*
X-06615Y11755*
X-06459Y11859*
X-06355Y12015*
X-06319Y12199*
X-06355Y12383*
X-06459Y12539*
X-06615Y12643*
X-06799Y12679*
G37*
G36*
X07499Y11279D02*
X07315Y11243D01*
X07159Y11139*
X07055Y10983*
X07019Y10799*
X07055Y10615*
X07159Y10459*
X07315Y10355*
X07499Y10319*
X07683Y10355*
X07839Y10459*
X07943Y10615*
X07979Y10799*
X07943Y10983*
X07839Y11139*
X07683Y11243*
X07499Y11279*
G37*
G36*
X-05499Y10879D02*
X-05683Y10843D01*
X-05839Y10739*
X-05943Y10583*
X-05979Y10399*
X-05943Y10215*
X-05839Y10059*
X-05683Y09955*
X-05499Y09919*
X-05315Y09955*
X-05159Y10059*
X-05055Y10215*
X-05019Y10399*
X-05055Y10583*
X-05159Y10739*
X-05315Y10843*
X-05499Y10879*
G37*
G36*
X16999Y09979D02*
X16815Y09943D01*
X16659Y09839*
X16555Y09683*
X16519Y09499*
X16555Y09315*
X16659Y09159*
X16815Y09055*
X16999Y09019*
X17183Y09055*
X17339Y09159*
X17443Y09315*
X17479Y09499*
X17443Y09683*
X17339Y09839*
X17183Y09943*
X16999Y09979*
G37*
G36*
X13499Y11879D02*
X13315Y11843D01*
X13159Y11739*
X13055Y11583*
X13019Y11399*
X13055Y11215*
X13159Y11059*
X13315Y10955*
X13499Y10919*
X13683Y10955*
X13839Y11059*
X13943Y11215*
X13979Y11399*
X13943Y11583*
X13839Y11739*
X13683Y11843*
X13499Y11879*
G37*
G36*
X-04799Y12578D02*
X-04982Y12542D01*
X-05138Y12438*
X-05242Y12282*
X-05278Y12099*
X-05242Y11916*
X-05138Y1176*
X-04982Y11656*
X-04799Y1162*
X-04616Y11656*
X-0446Y1176*
X-04356Y11916*
X-0432Y12099*
X-04356Y12282*
X-0446Y12438*
X-04616Y12542*
X-04799Y12578*
G37*
G36*
X-13699D02*
X-13882Y12542D01*
X-14038Y12438*
X-14142Y12282*
X-14178Y12099*
X-14142Y11916*
X-14038Y1176*
X-13882Y11656*
X-13699Y1162*
X-13516Y11656*
X-1336Y1176*
X-13256Y11916*
X-1322Y12099*
X-13256Y12282*
X-1336Y12438*
X-13516Y12542*
X-13699Y12578*
G37*
G36*
X00799Y12079D02*
X00615Y12043D01*
X00459Y11939*
X00355Y11783*
X00319Y11599*
X00355Y11415*
X00459Y11259*
X00615Y11155*
X00799Y11119*
X00983Y11155*
X01139Y11259*
X01243Y11415*
X01279Y11599*
X01243Y11783*
X01139Y11939*
X00983Y12043*
X00799Y12079*
G37*
G36*
X02099Y23479D02*
X01915Y23443D01*
X01759Y23339*
X01655Y23183*
X01619Y22999*
X01655Y22815*
X01759Y22659*
X01915Y22555*
X02099Y22519*
X02283Y22555*
X02439Y22659*
X02543Y22815*
X02579Y22999*
X02543Y23183*
X02439Y23339*
X02283Y23443*
X02099Y23479*
G37*
G36*
X-02299Y22505D02*
X-02483Y22469D01*
X-02639Y22365*
X-02743Y22209*
X-02779Y22025*
X-02743Y21841*
X-02639Y21686*
X-02624Y21676*
Y21567*
X-02641Y21534*
X-02743Y21383*
X-02779Y21199*
X-02743Y21015*
X-02639Y20859*
X-02483Y20755*
X-02299Y20719*
X-02115Y20755*
X-01959Y20859*
X-01855Y21015*
X-01819Y21199*
X-01855Y21383*
X-01959Y21539*
X-01974Y21549*
Y21657*
X-01957Y2169*
X-01855Y21841*
X-01819Y22025*
X-01855Y22209*
X-0196Y22365*
X-02115Y22469*
X-02299Y22505*
G37*
G36*
X-14799Y20879D02*
X-14983Y20843D01*
X-15139Y20739*
X-15243Y20583*
X-15279Y20399*
X-15243Y20215*
X-15139Y20059*
X-14983Y19955*
X-14799Y19919*
X-14615Y19955*
X-14459Y20059*
X-14355Y20215*
X-14319Y20399*
X-14355Y20583*
X-14459Y20739*
X-14615Y20843*
X-14799Y20879*
G37*
G36*
X-03199Y24885D02*
X-0348Y24848D01*
X-03742Y2474*
X-03967Y24567*
X-0414Y24342*
X-04248Y2408*
X-04285Y23799*
X-04248Y23518*
X-0414Y23256*
X-03967Y23031*
X-03742Y22858*
X-0348Y2275*
X-03199Y22713*
X-02918Y2275*
X-02656Y22858*
X-02431Y23031*
X-02258Y23256*
X-0215Y23518*
X-02113Y23799*
X-0215Y2408*
X-02258Y24342*
X-02431Y24567*
X-02656Y2474*
X-02918Y24848*
X-03199Y24885*
G37*
G36*
X-04499Y26005D02*
X-04683Y25969D01*
X-04839Y25865*
X-04943Y25709*
X-04979Y25525*
X-04943Y25341*
X-04839Y25186*
X-04683Y25082*
X-04499Y25045*
X-04315Y25082*
X-0416Y25186*
X-04056Y25341*
X-04019Y25525*
X-04056Y25709*
X-0416Y25865*
X-04315Y25969*
X-04499Y26005*
G37*
G36*
X-05624Y25155D02*
X-05808Y25119D01*
X-05964Y25015*
X-06068Y24859*
X-06105Y24675*
X-06068Y24491*
X-05964Y24336*
X-05808Y24232*
X-05624Y24195*
X-05441Y24232*
X-05285Y24336*
X-05181Y24491*
X-05144Y24675*
X-05181Y24859*
X-05285Y25015*
X-05441Y25119*
X-05624Y25155*
G37*
G36*
X04292Y25287D02*
X04018Y25214D01*
X03772Y25072*
X03572Y24871*
X0343Y24626*
X03356Y24352*
Y24068*
X0343Y23794*
X03572Y23549*
X03772Y23348*
X04018Y23206*
X04292Y23133*
X04575*
X04849Y23206*
X05095Y23348*
X05295Y23549*
X05437Y23794*
X0551Y24068*
Y24352*
X05437Y24626*
X05295Y24871*
X05095Y25072*
X04849Y25214*
X04575Y25287*
X04292*
G37*
G36*
X01099Y20379D02*
X00915Y20343D01*
X00759Y20239*
X00655Y20083*
X00619Y19899*
X00626Y19862*
X00536Y19772*
X00499Y19779*
X00315Y19743*
X00159Y19639*
X00055Y19483*
X00019Y19299*
X00055Y19115*
X00159Y18959*
X00315Y18855*
X00499Y18819*
X00683Y18855*
X00839Y18959*
X00943Y19115*
X00979Y19299*
X00972Y19336*
X01062Y19426*
X01099Y19419*
X01283Y19455*
X01439Y19559*
X01543Y19715*
X01579Y19899*
X01543Y20083*
X01439Y20239*
X01283Y20343*
X01099Y20379*
G37*
G36*
X-03299Y17979D02*
X-03483Y17943D01*
X-03639Y17839*
X-03743Y17683*
X-03779Y17499*
X-03743Y17315*
X-03639Y17159*
X-03483Y17055*
X-03299Y17019*
X-03115Y17055*
X-02959Y17159*
X-02855Y17315*
X-02819Y17499*
X-02855Y17683*
X-02959Y17839*
X-03115Y17943*
X-03299Y17979*
G37*
G36*
X-02399Y15878D02*
X-02582Y15842D01*
X-02738Y15738*
X-02842Y15582*
X-02878Y15399*
X-02842Y15216*
X-02738Y1506*
X-02582Y14956*
X-02399Y1492*
X-02216Y14956*
X-0206Y1506*
X-01956Y15216*
X-0192Y15399*
X-01956Y15582*
X-0206Y15738*
X-02216Y15842*
X-02399Y15878*
G37*
G36*
X-16383Y15338D02*
X-16566Y15302D01*
X-16722Y15198*
X-16826Y15042*
X-16862Y14859*
X-16826Y14674*
X-16722Y14518*
X-16566Y14414*
X-16383Y14378*
X-16198Y14414*
X-16042Y14518*
X-15938Y14674*
X-15902Y14859*
X-15938Y15042*
X-16042Y15198*
X-16198Y15302*
X-16383Y15338*
G37*
G36*
X-09899Y18179D02*
X-10083Y18143D01*
X-10239Y18039*
X-10343Y17883*
X-1035Y17847*
X-10484Y17824*
X-1056Y17938*
X-10716Y18042*
X-10899Y18078*
X-11082Y18042*
X-11238Y17938*
X-11342Y17782*
X-11364Y17672*
X-11498Y17645*
X-1156Y17738*
X-11716Y17842*
X-11899Y17878*
X-12082Y17842*
X-12238Y17738*
X-12342Y17582*
X-12378Y17399*
X-12377Y17392*
X-12496Y17342*
X-1256Y17438*
X-12716Y17542*
X-12899Y17578*
X-13082Y17542*
X-13238Y17438*
X-13342Y17282*
X-13378Y17099*
X-13342Y16916*
X-13238Y1676*
X-13082Y16656*
X-12899Y1662*
X-12852Y16629*
X-12851*
X-12754Y16519*
X-12778Y16399*
X-12754Y16279*
X-12851Y16169*
X-12852*
X-12899Y16178*
X-13082Y16142*
X-13238Y16038*
X-13342Y15882*
X-13378Y15699*
X-13342Y15516*
X-13238Y1536*
X-13082Y15256*
X-12899Y1522*
X-12716Y15256*
X-1256Y1536*
X-12456Y15516*
X-1242Y15699*
X-12444Y15819*
X-12347Y15929*
X-12346*
X-12299Y1592*
X-12116Y15956*
X-1196Y1606*
X-11856Y16216*
X-1182Y16399*
X-11856Y16582*
X-1196Y16738*
X-12023Y1678*
X-12116Y16842*
X-12074Y16955*
X-11899Y1692*
X-11716Y16956*
X-1156Y1706*
X-11456Y17216*
X-11434Y17326*
X-113Y17353*
X-11238Y1726*
X-11082Y17156*
X-10899Y1712*
X-10716Y17156*
X-1056Y1726*
X-10456Y17416*
X-10449Y17451*
X-10315Y17474*
X-10239Y17359*
X-10083Y17255*
X-09899Y17219*
X-09715Y17255*
X-09559Y17359*
X-09455Y17515*
X-09419Y17699*
X-09455Y17883*
X-09559Y18039*
X-09715Y18143*
X-09899Y18179*
G37*
G36*
X-13999Y20079D02*
X-14183Y20043D01*
X-14339Y19939*
X-14443Y19783*
X-14479Y19599*
X-14443Y19415*
X-14339Y19259*
X-14183Y19155*
X-13999Y19119*
X-13815Y19155*
X-13659Y19259*
X-13555Y19415*
X-13519Y19599*
X-13555Y19783*
X-13659Y19939*
X-13815Y20043*
X-13999Y20079*
G37*
G36*
X14177Y21192D02*
X13903Y21119D01*
X13658Y20977*
X13457Y20777*
X13315Y20531*
X13242Y20257*
Y19974*
X13315Y197*
X13457Y19454*
X13658Y19253*
X13903Y19112*
X14177Y19038*
X14461*
X14735Y19112*
X1498Y19253*
X15181Y19454*
X15323Y197*
X15396Y19974*
Y20257*
X15323Y20531*
X15181Y20777*
X1498Y20977*
X14735Y21119*
X14461Y21192*
X14177*
G37*
G36*
X-01799Y18878D02*
X-01982Y18842D01*
X-02138Y18738*
X-02242Y18582*
X-02278Y18399*
X-02242Y18216*
X-02138Y1806*
X-01982Y17956*
X-01799Y1792*
X-01616Y17956*
X-0146Y1806*
X-01356Y18216*
X-0132Y18399*
X-01356Y18582*
X-0146Y18738*
X-01616Y18842*
X-01799Y18878*
G37*
G36*
X12199Y09879D02*
X12015Y09843D01*
X11859Y09739*
X11755Y09583*
X11719Y09399*
X11755Y09215*
X11859Y09059*
X12015Y08955*
X12199Y08919*
X12383Y08955*
X12539Y09059*
X12643Y09215*
X12679Y09399*
X12643Y09583*
X12539Y09739*
X12383Y09843*
X12199Y09879*
G37*
G36*
X09399Y04879D02*
X09215Y04843D01*
X09059Y04739*
X08955Y04583*
X08919Y04399*
X08955Y04215*
X09059Y04059*
X09215Y03955*
X09399Y03919*
X09583Y03955*
X09739Y04059*
X09843Y04215*
X09879Y04399*
X09843Y04583*
X09739Y04739*
X09583Y04843*
X09399Y04879*
G37*
G36*
X-06699Y04079D02*
X-06883Y04043D01*
X-07039Y03939*
X-07143Y03783*
X-07179Y03599*
X-07143Y03415*
X-07039Y03259*
X-06883Y03155*
X-06699Y03119*
X-06515Y03155*
X-06359Y03259*
X-06255Y03415*
X-06219Y03599*
X-06255Y03783*
X-06359Y03939*
X-06515Y04043*
X-06699Y04079*
G37*
G36*
X00799Y03879D02*
X00615Y03843D01*
X00459Y03739*
X00355Y03583*
X00319Y03399*
X00355Y03215*
X00459Y03059*
X00615Y02955*
X00799Y02919*
X00983Y02955*
X01139Y03059*
X01243Y03215*
X01279Y03399*
X01243Y03583*
X01139Y03739*
X00983Y03843*
X00799Y03879*
G37*
G36*
X01099Y05879D02*
X00915Y05843D01*
X00759Y05739*
X00655Y05583*
X00619Y05399*
X00655Y05215*
X00747Y05078*
X00721Y04944*
X00715Y04943*
X00559Y04839*
X00455Y04683*
X00419Y04499*
X00455Y04315*
X00559Y04159*
X00715Y04055*
X00899Y04019*
X01083Y04055*
X01239Y04159*
X01343Y04315*
X01379Y04499*
X01343Y04683*
X01251Y0482*
X01277Y04954*
X01283Y04955*
X01439Y05059*
X01543Y05215*
X01579Y05399*
X01543Y05583*
X01439Y05739*
X01283Y05843*
X01099Y05879*
G37*
G36*
X14199Y05679D02*
X14015Y05643D01*
X13859Y05539*
X13755Y05383*
X13719Y05199*
X13755Y05015*
X13859Y04859*
X14015Y04755*
X14199Y04719*
X14383Y04755*
X14539Y04859*
X14643Y05015*
X14679Y05199*
X14643Y05383*
X14539Y05539*
X14383Y05643*
X14199Y05679*
G37*
G36*
X-06699D02*
X-06883Y05643D01*
X-07039Y05539*
X-07143Y05383*
X-07179Y05199*
X-07143Y05015*
X-07039Y04859*
X-06883Y04755*
X-06699Y04719*
X-06515Y04755*
X-06359Y04859*
X-06255Y05015*
X-06219Y05199*
X-06255Y05383*
X-06359Y05539*
X-06515Y05643*
X-06699Y05679*
G37*
G36*
X11999Y06279D02*
X11815Y06243D01*
X11659Y06139*
X11555Y05983*
X11519Y05799*
X11555Y05615*
X11647Y05478*
X11621Y05344*
X11615Y05343*
X11459Y05239*
X11355Y05083*
X11319Y04899*
X11355Y04715*
X11459Y04559*
X11615Y04455*
X11799Y04419*
X11983Y04455*
X12139Y04559*
X12243Y04715*
X12279Y04899*
X12243Y05083*
X12151Y0522*
X12177Y05354*
X12183Y05355*
X12339Y05459*
X12443Y05615*
X12479Y05799*
X12443Y05983*
X12339Y06139*
X12183Y06243*
X11999Y06279*
G37*
G36*
X14099Y04579D02*
X13915Y04543D01*
X13759Y04439*
X13655Y04283*
X13619Y04099*
X13655Y03915*
X13729Y03805*
X13693Y03675*
X13683Y03663*
X13535Y03564*
X13431Y03408*
X13394Y03224*
X13431Y0304*
X13535Y02885*
X13691Y0278*
X13875Y02744*
X14058Y0278*
X14214Y02885*
X14318Y0304*
X14355Y03224*
X14318Y03408*
X14245Y03518*
X14281Y03648*
X14291Y03661*
X14439Y03759*
X14543Y03915*
X14579Y04099*
X14543Y04283*
X14439Y04439*
X14283Y04543*
X14099Y04579*
G37*
G36*
X-02599Y01679D02*
X-02783Y01643D01*
X-02939Y01539*
X-03043Y01383*
X-03079Y01199*
X-03043Y01016*
X-02939Y00859*
X-02783Y00755*
X-02599Y00719*
X-02415Y00755*
X-02259Y00859*
X-02155Y01016*
X-02119Y01199*
X-02155Y01383*
X-02259Y01539*
X-02415Y01643*
X-02599Y01679*
G37*
G36*
X-03799D02*
X-03983Y01643D01*
X-04139Y01539*
X-04243Y01383*
X-04279Y01199*
X-04243Y01016*
X-04139Y00859*
X-03983Y00755*
X-03799Y00719*
X-03615Y00755*
X-03459Y00859*
X-03355Y01016*
X-03319Y01199*
X-03355Y01383*
X-03459Y01539*
X-03615Y01643*
X-03799Y01679*
G37*
G36*
X-06799D02*
X-06983Y01643D01*
X-07139Y01539*
X-07243Y01383*
X-07279Y01199*
X-07243Y01016*
X-07139Y00859*
X-06983Y00755*
X-06799Y00719*
X-06615Y00755*
X-06459Y00859*
X-06355Y01016*
X-06319Y01199*
X-06355Y01383*
X-06459Y01539*
X-06615Y01643*
X-06799Y01679*
G37*
G36*
X-14699Y01479D02*
X-14883Y01443D01*
X-15039Y01339*
X-15143Y01183*
X-15179Y00999*
X-1516Y00901*
X-15268Y00793*
X-15325Y00804*
X-15509Y00768*
X-15664Y00664*
X-15768Y00508*
X-15805Y00324*
X-15768Y0014*
X-15664Y-00014*
X-15509Y-00118*
X-15325Y-00154*
X-15141Y-00118*
X-14986Y-00014*
X-14881Y0014*
X-14845Y00324*
X-14864Y00422*
X-14756Y0053*
X-14699Y00519*
X-14515Y00555*
X-14359Y00659*
X-14255Y00815*
X-14219Y00999*
X-14255Y01183*
X-14359Y01339*
X-14515Y01443*
X-14699Y01479*
G37*
G36*
X01599Y03079D02*
X01415Y03043D01*
X01259Y02939*
X01155Y02783*
X01119Y02599*
X01155Y02415*
X01259Y02259*
X01415Y02155*
X01599Y02119*
X01783Y02155*
X01939Y02259*
X02043Y02415*
X02079Y02599*
X02043Y02783*
X01939Y02939*
X01783Y03043*
X01599Y03079*
G37*
G36*
X-21099Y02479D02*
X-21283Y02443D01*
X-21439Y02339*
X-21543Y02183*
X-21579Y01999*
X-21572Y01962*
X-21662Y01872*
X-21699Y01879*
X-21883Y01843*
X-22039Y01739*
X-22143Y01583*
X-22179Y01399*
X-22143Y01215*
X-22039Y01059*
X-22029Y01053*
X-22038Y00906*
X-22139Y00839*
X-22243Y00683*
X-22279Y00499*
X-22243Y00315*
X-22139Y00159*
X-21983Y00055*
X-21799Y00019*
X-21615Y00055*
X-21459Y00159*
X-21355Y00315*
X-21319Y00499*
X-21355Y00683*
X-21459Y00839*
X-21469Y00845*
X-2146Y00992*
X-21359Y01059*
X-21255Y01215*
X-21219Y01399*
X-21226Y01436*
X-21136Y01526*
X-21099Y01519*
X-20915Y01555*
X-20759Y01659*
X-20655Y01815*
X-20619Y01999*
X-20655Y02183*
X-20759Y02339*
X-20915Y02443*
X-21099Y02479*
G37*
G36*
X02524Y02004D02*
X0234Y01968D01*
X02185Y01864*
X0208Y01708*
X02044Y01524*
X0208Y0134*
X02185Y01185*
X0234Y0108*
X02524Y01044*
X02708Y0108*
X02864Y01185*
X02968Y0134*
X03004Y01524*
X02968Y01708*
X02864Y01864*
X02708Y01968*
X02524Y02004*
G37*
G36*
X-08699Y09978D02*
X-08882Y09942D01*
X-09038Y09838*
X-09142Y09682*
X-09178Y09499*
X-09142Y09316*
X-09041Y09164*
X-09023Y09132*
Y09023*
X-09038Y09013*
X-09142Y08858*
X-09179Y08674*
X-09142Y08491*
X-09038Y08336*
X-08883Y08232*
X-08699Y08195*
X-08516Y08232*
X-08361Y08336*
X-08257Y08491*
X-0822Y08674*
X-08257Y08858*
X-08358Y09009*
X-08375Y09042*
Y0915*
X-0836Y0916*
X-08256Y09316*
X-0822Y09499*
X-08256Y09682*
X-0836Y09838*
X-08516Y09942*
X-08699Y09978*
G37*
G36*
X06024Y09003D02*
X05842Y08967D01*
X05685Y08863*
X05581Y08707*
X05545Y08524*
X05581Y08341*
X05685Y08185*
X05842Y08081*
X06024Y08045*
X06207Y08081*
X06363Y08185*
X06467Y08341*
X06503Y08524*
X06467Y08707*
X06363Y08863*
X06207Y08967*
X06024Y09003*
G37*
G36*
X07199Y08879D02*
X07015Y08843D01*
X06859Y08739*
X06755Y08583*
X06719Y08399*
X06755Y08215*
X06859Y08059*
X07015Y07955*
X07199Y07919*
X07383Y07955*
X07539Y08059*
X07643Y08215*
X07679Y08399*
X07643Y08583*
X07539Y08739*
X07383Y08843*
X07199Y08879*
G37*
G36*
X-21794Y1117D02*
X-22135Y11125D01*
X-22453Y10994*
X-22725Y10784*
X-22935Y10512*
X-23066Y10194*
X-23111Y09853*
X-23066Y09512*
X-22935Y09194*
X-22725Y08922*
X-22453Y08712*
X-22135Y08581*
X-21794Y08536*
X-21453Y08581*
X-21135Y08712*
X-20863Y08922*
X-20653Y09194*
X-20522Y09512*
X-20477Y09853*
X-20522Y10194*
X-20653Y10512*
X-20863Y10784*
X-21135Y10994*
X-21453Y11125*
X-21794Y1117*
G37*
G36*
X08199Y09879D02*
X08015Y09843D01*
X07859Y09739*
X07755Y09583*
X07719Y09399*
X07755Y09215*
X07859Y09059*
X08015Y08955*
X08199Y08919*
X08383Y08955*
X08539Y09059*
X08643Y09215*
X08679Y09399*
X08643Y09583*
X08539Y09739*
X08383Y09843*
X08199Y09879*
G37*
G36*
X11099Y09779D02*
X10915Y09743D01*
X10759Y09639*
X10655Y09483*
X10619Y09299*
X10655Y09115*
X10759Y08959*
X10915Y08855*
X11099Y08819*
X11283Y08855*
X11439Y08959*
X11543Y09115*
X11579Y09299*
X11543Y09483*
X11439Y09639*
X11283Y09743*
X11099Y09779*
G37*
G36*
X21794Y1117D02*
X21453Y11125D01*
X21135Y10994*
X20863Y10784*
X20653Y10512*
X20522Y10194*
X20477Y09853*
X20522Y09512*
X20653Y09194*
X20863Y08922*
X21135Y08712*
X21453Y08581*
X21794Y08536*
X22135Y08581*
X22453Y08712*
X22725Y08922*
X22935Y09194*
X23066Y09512*
X23111Y09853*
X23066Y10194*
X22935Y10512*
X22725Y10784*
X22453Y10994*
X22135Y11125*
X21794Y1117*
G37*
G36*
X11599Y07879D02*
X11415Y07843D01*
X11259Y07739*
X11155Y07583*
X11119Y07399*
X11155Y07215*
X11259Y07059*
X11415Y06955*
X11599Y06919*
X11783Y06955*
X11939Y07059*
X12043Y07215*
X12079Y07399*
X12043Y07583*
X11939Y07739*
X11783Y07843*
X11599Y07879*
G37*
G36*
X-21199Y06779D02*
X-21383Y06743D01*
X-21539Y06639*
X-21643Y06483*
X-21679Y06299*
X-21643Y06115*
X-21539Y05959*
X-21383Y05855*
X-21199Y05819*
X-21015Y05855*
X-20859Y05959*
X-20755Y06115*
X-20719Y06299*
X-20755Y06483*
X-20859Y06639*
X-21015Y06743*
X-21199Y06779*
G37*
G36*
X0476Y0563D02*
X04576Y05594D01*
X04421Y0549*
X04316Y05334*
X04303Y05267*
X04168Y0524*
X04119Y05314*
X03964Y05418*
X0378Y05454*
X03596Y05418*
X0344Y05314*
X03336Y05158*
X033Y04974*
X03336Y0479*
X0344Y04635*
X03596Y0453*
X03613Y04527*
X0364Y04392*
X03559Y04339*
X03455Y04183*
X03419Y03999*
X03455Y03815*
X03559Y03659*
X03715Y03556*
X03899Y03519*
X04083Y03556*
X04239Y03659*
X04343Y03815*
X04379Y03999*
X04343Y04183*
X04239Y04339*
X04083Y04443*
X04066Y04446*
X04039Y04581*
X04119Y04635*
X04224Y0479*
X04237Y04857*
X04372Y04884*
X04421Y04811*
X04576Y04707*
X0476Y0467*
X04944Y04707*
X051Y04811*
X05204Y04966*
X0524Y0515*
X05204Y05334*
X051Y0549*
X04944Y05594*
X0476Y0563*
G37*
G36*
X-14234Y05497D02*
X-14418Y05461D01*
X-14574Y05356*
X-14648Y05245*
X-14783Y05236*
X-14793Y05239*
X-14859Y05339*
X-15015Y05443*
X-15199Y05479*
X-15383Y05443*
X-15539Y05339*
X-15643Y05183*
X-15679Y04999*
X-15643Y04815*
X-15539Y04659*
X-15383Y04555*
X-15199Y04519*
X-15015Y04555*
X-14859Y04659*
X-14785Y04771*
X-1465Y0478*
X-1464Y04777*
X-14574Y04677*
X-14418Y04573*
X-14234Y04536*
X-1405Y04573*
X-13894Y04677*
X-1379Y04833*
X-13754Y05017*
X-1379Y052*
X-13894Y05356*
X-1405Y05461*
X-14234Y05497*
G37*
G36*
X14599Y06879D02*
X14415Y06843D01*
X14259Y06739*
X14155Y06583*
X14119Y06399*
X14155Y06215*
X14259Y06059*
X14415Y05955*
X14599Y05919*
X14783Y05955*
X14939Y06059*
X15043Y06215*
X15079Y06399*
X15043Y06583*
X14939Y06739*
X14783Y06843*
X14599Y06879*
G37*
G36*
X06499Y07779D02*
X06315Y07743D01*
X06159Y07639*
X06055Y07483*
X06019Y07299*
X06055Y07115*
X06159Y06959*
X06315Y06855*
X06499Y06819*
X06683Y06855*
X06839Y06959*
X06943Y07115*
X06979Y07299*
X06943Y07483*
X06839Y07639*
X06683Y07743*
X06499Y07779*
G37*
G36*
X-19799Y07479D02*
X-19983Y07443D01*
X-20139Y07339*
X-20243Y07183*
X-20279Y06999*
X-20243Y06815*
X-20139Y06659*
X-19983Y06555*
X-19799Y06519*
X-19615Y06555*
X-19459Y06659*
X-19355Y06815*
X-19319Y06999*
X-19355Y07183*
X-19459Y07339*
X-19615Y07443*
X-19799Y07479*
G37*
G36*
X10424Y07354D02*
X1024Y07318D01*
X10084Y07214*
X0998Y07058*
X09944Y06874*
X0998Y0669*
X10084Y06534*
X1024Y0643*
X10424Y06394*
X10608Y0643*
X10764Y06534*
X10868Y0669*
X10904Y06874*
X10868Y07058*
X10764Y07214*
X10608Y07318*
X10424Y07354*
G37*
%LNledpendantpcb-3*%
%LPD*%
G54D44*
X02641Y25247D03*
G54D46*
X-04299Y20199D03*
X25199Y-03699D03*
X08584Y04199D03*
X08599Y-00099D03*
X10199Y-02049D03*
X-22699Y01899D03*
X-16999Y-15199D03*
X18699Y-17499D03*
X16002Y-1905D03*
X13699Y-11299D03*
X0Y-13299D03*
X10382Y-08782D03*
X-00899Y01999D03*
X-01499Y08099D03*
X-17399Y05199D03*
X-22199Y-01899D03*
X-13799Y21299D03*
X01699Y-10099D03*
X02999Y-14586D03*
X01799Y-16799D03*
X-00762Y-01905D03*
X-08749Y03849D03*
X05974Y-13474D03*
X16399Y18799D03*
X22399Y01999D03*
X0Y-22199D03*
X16099Y14999D03*
X25699Y-01899D03*
X-15599Y18799D03*
X16999Y-14899D03*
X01999Y-24899D03*
X-14999Y-17799D03*
X01899Y-00899D03*
X-00762Y-16764D03*
X-17526Y-1905D03*
X-24765Y-01905D03*
X-17907Y14859D03*
X-00762Y-25908D03*
X23241Y-01905D03*
X02099Y23899D03*
X-07799Y0D03*
X10999Y-17699D03*
X-15075Y02249D03*
X-02094Y24765D03*
X10399Y13799D03*
X-13099Y-01499D03*
X06599Y0D03*
X-13599Y04499D03*
X05599Y06199D03*
X-03549Y12049D03*
X-05999Y15999D03*
X-00799Y18399D03*
X22299Y-12999D03*
X-05831Y25638D03*
X-10799Y11599D03*
X13175Y-03499D03*
X16024Y-02524D03*
X-19599Y-15099D03*
X-21259Y-02088D03*
X-15659Y-10429D03*
X-15939Y-09749D03*
X-17049Y-06959D03*
X-16769Y-07659D03*
X-16489Y-08349D03*
X-18899Y-14499D03*
X-18199Y-14099D03*
X-14979Y-12099D03*
X-19499Y-16199D03*
X-14499Y-03199D03*
X-16209Y-09049D03*
X-03009Y-19759D03*
X09069Y-12879D03*
X07999Y-22519D03*
X02319Y-21559D03*
X-09519Y-08209D03*
G54D47*
X04799Y08499D03*
X-05999Y09099D03*
G54D48*
X-09699Y15374D03*
X-08599D03*
X-09699Y14274D03*
X-08599D03*
X-17499Y00524D03*
X-18599D03*
X-17499Y01624D03*
X-18599D03*
M02*