%FSTAX23Y23*%
%MOMM*%
%SFA1B1*%

%IPPOS*%
%AMD49*
4,1,4,-0.441960,0.830580,-0.939800,-0.033020,0.441960,-0.830580,0.939800,0.033020,-0.441960,0.830580,0.0*
%
%AMD50*
4,1,4,0.693420,-0.739140,0.901700,-0.462280,-0.693420,0.739140,-0.901700,0.462280,0.693420,-0.739140,0.0*
%
%ADD26R,0.799998X0.499999*%
%ADD27R,0.799998X0.299999*%
%ADD28R,0.299999X0.999998*%
G04~CAMADD=49~9~0.0~0.0~393.7~629.9~0.0~0.0~0~0.0~0.0~0.0~0.0~0~0.0~0.0~0.0~0.0~0~0.0~0.0~0.0~60.0~740.0~653.0*
%ADD49D49*%
G04~CAMADD=50~9~0.0~0.0~137.8~787.4~0.0~0.0~0~0.0~0.0~0.0~0.0~0~0.0~0.0~0.0~0.0~0~0.0~0.0~0.0~233.0~710.0~581.0*
%ADD50D50*%
%ADD51R,0.609999X1.599997*%
%LNledpendantpcb-1*%
%LPD*%
G54D26*
X09499Y02899D03*
Y01099D03*
X07999Y02899D03*
Y01099D03*
X-00749Y-00899D03*
Y00899D03*
X00749Y-00899D03*
Y00899D03*
X-07999Y02899D03*
Y01099D03*
X-09499Y02899D03*
Y01099D03*
X-00749Y-15899D03*
Y-14099D03*
X00749Y-15899D03*
Y-14099D03*
Y-23099D03*
Y-24899D03*
X-00749Y-23099D03*
Y-24899D03*
X-17719Y-17869D03*
Y-16069D03*
X-16219Y-17869D03*
Y-16069D03*
X-23249Y00899D03*
Y-00899D03*
X-24749Y00899D03*
Y-00899D03*
X-17719Y16069D03*
Y17869D03*
X-16219Y16069D03*
Y17869D03*
X00749Y24899D03*
Y23099D03*
X-00749Y24899D03*
Y23099D03*
X16219Y16069D03*
Y17869D03*
X17719Y16069D03*
Y17869D03*
X24749Y00899D03*
Y-00899D03*
X23249Y00899D03*
Y-00899D03*
X16219Y-17869D03*
Y-16069D03*
X17719Y-17869D03*
Y-16069D03*
G54D27*
X09499Y01999D03*
X07999D03*
X-00749Y0D03*
X00749D03*
X-07999Y01999D03*
X-09499D03*
X-00749Y-14999D03*
X00749D03*
Y-23999D03*
X-00749D03*
X-17719Y-16969D03*
X-16219D03*
X-23249Y0D03*
X-24749D03*
X-17719Y16969D03*
X-16219D03*
X00749Y23999D03*
X-00749D03*
X16219Y16969D03*
X17719D03*
X24749Y0D03*
X23249D03*
X16219Y-16969D03*
X17719D03*
G54D28*
X08749Y02829D03*
Y01169D03*
X0Y-00829D03*
Y00829D03*
X-08749Y02829D03*
Y01169D03*
X0Y-15829D03*
Y-14169D03*
Y-23169D03*
Y-24829D03*
X-16969Y-17799D03*
Y-16139D03*
X-23999Y00829D03*
Y-00829D03*
X-16969Y16139D03*
Y17799D03*
X0Y24829D03*
Y23169D03*
X16969Y16139D03*
Y17799D03*
X23999Y00829D03*
Y-00829D03*
X16969Y-17799D03*
Y-16139D03*
G54D49*
X1211Y-08874D03*
X15438Y-07909D03*
X12938Y-12239D03*
X14188Y-10074D03*
X1086Y-11039D03*
X1336Y-06709D03*
G54D50*
X04156Y01156D03*
X04578Y01715D03*
X04999Y02274D03*
X0542Y02833D03*
X05842Y03392D03*
X06263Y03951D03*
X06684Y0451D03*
X07105Y05069D03*
X07527Y05628D03*
X07948Y06187D03*
X08369Y06746D03*
X0879Y07305D03*
X09212Y07864D03*
X09633Y08423D03*
G54D51*
X17699Y-04199D03*
X18969D03*
X17699Y01199D03*
X18969D03*
X16429Y-04199D03*
X20239D03*
X16429Y01199D03*
X20239D03*
M02*